<?xml version="1.0" encoding="UTF-8" standalone="no"?>
<!-- Created with Inkscape (http://www.inkscape.org/) -->

<svg
   xmlns:dc="http://purl.org/dc/elements/1.1/"
   xmlns:cc="http://creativecommons.org/ns#"
   xmlns:rdf="http://www.w3.org/1999/02/22-rdf-syntax-ns#"
   xmlns:svg="http://www.w3.org/2000/svg"
   xmlns="http://www.w3.org/2000/svg"
   xmlns:sodipodi="http://sodipodi.sourceforge.net/DTD/sodipodi-0.dtd"
   xmlns:inkscape="http://www.inkscape.org/namespaces/inkscape"
   width="210mm"
   height="297mm"
   viewBox="0 0 744.09448819 1052.3622047"
   id="svg2"
   version="1.1"
   inkscape:version="0.91 r13725"
   sodipodi:docname="Dasar.svg"
   inkscape:export-filename="/home/ars/git/GLiB/Kesenian/GLiB/Sticker/1-300dpi.png"
   inkscape:export-xdpi="300"
   inkscape:export-ydpi="300">
  <defs
     id="defs4" />
  <sodipodi:namedview
     id="base"
     pagecolor="#ffffff"
     bordercolor="#666666"
     borderopacity="1.0"
     inkscape:pageopacity="0.0"
     inkscape:pageshadow="2"
     inkscape:zoom="0.98994949"
     inkscape:cx="422.55897"
     inkscape:cy="885.49783"
     inkscape:document-units="px"
     inkscape:current-layer="layer1"
     showgrid="false"
     inkscape:window-width="1366"
     inkscape:window-height="740"
     inkscape:window-x="1920"
     inkscape:window-y="332"
     inkscape:window-maximized="1" />
  <metadata
     id="metadata7">
    <rdf:RDF>
      <cc:Work
         rdf:about="">
        <dc:format>image/svg+xml</dc:format>
        <dc:type
           rdf:resource="http://purl.org/dc/dcmitype/StillImage" />
        <dc:title />
      </cc:Work>
    </rdf:RDF>
  </metadata>
  <g
     inkscape:label="Layer 1"
     inkscape:groupmode="layer"
     id="layer1">
    <g
       id="g4223"
       transform="matrix(0.94488185,0,0,0.94488185,271.82739,-160.72307)">
      <path
         style="fill:#8c8c8c"
         d="m 96.97066,209.79964 c 0.47439,1.73773 0.93917,3.61297 1.28797,5.54005 0.0127,0.0702 0.0229,0.14144 0.0353,0.21172 0.0174,0.1115 0.0361,0.22362 0.0529,0.33522 0.25848,1.71551 0.42728,3.44084 0.5293,5.1519 0.002,0.0643 0.016,0.12989 0.0177,0.19407 0.002,0.0173 -0.002,0.0357 0,0.0529 0.008,0.14758 0.0106,0.29378 0.0177,0.44109 0.0153,0.32317 0.0432,0.64881 0.0529,0.97039 0.004,0.12377 -0.003,0.24701 0,0.37051 0.0108,0.46163 0.0188,0.91904 0.0177,1.37619 -0.001,0.52161 -0.019,1.03842 -0.0353,1.55263 -0.002,0.0582 0.002,0.11837 0,0.17643 -0.016,0.45438 -0.0426,0.91136 -0.0706,1.35855 -0.0285,0.45474 -0.0473,0.91247 -0.0882,1.35854 -0.0125,0.13648 -0.0392,0.27021 -0.0529,0.4058 -0.0184,0.18277 -0.0323,0.36586 -0.0529,0.54695 -0.0247,0.21777 -0.0605,0.43761 -0.0882,0.65281 -0.0227,0.17583 -0.0458,0.35527 -0.0706,0.5293 -0.0427,0.30063 -0.0923,0.60493 -0.14115,0.89982 -0.0136,0.082 -0.0212,0.16549 -0.0353,0.24701 -0.0659,0.38212 -0.13546,0.75783 -0.21172,1.12918 -0.72391,3.4098 -1.67767,9.05643 -5.83998,10.67428 -0.13837,-0.006 -0.27089,-0.005 -0.4058,0 -0.006,2e-4 -0.0119,-2e-4 -0.0177,0 -0.12895,0.005 -0.26257,0.0208 -0.38816,0.0353 -0.006,5.7e-4 -0.0119,-5.6e-4 -0.0177,0 -0.12523,0.0149 -0.24882,0.0289 -0.37051,0.0529 -0.006,0.001 -0.0119,-10e-4 -0.0177,0 -0.12146,0.0244 -0.23513,0.0552 -0.35286,0.0882 -0.0121,0.003 -0.0232,0.0142 -0.0353,0.0177 -0.11059,0.032 -0.22812,0.0666 -0.33523,0.10587 -0.0121,0.005 -0.0232,0.0131 -0.0353,0.0177 -0.10629,0.0399 -0.21492,0.0767 -0.31759,0.1235 -0.12893,0.059 -0.24757,0.12478 -0.37051,0.19408 -0.0953,0.0535 -0.19074,0.0995 -0.28229,0.15879 -0.0176,0.0114 -0.0356,0.0237 -0.0529,0.0353 -0.19061,0.12676 -0.37391,0.27348 -0.54694,0.42344 -0.0187,0.0162 -0.0344,0.0364 -0.0529,0.0529 -0.16805,0.14968 -0.32665,0.30731 -0.47637,0.47638 -0.16701,0.18839 -0.31609,0.39091 -0.45873,0.59987 -0.13249,0.19409 -0.26043,0.39116 -0.37051,0.59988 -0.006,0.0119 -0.0115,0.0234 -0.0177,0.0353 -0.0918,0.17664 -0.17214,0.36197 -0.24701,0.54695 -0.0213,0.0529 -0.0507,0.10532 -0.0706,0.15879 -0.006,0.0173 -0.0113,0.0356 -0.0177,0.0529 -0.0554,0.15227 -0.0976,0.30249 -0.14115,0.45873 -0.0197,0.0709 -0.0357,0.14014 -0.0529,0.21172 -0.0129,0.0536 -0.0238,0.10482 -0.0353,0.15879 -0.0148,0.0692 -0.0229,0.14202 -0.0353,0.21172 -0.028,0.15722 -0.0549,0.31737 -0.0706,0.47638 -0.0157,0.15913 -0.0325,0.31636 -0.0353,0.47637 -0.001,0.0651 -0.001,0.12898 0,0.19408 2.6e-4,0.0177 -4.3e-4,0.0352 0,0.0529 0.003,0.14802 0.0203,0.29347 0.0353,0.44108 0.0121,0.11807 0.0157,0.23549 0.0353,0.35287 0.0371,0.22342 0.0936,0.45143 0.15879,0.67045 0.0222,0.0746 0.0451,0.1555 0.0706,0.22937 0.0164,0.0474 0.0351,0.0941 0.0529,0.14115 0.002,0.005 -0.002,0.0126 0,0.0177 0.0446,0.11674 0.10555,0.22079 0.15879,0.33522 0.0363,0.0781 0.0654,0.15254 0.10586,0.22937 0.0223,0.0423 0.047,0.0816 0.0706,0.1235 0.0436,0.0778 0.0931,0.15305 0.14115,0.22937 0.0248,0.0395 0.0446,0.0844 0.0706,0.1235 -0.0336,0.15688 -0.0813,0.30613 -0.12351,0.45873 -0.0418,0.0358 -0.0824,0.0683 -0.1235,0.10586 -0.0869,0.0792 -0.16347,0.16048 -0.24701,0.24701 -0.0465,0.0481 -0.0958,0.0909 -0.14115,0.14115 -0.0762,0.0842 -0.1566,0.17482 -0.22936,0.26465 -0.0468,0.0578 -0.0959,0.11644 -0.14115,0.17643 -0.0646,0.0856 -0.11515,0.17492 -0.17644,0.26466 -0.0487,0.0713 -0.0947,0.13804 -0.14114,0.21172 -0.0549,0.0869 -0.10719,0.17469 -0.15879,0.26465 -0.0472,0.0823 -0.0969,0.16233 -0.14115,0.24701 -0.0448,0.0855 -0.0818,0.17699 -0.12351,0.26465 -0.0819,0.17273 -0.16044,0.34944 -0.22936,0.5293 -0.0408,0.1065 -0.0876,0.20907 -0.12351,0.31759 -0.0135,0.0405 -0.0225,0.0827 -0.0353,0.1235 -0.0474,0.15209 -0.0864,0.30384 -0.12351,0.45873 -0.017,0.0705 -0.0381,0.14073 -0.0529,0.21172 -0.0264,0.12749 -0.0517,0.25968 -0.0706,0.38816 -0.009,0.0591 -0.0106,0.11719 -0.0177,0.17643 -0.003,0.0233 0.002,0.0472 0,0.0706 -0.0184,0.17074 -0.0313,0.3409 -0.0353,0.51166 -0.003,0.14711 -0.008,0.29483 0,0.44109 0.01,0.18451 0.0419,0.36522 0.0706,0.54695 0.002,0.0117 -0.002,0.0236 0,0.0353 0.006,0.0351 0.0111,0.0709 0.0177,0.10586 0.0299,0.15971 0.0601,0.32036 0.10587,0.47637 0.0559,0.19269 0.13043,0.37937 0.21172,0.56459 0.007,0.0168 0.01,0.0362 0.0177,0.0529 0.15823,0.34867 0.36078,0.67748 0.61752,0.98803 0.10408,0.15135 0.0923,0.36927 -0.10586,0.49402 -0.31182,0.2046 -0.59712,0.44304 -0.84689,0.70574 -0.12488,0.13135 -0.24366,0.26235 -0.35287,0.4058 -0.2184,0.2869 -0.39193,0.6095 -0.54694,0.9351 -0.0775,0.1628 -0.15023,0.32397 -0.21173,0.49402 -0.43044,1.19036 -0.46441,2.52914 -0.0882,3.75806 0.0538,0.17555 0.10578,0.35942 0.17643,0.5293 0.0707,0.16988 0.15934,0.33143 0.24701,0.49402 0.0877,0.16258 0.17749,0.32269 0.2823,0.47637 0.25315,0.5315 -0.0143,1.60603 -0.86453,2.20543 -2.68512,2.5529 -1.44502,6.7791 1.30561,8.61001 0.56634,0.6219 -0.0305,3.34343 0,5.04602 -0.31927,2.93536 -0.46652,6.15741 -0.45873,9.84505 0.0212,10.00715 1.00977,13.57121 5.8047,20.9075 2.16933,3.31909 4.78489,5.73539 8.4865,7.81605 0.87522,0.49196 1.65092,0.98511 1.72906,1.11154 0.0391,0.0632 -0.022,0.39926 -0.15879,0.88217 -0.0684,0.24146 -0.16392,0.50897 -0.26465,0.8116 -0.10073,0.30263 -0.20989,0.63576 -0.33523,0.97039 -0.19859,0.53024 -0.38723,1.06527 -0.56459,1.58791 -0.006,0.0173 -0.0117,0.0356 -0.0177,0.0529 -0.17045,0.50403 -0.32899,0.9998 -0.47637,1.48205 -0.0106,0.0346 -0.0248,0.0714 -0.0353,0.10586 -0.13956,0.46042 -0.27282,0.9141 -0.38816,1.3409 -0.0122,0.0451 -0.0234,0.0966 -0.0353,0.14115 -0.10816,0.40643 -0.19938,0.80176 -0.2823,1.16447 -0.0883,0.3855 -0.15457,0.73497 -0.21172,1.0586 -0.003,0.0166 -0.0148,0.0365 -0.0177,0.0529 -0.0105,0.0601 -0.026,0.1364 -0.0353,0.19407 -0.0387,0.24886 -0.073,0.49194 -0.0882,0.6881 -0.004,0.0533 -0.0154,0.12731 -0.0177,0.17643 -0.002,0.0569 -2.4e-4,0.12568 0,0.17644 1e-4,0.0471 -0.002,0.0995 0,0.14115 0.003,0.0413 0.0125,0.088 0.0177,0.1235 0.01,0.0715 0.0334,0.12923 0.0529,0.17643 0.0233,0.0559 0.0509,0.0866 0.0882,0.10586 -0.007,0.012 -0.0105,0.0231 -0.0177,0.0353 0.34501,0.14492 8.54708,1.89052 10.44493,1.28797 0.0527,0.0102 0.0975,0.001 0.1235,-0.0177 0.001,-0.006 -10e-4,-0.0119 0,-0.0177 0.0685,-0.32069 0.11894,-0.64133 0.1588,-0.97039 5.6e-4,-0.006 -5.7e-4,-0.0119 0,-0.0177 0.0394,-0.32929 0.0727,-0.66982 0.0882,-1.00568 2.7e-4,-0.006 -2.6e-4,-0.0118 0,-0.0177 0.0306,-0.67793 0.0198,-1.37064 -0.0177,-2.06428 -3.2e-4,-0.006 3.2e-4,-0.0119 0,-0.0177 -0.0763,-1.39907 -0.2558,-2.80849 -0.37051,-4.1815 -0.49165,-3.39334 -0.47368,-3.9366 0.0706,-4.11092 2.97017,-0.95132 7.43164,-4.26722 10.14499,-7.53376 2.01181,-2.42195 3.47333,-4.04278 3.31697,-4.19914 0.018,-0.0317 0.0524,-0.0642 0.0529,-0.0882 -1.54006,0.46568 -2.30786,0.62688 -4.5873,1.39384 -13.89048,4.60335 -20.20983,-3.46695 -18.5962,-20.13119 2.31523,-12.40875 7.79182,-26.01367 17.5376,-43.50876 1.45327,-2.60886 2.64651,-4.79593 2.64651,-4.8696 0,-0.0737 -0.83534,-0.75171 -1.85256,-1.51733 -3.89292,-2.93005 -5.37732,-5.83644 -6.31636,-12.29749 -1.10394,-7.0635 -5.42302,-19.93343 -13.8146,-23.14808 z m 16.09083,35.3222 c 1.7324,0 3.12289,1.40814 3.12289,3.14054 0,1.73239 -1.39049,3.14053 -3.12289,3.14053 -1.73239,0 -3.14053,-1.40814 -3.14053,-3.14053 0,-1.7324 1.40814,-3.14054 3.14053,-3.14054 z m -21.45444,1.3409 c 1.63702,0 2.9641,1.32708 2.9641,2.9641 0,1.63703 -1.32708,2.9641 -2.9641,2.9641 -1.63703,0 -2.9641,-1.32707 -2.9641,-2.9641 0,-1.63702 1.32707,-2.9641 2.9641,-2.9641 z m -1.4997,8.48651 c 1.63703,0 2.9641,1.32707 2.9641,2.9641 0,1.63703 -1.32707,2.9641 -2.9641,2.9641 -1.63703,0 -2.9641,-1.32707 -2.9641,-2.9641 0,-1.63703 1.32707,-2.9641 2.9641,-2.9641 z m -1.39383,8.4865 c 1.63703,0 2.9641,1.32708 2.9641,2.9641 0,1.63703 -1.32707,2.9641 -2.9641,2.9641 -1.63703,0 -2.9641,-1.32707 -2.9641,-2.9641 0,-1.63702 1.32707,-2.9641 2.9641,-2.9641 z m -1.30562,9.1746 c 1.63703,0 2.96411,1.32707 2.96411,2.9641 0,1.63703 -1.32708,2.9641 -2.96411,2.9641 -1.63703,0 -2.9641,-1.32707 -2.9641,-2.9641 0,-1.63703 1.32707,-2.9641 2.9641,-2.9641 z"
         id="path5460"
         inkscape:connector-curvature="0" />
      <path
         style="fill:#535353"
         d="m 97.82926,210.85825 c 0.012,0.0146 0.0239,0.0207 0.0353,0.0353 12.21044,16.70113 7.46106,37.16662 2.08193,54.92408 -5.39194,17.70558 -7.02507,25.58758 -7.03974,34.03423 -0.14139,7.76439 3.68598,18.09333 12.06812,18.1904 4.61224,-0.08 9.34902,-1.03627 14.07948,-2.85824 1.11255,-0.42851 2.77111,-1.28688 2.8406,-1.2174 0.15635,0.15636 -1.30517,1.77719 -3.31697,4.19914 -2.71336,3.26655 -7.17483,6.58244 -10.14499,7.53376 -0.54425,0.17432 -0.56222,0.71758 -0.0706,4.11093 0.22993,2.75199 0.70446,5.67713 0.14115,8.29242 -0.20761,0.15123 -1.31386,-0.69357 -2.62887,-1.53498 -1.31502,-0.8414 -2.49825,-1.5179 -2.62888,-1.51734 -0.13063,5.7e-4 -1.31263,0.39204 -2.62887,0.88218 -1.31625,0.49013 -2.49008,0.89981 -2.61124,0.89981 -0.66926,0 0.31487,-4.41592 1.95843,-8.80408 0.50134,-1.33854 0.83681,-2.53773 0.75867,-2.66416 -0.0781,-0.12644 -0.85384,-0.61958 -1.72906,-1.11154 -3.70162,-2.08067 -6.31717,-4.49696 -8.4865,-7.81605 -4.79493,-7.3363 -5.78353,-10.90035 -5.8047,-20.9075 -0.008,-3.68765 0.13946,-6.9097 0.45873,-9.84505 -0.0305,-1.7026 0.56633,-4.42412 0,-5.04603 -2.75063,-1.83091 -3.99073,-6.0571 -1.30562,-8.61 0.85026,-0.5994 1.11768,-1.67396 0.86453,-2.20546 -1.67688,-2.45882 -1.15365,-6.1616 1.3409,-7.79841 0.19821,-0.12475 0.20994,-0.34268 0.10586,-0.49402 -2.14663,-2.59662 -0.68295,-6.77407 1.55263,-8.41593 -2.68477,-3.60708 0.0482,-9.34004 4.56965,-9.13931 4.16232,-1.61786 5.11608,-7.26449 5.83999,-10.67429 1.21089,-5.89663 1.11274,-13.19951 -0.26465,-20.07825 -0.18234,-0.84314 -0.54847,-2.19558 -0.90419,-3.42476 z m -6.19285,35.19869 c -1.87089,0 -3.38755,1.51666 -3.38755,3.38755 0,1.87089 1.51666,3.38754 3.38755,3.38754 1.87089,0 3.38754,-1.51665 3.38754,-3.38754 0,-1.87089 -1.51665,-3.38755 -3.38754,-3.38755 z m -1.53498,8.48651 c -1.87089,0 -3.38755,1.51665 -3.38755,3.38754 0,1.87089 1.51666,3.38754 3.38755,3.38754 1.87089,0 3.38754,-1.51665 3.38754,-3.38754 0,-1.87089 -1.51665,-3.38754 -3.38754,-3.38754 z m -1.37619,8.52179 c -1.87089,0 -3.38755,1.51665 -3.38755,3.38754 0,1.87089 1.51666,3.38754 3.38755,3.38754 1.87089,0 3.38754,-1.51665 3.38754,-3.38754 0,-1.87089 -1.51665,-3.38754 -3.38754,-3.38754 z m -1.32326,9.15695 c -1.87089,0 -3.38755,1.51666 -3.38755,3.38754 0,1.87089 1.51666,3.38755 3.38755,3.38755 1.87089,0 3.38754,-1.51666 3.38754,-3.38755 0,-1.87088 -1.51665,-3.38754 -3.38754,-3.38754 z"
         id="path5462"
         inkscape:connector-curvature="0"
         sodipodi:nodetypes="sccccssssccscssssssscccccccccccsssssssssssssssssssss" />
      <path
         inkscape:connector-curvature="0"
         id="path5464"
         style="font-style:normal;font-variant:normal;font-weight:bold;font-stretch:normal;font-size:144.08859253px;line-height:125%;font-family:kabayan;-inkscape-font-specification:'kabayan Bold';letter-spacing:0px;word-spacing:0px;fill:#dc3535;fill-opacity:1;stroke:none"
         d="m 54.379517,328.2026 c -8.677464,-1.73549 -15.483831,-7.07754 -20.419115,-16.02616 -1.355859,-3.09132 -2.250718,-6.34536 -2.684589,-9.76213 -0.379636,-3.41672 -0.244056,-6.88769 0.406759,-10.41293 0.705039,-3.52518 1.952417,-6.69787 3.742147,-9.51808 2.548991,-4.50138 5.748797,-7.891 9.59943,-10.16888 3.850593,-2.33201 8.704536,-4.14885 14.561837,-5.45053 1.735461,-0.37958 3.118426,-0.54228 4.148906,-0.4881 1.030411,0.0543 1.979505,0.35258 2.847287,0.89486 0.921942,0.59663 1.545634,1.22032 1.871076,1.87107 0.325362,0.65087 0.271133,1.13897 -0.162704,1.46432 -0.271207,0.21699 -0.569497,0.46104 -0.894859,0.73216 -0.813547,0.37969 -2.1694,1.00338 -4.067554,1.87108 -1.843993,0.86779 -3.254075,1.57283 -4.230258,2.11513 -0.976239,0.48815 -2.196506,1.13896 -3.660794,1.95242 -1.464345,0.81356 -2.765964,1.6813 -3.904856,2.60324 -1.138937,0.92202 -2.223612,1.92535 -3.254041,3.00999 -2.494785,2.71174 -4.17604,6.20983 -5.043765,10.49429 -0.813524,4.23028 -0.94911,8.40629 -0.406759,12.52806 0.325391,2.33208 1.138904,4.60991 2.440534,6.83349 1.355836,2.22361 3.037085,3.76927 5.043764,4.63701 1.843937,0.92198 3.715013,1.46432 5.613228,1.62702 1.952394,0.10848 3.687884,-0.13558 5.206469,-0.73216 1.572752,-0.59656 3.009951,-1.43719 4.311604,-2.52188 1.301579,-1.08467 2.27779,-2.35917 2.928639,-3.8235 0.705004,-1.46431 1.138875,-3.00998 1.301618,-4.63702 0.162659,-1.68123 -0.135625,-3.41672 -0.894864,-5.20646 -1.247418,-1.51853 -3.443896,-2.71168 -6.589434,-3.57945 -3.145605,-0.92195 -5.3692,-0.92195 -6.670791,0 -0.650832,0.37966 -1.003351,1.30164 -1.057563,2.76594 -0.05426,1.2474 0.379614,2.11515 1.301619,2.60323 0.976183,0.48813 2.033746,0.62371 3.172689,0.40676 1.193121,-0.21692 2.196449,-0.62368 3.009991,-1.22027 0.813479,-0.48809 1.599869,-0.3525 2.359181,0.40676 0.813474,0.70506 1.220233,1.49145 1.220267,2.35918 -0.05426,1.2474 -0.623726,2.30496 -1.708372,3.17269 -1.03048,0.81353 -2.304981,1.38298 -3.823499,1.70837 -3.687945,0.59659 -6.779282,-0.8135 -9.274022,-4.23025 -2.169383,-3.03709 -2.982891,-6.15554 -2.440534,-9.35538 0.488089,-3.09131 2.223573,-4.9895 5.206469,-5.69457 8.894352,-0.27114 15.944768,2.27786 21.151277,7.647 2.169315,2.11515 3.498051,4.77262 3.986201,7.9724 0.488064,3.14559 0.0542,6.01999 -1.301612,8.62322 -2.386344,3.95909 -5.721737,7.24025 -10.006184,9.84348 -4.230292,2.65746 -8.541895,3.55232 -12.934823,2.68458" />
      <path
         style="font-style:normal;font-variant:normal;font-weight:bold;font-stretch:normal;font-size:144.08859253px;line-height:125%;font-family:kabayan;-inkscape-font-specification:'kabayan Bold';letter-spacing:0px;word-spacing:0px;fill:#dc3535;fill-opacity:1;stroke:none"
         d="m 132.29286,257.68398 c -2.51019,0 -4.53437,2.31424 -4.53437,5.15189 0,2.83766 2.02418,5.13425 4.53437,5.13425 2.51019,0 4.55201,-2.29659 4.55201,-5.13425 0,-2.83765 -2.04182,-5.15189 -4.55201,-5.15189 z m -2.20543,13.58546 c -0.70589,0.0578 -1.319,0.45268 -1.81728,1.16447 -1.03045,1.41014 -1.80424,5.23139 -2.34658,11.46825 -0.21693,2.60328 -0.41953,4.43776 -0.58223,5.5224 -0.0543,2.3321 -0.20521,5.32923 -0.47637,8.96288 -0.0543,1.13894 -0.0379,2.53555 0.0706,4.21678 0.10846,1.68128 0.32741,3.61772 0.65281,5.78706 0.3254,2.16938 0.76327,4.17247 1.30561,6.01642 0.59657,1.84396 1.35403,3.52748 2.27601,5.04603 0.97621,1.51855 2.12121,2.46096 3.42283,2.84059 1.35584,0.37965 2.92107,0.16071 4.7108,-0.6528 0.37963,-0.4881 0.56458,-0.85801 0.56459,-1.12919 -1.08469,-10.52138 -1.75784,-20.40354 -2.02899,-29.62336 -0.0543,-2.00662 -0.0543,-3.35291 0,-4.058 0.0542,-0.705 0.10453,-1.17685 0.15879,-1.39383 0.0542,-0.2169 0.0379,-0.63712 -0.0706,-1.28797 -0.0542,-0.705 -0.22285,-2.03496 -0.49401,-3.98742 -0.21695,-0.75923 -0.4019,-1.63497 -0.56459,-2.61124 -0.16271,-0.97616 -0.36531,-1.74995 -0.58224,-2.34658 -0.16271,-0.65075 -0.48229,-1.49251 -0.97039,-2.52301 -1.25078,-1.00669 -2.32118,-1.48583 -3.22875,-1.41148 z"
         id="path5466"
         inkscape:connector-curvature="0" />
      <path
         inkscape:connector-curvature="0"
         id="path5468"
         style="font-style:normal;font-variant:normal;font-weight:bold;font-stretch:normal;font-size:144.08859253px;line-height:125%;font-family:kabayan;-inkscape-font-specification:'kabayan Bold';letter-spacing:0px;word-spacing:0px;fill:#dc3535;fill-opacity:1;stroke:none"
         d="m 148.68829,265.80633 c 0.92197,6e-5 2.35917,-0.0541 4.31161,-0.1627 1.95241,-0.10841 3.44385,-0.16265 4.47431,-0.1627 5.09798,5e-5 9.21976,1.13897 12.36536,3.41674 4.39293,3.14563 6.5894,6.94201 6.58944,11.38915 -4e-5,3.68796 -1.59994,7.07758 -4.79971,10.16889 0.16267,0.1085 0.56942,0.2712 1.22026,0.4881 0.65078,0.21697 1.11177,0.37967 1.38297,0.48811 0.32537,0.1085 0.78636,0.35255 1.38297,0.73216 0.65077,0.37967 1.19311,0.78642 1.62702,1.22027 0.43384,0.4339 0.92194,1.03047 1.46432,1.78972 0.59653,0.7593 1.13887,1.62704 1.62702,2.60323 0.48807,1.62705 0.73212,3.22695 0.73216,4.79972 -4e-5,2.44055 -0.59662,4.77261 -1.78973,6.99619 -1.13894,2.16937 -2.63038,4.04044 -4.4743,5.61322 -1.84399,1.57279 -3.90489,2.98288 -6.18268,4.23026 -2.27786,1.19315 -4.50146,2.14224 -6.67079,2.84729 -2.16938,0.65081 -4.23027,1.08468 -6.18268,1.30161 -0.70506,0.10847 -1.38299,0.1627 -2.03378,0.1627 -2.11514,0 -3.95909,-0.62369 -5.53187,-1.87107 -1.51856,-1.24738 -2.73883,-2.98287 -3.6608,-5.20647 -0.86775,-2.27782 -1.51856,-4.7997 -1.95243,-7.56565 -0.37964,-2.76592 -0.56945,-5.80302 -0.56945,-9.11132 0,-6.39958 0.6508,-12.88055 1.95242,-19.4429 1.35585,-6.56227 2.92863,-11.47045 4.71836,-14.72455 m 20.25642,41.65175 c 2.71167,-2.87438 4.06752,-5.42339 4.06755,-7.647 -3e-5,-1.19312 -0.56948,-2.22357 -1.70837,-3.09134 -1.08471,-0.92195 -2.25074,-1.38294 -3.4981,-1.38297 -0.27119,3e-5 -0.51525,0.0272 -0.73215,0.0814 -4.66415,2.87443 -8.37918,5.99289 -11.1451,9.35538 -0.10849,1.03046 -0.16272,1.97955 -0.1627,2.84728 -2e-5,1.68127 0.27115,3.7964 0.81351,6.34539 0.27115,0.32541 0.67791,0.48811 1.22027,0.4881 1.24736,1e-5 3.0642,-0.8135 5.45051,-2.44053 2.44051,-1.68124 4.3387,-3.1998 5.69458,-4.55566 m -10.73834,-17.65318 c 0.43385,-0.43384 1.35583,-1.27447 2.76594,-2.52189 1.41006,-1.30158 2.44051,-2.27779 3.09134,-2.92864 0.65078,-0.705 1.38294,-1.65409 2.19648,-2.84728 0.86772,-1.24734 1.51852,-2.49473 1.95242,-3.74215 0.0542,-1.35581 -0.56948,-2.57607 -1.87107,-3.6608 -1.24741,-1.13886 -2.60326,-1.95238 -4.06756,-2.44053 -1.4101,-0.54229 -2.57613,-0.81346 -3.49809,-0.81351 l -0.0814,0 c -0.65083,0.70509 -1.27452,2.6304 -1.87108,5.77593 -0.54236,3.14561 -0.81352,6.07425 -0.81351,8.78591 -1e-5,3.25408 0.43386,4.8811 1.30162,4.88106 0.27115,4e-5 0.56944,-0.16267 0.89486,-0.4881" />
      <g
         transform="matrix(1.0820555,0,0,1.0820555,-31.329304,-4.2871817)"
         id="text7240"
         style="font-style:normal;font-variant:normal;font-weight:normal;font-stretch:normal;font-size:12.5px;line-height:100%;font-family:'Aurulent Sans';-inkscape-font-specification:'Aurulent Sans';text-align:start;writing-mode:lr-tb;text-anchor:start;opacity:1;fill:#000000;fill-opacity:1;stroke:none;stroke-width:3;stroke-linecap:round;stroke-linejoin:round;stroke-miterlimit:4;stroke-dasharray:none;stroke-dashoffset:0;stroke-opacity:1">
        <path
           id="path7403"
           style="font-size:11.25px;line-height:100%;letter-spacing:2.65999937px"
           d="m 65.398412,331.26957 c 0,2.66625 1.5525,4.275 3.915,4.275 0.88875,0 1.7775,-0.23625 2.64375,-0.52875 l 0,-3.555 -2.17125,0 0,0.84375 1.04625,0 0,2.14875 c -0.50625,0.14625 -1.02375,0.2475 -1.5075,0.2475 -0.70875,0 -1.36125,-0.21375 -1.845,-0.68625 -0.70875,-0.6975 -0.84375,-1.74375 -0.84375,-2.745 0,-1.0125 0.135,-2.05875 0.84375,-2.75625 0.48375,-0.4725 1.13625,-0.68625 1.87875,-0.68625 0.84375,0 1.7325,0.28125 2.59875,0.585 l 0,-0.93375 c -0.855,-0.30375 -1.755,-0.495 -2.59875,-0.495 -2.39625,0 -3.96,1.58625 -3.96,4.2975 l 0,-0.0113 z"
           inkscape:connector-curvature="0" />
        <path
           id="path7405"
           style="font-size:11.25px;line-height:100%;letter-spacing:2.65999937px"
           d="m 76.881224,335.34207 0,-6.64875 4.12875,6.64875 1.125,0 0,-8.15625 -0.93375,0 0,6.66 -4.12875,-6.66 -1.125,0 0,8.15625 0.93375,0 z"
           inkscape:connector-curvature="0" />
        <path
           id="path7407"
           style="font-size:11.25px;line-height:100%;letter-spacing:2.65999937px"
           d="m 92.793021,332.22582 0,-5.04 -1.125,0 0,5.2425 c 0,0.6525 0,1.31625 -0.50625,1.78875 -0.3825,0.3375 -0.9225,0.48375 -1.4625,0.48375 -0.54,0 -1.08,-0.14625 -1.45125,-0.48375 -0.5175,-0.4725 -0.5175,-1.13625 -0.5175,-1.78875 l 0,-5.2425 -1.125,0 0,5.04 c 0,0.9675 0,1.935 0.79875,2.62125 0.59625,0.50625 1.45125,0.6975 2.295,0.6975 0.84375,0 1.69875,-0.19125 2.295,-0.70875 0.79875,-0.675 0.79875,-1.6425 0.79875,-2.61 z"
           inkscape:connector-curvature="0" />
        <path
           id="path7409"
           style="font-size:11.25px;line-height:100%;letter-spacing:2.65999937px"
           d="m 99.502315,326.80332 -0.91125,0 -2.23875,9.99 0.91125,0 2.23875,-9.99 z"
           inkscape:connector-curvature="0" />
        <path
           id="path7411"
           style="font-size:11.25px;line-height:100%;letter-spacing:2.65999937px"
           d="m 108.19618,335.34207 0,-0.84375 -4.0275,0 0,-7.3125 -1.125,0 0,8.15625 5.1525,0 z"
           inkscape:connector-curvature="0" />
        <path
           id="path7413"
           style="font-size:11.25px;line-height:100%;letter-spacing:2.65999937px"
           d="m 112.8905,328.25457 0,-1.06875 -1.06875,0 0,1.06875 1.06875,0 z m 0,7.0875 0,-5.9625 -1.06875,0 0,5.9625 1.06875,0 z"
           inkscape:connector-curvature="0" />
        <path
           id="path7415"
           style="font-size:11.25px;line-height:100%;letter-spacing:2.65999937px"
           d="m 120.83958,331.43832 0,3.90375 1.06875,0 0,-3.70125 c 0,-1.02375 0.0112,-2.39625 -1.49625,-2.39625 -0.855,0 -1.575,0.43875 -2.115,1.09125 l 0,-0.95625 -1.06875,0 0,5.9625 1.06875,0 0,-4.0725 c 0.3825,-0.68625 0.9675,-1.215 1.71,-1.215 0.79875,0 0.8325,0.6075 0.8325,1.38375 z"
           inkscape:connector-curvature="0" />
        <path
           id="path7417"
           style="font-size:11.25px;line-height:100%;letter-spacing:2.65999937px"
           d="m 127.30718,333.26082 0,-3.88125 -1.06875,0 0,3.67875 c 0,0.945 -0.0337,2.41875 1.53,2.41875 0.82125,0 1.53,-0.4275 2.08125,-1.08 l 0,0.945 1.06875,0 0,-5.9625 -1.06875,0 0,4.08375 c -0.39375,0.68625 -0.97875,1.215 -1.69875,1.215 -0.84375,0 -0.84375,-0.70875 -0.84375,-1.40625 l 0,-0.0112 z"
           inkscape:connector-curvature="0" />
        <path
           id="path7419"
           style="font-size:11.25px;line-height:100%;letter-spacing:2.65999937px"
           d="m 139.84978,335.34207 -2.08125,-2.925 2.115,-3.0375 -1.04625,0 -1.5975,2.295 -1.60875,-2.295 -1.06875,0 2.025,2.86875 -2.14875,3.09375 1.04625,0 1.63125,-2.34 1.665,2.34 1.06875,0 z"
           inkscape:connector-curvature="0" />
        <path
           id="path7421"
           style="font-size:11.25px;line-height:100%;letter-spacing:2.65999937px"
           d="m 152.4501,331.05582 c 1.305,-0.28125 1.8225,-1.09125 1.8225,-1.83375 0,-0.50625 -0.21375,-1.08 -0.7425,-1.49625 -0.6975,-0.54 -1.63125,-0.54 -2.565,-0.54 l -1.96875,0 0,8.15625 2.025,0 c 1.02375,0 2.0475,0 2.80125,-0.5625 0.4725,-0.36 0.73125,-0.88875 0.73125,-1.5075 0,-0.8775 -0.59625,-1.87875 -2.10375,-2.21625 z m -2.34,0.41625 0.675,0 c 0.73125,0 1.4625,0.0113 2.0475,0.5175 0.36,0.32625 0.585,0.75375 0.585,1.2375 0,0.405 -0.14625,0.72 -0.43875,0.93375 -0.43875,0.3375 -1.0575,0.3375 -1.665,0.3375 l -1.20375,0 0,-3.02625 z m 0,-0.84375 0,-2.59875 1.125,0 c 0.54,0 1.08,0 1.47375,0.315 0.30375,0.2475 0.4275,0.585 0.4275,0.88875 0,0.39375 -0.19125,0.7425 -0.495,0.97875 -0.50625,0.41625 -1.13625,0.41625 -1.7775,0.41625 l -0.75375,0 z"
           inkscape:connector-curvature="0" />
        <path
           id="path7423"
           style="font-size:11.25px;line-height:100%;letter-spacing:2.65999937px"
           d="m 162.35774,332.36082 c 0,0.675 -0.045,1.395 -0.5175,1.89 -0.25875,0.28125 -0.64125,0.4275 -1.02375,0.4275 -0.3825,0 -0.765,-0.14625 -1.02375,-0.4275 -0.4725,-0.495 -0.5175,-1.215 -0.5175,-1.89 0,-0.675 0.045,-1.395 0.5175,-1.89 0.25875,-0.28125 0.64125,-0.4275 1.02375,-0.4275 0.3825,0 0.765,0.14625 1.02375,0.4275 0.4725,0.495 0.5175,1.215 0.5175,1.89 z m -1.54125,-3.11625 c -1.65375,0 -2.7225,1.2375 -2.7225,3.11625 0,1.90125 1.08,3.11625 2.7225,3.11625 1.6425,0 2.7225,-1.22625 2.7225,-3.11625 0,-1.89 -1.09125,-3.11625 -2.7225,-3.11625 z"
           inkscape:connector-curvature="0" />
        <path
           id="path7425"
           style="font-size:11.25px;line-height:100%;letter-spacing:2.65999937px"
           d="m 169.45692,332.74332 c -1.0125,0 -1.2375,-0.57375 -1.2375,-1.35 0,-0.61875 0.135,-1.35 1.2375,-1.35 0.99,0 1.24875,0.585 1.24875,1.35 0,0.75375 -0.2025,1.35 -1.24875,1.35 z m -2.41875,-1.35 c 0,0.6975 0.3375,1.40625 1.00125,1.81125 -0.25875,0.225 -0.4275,0.55125 -0.4275,0.9 0,0.93375 1.02375,1.15875 1.665,1.2825 l 1.0575,0.2025 c 0.18,0.0337 0.855,0.1125 0.855,0.57375 0,0.4725 -0.6525,0.5625 -1.35,0.5625 -0.855,0 -1.81125,-0.12375 -2.745,-0.3825 l 0,0.93375 c 0.81,0.21375 1.665,0.25875 2.1825,0.25875 1.47375,0 2.97,-0.2925 2.97,-1.45125 0,-1.00125 -0.9675,-1.22625 -1.62,-1.35 l -1.04625,-0.2025 c -0.63,-0.135 -1.1025,-0.23625 -1.1025,-0.6525 0,-0.1575 0.0675,-0.30375 0.19125,-0.41625 0.25875,0.0675 0.5175,0.10125 0.7875,0.10125 1.71,0 2.41875,-1.15875 2.41875,-2.16 0,-0.585 -0.23625,-1.13625 -0.6525,-1.54125 0.27,-0.14625 0.59625,-0.2025 0.9225,-0.2025 l 0,-0.81 c -0.5625,0 -1.04625,0.25875 -1.4175,0.66375 -0.39375,-0.19125 -0.8325,-0.25875 -1.2825,-0.25875 -1.8225,0 -2.41875,1.27125 -2.41875,2.14875 l 0.0113,-0.0112 z"
           inkscape:connector-curvature="0" />
        <path
           id="path7427"
           style="font-size:11.25px;line-height:100%;letter-spacing:2.65999937px"
           d="m 179.7627,332.36082 c 0,0.675 -0.045,1.395 -0.5175,1.89 -0.25875,0.28125 -0.64125,0.4275 -1.02375,0.4275 -0.3825,0 -0.765,-0.14625 -1.02375,-0.4275 -0.4725,-0.495 -0.5175,-1.215 -0.5175,-1.89 0,-0.675 0.045,-1.395 0.5175,-1.89 0.25875,-0.28125 0.64125,-0.4275 1.02375,-0.4275 0.3825,0 0.765,0.14625 1.02375,0.4275 0.4725,0.495 0.5175,1.215 0.5175,1.89 z m -1.54125,-3.11625 c -1.65375,0 -2.7225,1.2375 -2.7225,3.11625 0,1.90125 1.08,3.11625 2.7225,3.11625 1.6425,0 2.7225,-1.22625 2.7225,-3.11625 0,-1.89 -1.09125,-3.11625 -2.7225,-3.11625 z"
           inkscape:connector-curvature="0" />
        <path
           id="path7429"
           style="font-size:11.25px;line-height:100%;letter-spacing:2.65999937px"
           d="m 188.50438,330.27957 0,-0.99 c -0.21375,-0.045 -0.4275,-0.045 -0.52875,-0.045 -0.93375,0 -1.63125,0.52875 -2.03625,1.27125 l 0,-1.13625 -1.06875,0 0,5.9625 1.06875,0 0,-3.67875 c 0.27,-0.84375 1.0125,-1.4625 1.935,-1.4625 0.2025,0 0.41625,0.0337 0.63,0.0787 z"
           inkscape:connector-curvature="0" />
      </g>
    </g>
    <g
       id="g4308"
       transform="matrix(1.1400003,0,0,1.1400003,-262.84273,-240.21741)"
       style="fill:#000000">
      <path
         inkscape:connector-curvature="0"
         id="path4226"
         d="m 371.75071,243.62297 c 0.3932,1.44031 0.77843,2.99459 1.06753,4.59184 0.0105,0.0582 0.019,0.11723 0.0293,0.17548 0.0144,0.0924 0.0299,0.18535 0.0438,0.27785 0.21424,1.42189 0.35415,2.85191 0.43871,4.27012 0.002,0.0533 0.0133,0.10765 0.0147,0.16085 0.002,0.0143 -0.002,0.0296 0,0.0438 0.007,0.12233 0.009,0.2435 0.0147,0.3656 0.0127,0.26786 0.0358,0.53776 0.0438,0.8043 0.003,0.10259 -0.002,0.20473 0,0.3071 0.009,0.38261 0.0156,0.76174 0.0147,1.14064 -8.3e-4,0.43234 -0.0158,0.86069 -0.0293,1.28689 -0.002,0.0482 0.002,0.0981 0,0.14623 -0.0133,0.37661 -0.0353,0.75538 -0.0585,1.12603 -0.0236,0.37691 -0.0392,0.75629 -0.0731,1.12601 -0.0104,0.11313 -0.0325,0.22397 -0.0438,0.33635 -0.0153,0.15149 -0.0268,0.30324 -0.0438,0.45334 -0.0205,0.18049 -0.0502,0.36271 -0.0731,0.54107 -0.0188,0.14574 -0.038,0.29447 -0.0585,0.43871 -0.0354,0.24917 -0.0765,0.50139 -0.11699,0.74581 -0.0113,0.068 -0.0176,0.13716 -0.0293,0.20473 -0.0546,0.31672 -0.11228,0.62812 -0.17548,0.93592 -0.60001,2.82619 -1.39053,7.50636 -4.84043,8.8473 -0.11469,-0.005 -0.22453,-0.004 -0.33635,0 -0.005,1.7e-4 -0.01,-1.6e-4 -0.0147,0 -0.10688,0.004 -0.21763,0.0172 -0.32172,0.0293 -0.005,4.7e-4 -0.01,-4.6e-4 -0.0147,0 -0.1038,0.0123 -0.20624,0.024 -0.3071,0.0438 -0.005,8.3e-4 -0.01,-8.3e-4 -0.0147,0 -0.10067,0.0202 -0.19489,0.0457 -0.29247,0.0731 -0.01,0.002 -0.0192,0.0118 -0.0292,0.0147 -0.0917,0.0265 -0.18908,0.0552 -0.27786,0.0877 -0.01,0.004 -0.0192,0.0109 -0.0292,0.0147 -0.0881,0.0331 -0.17814,0.0636 -0.26324,0.10236 -0.10686,0.0489 -0.20519,0.10343 -0.30709,0.16087 -0.079,0.0443 -0.1581,0.0825 -0.23398,0.13161 -0.0146,0.009 -0.0295,0.0196 -0.0438,0.0293 -0.15799,0.10506 -0.30991,0.22667 -0.45333,0.35096 -0.0155,0.0134 -0.0285,0.0302 -0.0439,0.0438 -0.13928,0.12406 -0.27074,0.25471 -0.39483,0.39484 -0.13843,0.15615 -0.26199,0.32401 -0.38022,0.4972 -0.10981,0.16087 -0.21585,0.32421 -0.30709,0.49721 -0.005,0.01 -0.01,0.0194 -0.0147,0.0293 -0.0761,0.1464 -0.14268,0.30001 -0.20474,0.45333 -0.0177,0.0439 -0.042,0.0873 -0.0585,0.13161 -0.005,0.0143 -0.009,0.0295 -0.0147,0.0438 -0.0459,0.12621 -0.0809,0.25072 -0.11699,0.38022 -0.0163,0.0588 -0.0296,0.11615 -0.0439,0.17548 -0.0107,0.0444 -0.0197,0.0869 -0.0293,0.13161 -0.0123,0.0574 -0.019,0.11771 -0.0293,0.17548 -0.0232,0.13031 -0.0455,0.26305 -0.0585,0.39485 -0.013,0.13189 -0.0269,0.26221 -0.0293,0.39483 -8.3e-4,0.054 -8.3e-4,0.10691 0,0.16087 2.2e-4,0.0147 -3.6e-4,0.0292 0,0.0438 0.002,0.12269 0.0168,0.24324 0.0293,0.36559 0.01,0.0979 0.013,0.19518 0.0293,0.29247 0.0307,0.18518 0.0776,0.37417 0.13161,0.5557 0.0184,0.0618 0.0374,0.12888 0.0585,0.19011 0.0136,0.0393 0.0291,0.078 0.0439,0.11699 0.002,0.004 -0.002,0.0104 0,0.0147 0.037,0.0968 0.0875,0.183 0.13161,0.27785 0.0301,0.0647 0.0542,0.12643 0.0877,0.19011 0.0185,0.0351 0.039,0.0676 0.0585,0.10236 0.0361,0.0645 0.0772,0.12686 0.11699,0.19011 0.0206,0.0327 0.037,0.07 0.0585,0.10237 -0.0279,0.13003 -0.0674,0.25373 -0.10237,0.38021 -0.0346,0.0297 -0.0683,0.0566 -0.10236,0.0877 -0.072,0.0656 -0.1355,0.13302 -0.20474,0.20474 -0.0385,0.0399 -0.0794,0.0753 -0.11699,0.11699 -0.0632,0.0698 -0.1298,0.1449 -0.1901,0.21935 -0.0388,0.0479 -0.0795,0.0965 -0.11699,0.14623 -0.0535,0.0709 -0.0954,0.14498 -0.14624,0.21936 -0.0404,0.0591 -0.0785,0.11442 -0.11699,0.17549 -0.0455,0.072 -0.0888,0.14479 -0.13161,0.21935 -0.0391,0.0682 -0.0803,0.13455 -0.11699,0.20473 -0.0371,0.0709 -0.0678,0.1467 -0.10237,0.21936 -0.0679,0.14316 -0.13298,0.28963 -0.1901,0.4387 -0.0338,0.0883 -0.0726,0.17329 -0.10238,0.26324 -0.0112,0.0336 -0.0186,0.0685 -0.0292,0.10236 -0.0393,0.12606 -0.0716,0.25183 -0.10237,0.38021 -0.0141,0.0584 -0.0316,0.11665 -0.0439,0.17549 -0.0219,0.10567 -0.0428,0.21523 -0.0585,0.32172 -0.007,0.049 -0.009,0.0971 -0.0147,0.14623 -0.002,0.0193 0.002,0.0391 0,0.0585 -0.0152,0.14152 -0.0259,0.28255 -0.0292,0.42409 -0.002,0.12193 -0.007,0.24436 0,0.36559 0.008,0.15293 0.0347,0.30271 0.0585,0.45334 0.002,0.01 -0.002,0.0196 0,0.0292 0.005,0.0291 0.009,0.0588 0.0147,0.0878 0.0248,0.13237 0.0498,0.26552 0.0877,0.39483 0.0463,0.15971 0.10811,0.31444 0.17548,0.46796 0.006,0.0139 0.008,0.03 0.0147,0.0438 0.13114,0.289 0.29903,0.56153 0.51182,0.81893 0.0863,0.12544 0.0765,0.30606 -0.0877,0.40946 -0.25845,0.16958 -0.49492,0.36721 -0.70194,0.58495 -0.1035,0.10887 -0.20195,0.21745 -0.29247,0.33635 -0.18102,0.23779 -0.32485,0.50518 -0.45333,0.77505 -0.0642,0.13493 -0.12452,0.26852 -0.17549,0.40946 -0.35677,0.98662 -0.38492,2.09626 -0.0731,3.11485 0.0446,0.1455 0.0877,0.2979 0.14623,0.4387 0.0586,0.14081 0.13207,0.27471 0.20473,0.40947 0.0727,0.13475 0.14711,0.26746 0.23398,0.39483 0.20982,0.44053 -0.0119,1.33115 -0.71656,1.82796 -2.22554,2.11596 -1.19769,5.61881 1.08215,7.13635 0.46941,0.51546 -0.0253,2.77118 0,4.18236 -0.26463,2.43296 -0.38667,5.10353 -0.38022,8.16001 0.0176,8.29436 0.83695,11.24841 4.81119,17.32904 1.79804,2.75101 3.96593,4.75375 7.03398,6.47829 0.72542,0.40775 1.36836,0.8165 1.43312,0.92129 0.0324,0.0524 -0.0182,0.33092 -0.13161,0.73118 -0.0567,0.20013 -0.13586,0.42186 -0.21935,0.67269 -0.0835,0.25083 -0.17397,0.52695 -0.27786,0.8043 -0.1646,0.43949 -0.32095,0.88294 -0.46795,1.31613 -0.005,0.0143 -0.01,0.0295 -0.0147,0.0439 -0.14128,0.41776 -0.27268,0.82867 -0.39484,1.22838 -0.009,0.0287 -0.0206,0.0592 -0.0293,0.0878 -0.11567,0.38161 -0.22612,0.75764 -0.32172,1.11139 -0.0101,0.0374 -0.0194,0.0801 -0.0293,0.11699 -0.0897,0.33687 -0.16525,0.66454 -0.23398,0.96517 -0.0732,0.31952 -0.12812,0.60917 -0.17548,0.87741 -0.002,0.0138 -0.0123,0.0302 -0.0147,0.0438 -0.009,0.0498 -0.0215,0.11305 -0.0292,0.16085 -0.0321,0.20627 -0.0605,0.40774 -0.0731,0.57033 -0.003,0.0442 -0.0128,0.10552 -0.0147,0.14623 -0.002,0.0472 -2e-4,0.10417 0,0.14624 8e-5,0.039 -0.002,0.0825 0,0.11699 0.002,0.0342 0.0104,0.0729 0.0147,0.10236 0.008,0.0593 0.0277,0.10712 0.0438,0.14624 0.0193,0.0463 0.0422,0.0718 0.0731,0.0877 -0.006,0.01 -0.009,0.0191 -0.0147,0.0293 0.28596,0.12011 7.08419,1.56694 8.65721,1.06752 0.0437,0.008 0.0808,8.3e-4 0.10237,-0.0147 8.3e-4,-0.005 -8.3e-4,-0.01 0,-0.0147 0.0568,-0.2658 0.0986,-0.53156 0.13162,-0.8043 4.6e-4,-0.005 -4.8e-4,-0.01 0,-0.0147 0.0326,-0.27293 0.0602,-0.55518 0.0731,-0.83355 2.2e-4,-0.005 -2.1e-4,-0.01 0,-0.0147 0.0254,-0.5619 0.0164,-1.13605 -0.0147,-1.71097 -2.6e-4,-0.005 2.7e-4,-0.01 0,-0.0147 -0.0632,-1.15961 -0.21202,-2.3278 -0.30709,-3.46581 -0.40751,-2.81255 -0.39261,-3.26282 0.0585,-3.40731 2.46181,-0.78849 6.15967,-3.53685 8.40861,-6.24431 1.66748,-2.00741 2.87885,-3.35083 2.74925,-3.48043 0.0149,-0.0263 0.0434,-0.0532 0.0439,-0.0731 -1.27647,0.38598 -1.91286,0.51959 -3.80216,1.15528 -11.51303,3.81545 -16.75078,-2.87356 -15.41334,-16.68561 1.91897,-10.28491 6.4582,-21.56126 14.53593,-36.06195 1.20453,-2.16234 2.19354,-3.97508 2.19354,-4.03614 0,-0.0611 -0.69236,-0.62305 -1.53548,-1.25763 -3.22662,-2.42855 -4.45696,-4.8375 -5.23528,-10.1927 -0.91499,-5.85453 -4.49483,-16.52169 -11.45014,-19.18613 z m 13.33678,29.27658 c 1.43589,0 2.58839,1.16713 2.58839,2.60302 0,1.43588 -1.1525,2.60301 -2.58839,2.60301 -1.43588,0 -2.603,-1.16713 -2.603,-2.60301 0,-1.43589 1.16712,-2.60302 2.603,-2.60302 z m -17.78237,1.1114 c 1.35683,0 2.45678,1.09994 2.45678,2.45677 0,1.35684 -1.09995,2.45678 -2.45678,2.45678 -1.35684,0 -2.45677,-1.09994 -2.45677,-2.45678 0,-1.35683 1.09993,-2.45677 2.45677,-2.45677 z m -1.24302,7.03399 c 1.35685,0 2.45678,1.09993 2.45678,2.45677 0,1.35684 -1.09993,2.45678 -2.45678,2.45678 -1.35684,0 -2.45677,-1.09994 -2.45677,-2.45678 0,-1.35684 1.09993,-2.45677 2.45677,-2.45677 z m -1.15526,7.03398 c 1.35684,0 2.45677,1.09994 2.45677,2.45677 0,1.35684 -1.09993,2.45678 -2.45677,2.45678 -1.35684,0 -2.45678,-1.09994 -2.45678,-2.45678 0,-1.35683 1.09994,-2.45677 2.45678,-2.45677 z m -1.08216,7.6043 c 1.35684,0 2.45679,1.09994 2.45679,2.45678 0,1.35684 -1.09995,2.45678 -2.45679,2.45678 -1.35684,0 -2.45677,-1.09994 -2.45677,-2.45678 0,-1.35684 1.09993,-2.45678 2.45677,-2.45678 z"
         style="fill:#000000;fill-opacity:1" />
      <path
         sodipodi:nodetypes="sccccssssccscssssssscccccccccccsssssssssssssssssssss"
         inkscape:connector-curvature="0"
         id="path4228"
         d="m 372.46236,244.5004 c 0.01,0.0121 0.0198,0.0172 0.0293,0.0292 10.12054,13.84263 6.18405,30.80532 1.72559,45.52347 -4.46907,14.67516 -5.82268,21.2081 -5.83484,28.20905 -0.11719,6.43547 3.0551,14.99654 10.00258,15.077 3.82283,-0.0663 7.74888,-0.85891 11.66969,-2.36903 0.92213,-0.35517 2.29681,-1.06663 2.35441,-1.00904 0.12959,0.1296 -1.08178,1.47301 -2.74925,3.48043 -2.24895,2.70746 -5.94681,5.45581 -8.40861,6.24431 -0.4511,0.14448 -0.46599,0.59476 -0.0585,3.40732 0.19057,2.28097 0.58388,4.70545 0.11699,6.87312 -0.17208,0.12534 -1.08899,-0.57486 -2.17892,-1.27226 -1.08995,-0.69739 -2.07066,-1.2581 -2.17893,-1.25764 -0.10828,4.7e-4 -1.08797,0.32494 -2.17893,0.73119 -1.09096,0.40624 -2.06388,0.7458 -2.16431,0.7458 -0.55471,0 0.26098,-3.66011 1.62324,-7.2972 0.41553,-1.10944 0.69358,-2.10338 0.62881,-2.20818 -0.0647,-0.10479 -0.7077,-0.51353 -1.43312,-0.92129 -3.06806,-1.72455 -5.23594,-3.72727 -7.03398,-6.47828 -3.97424,-6.08065 -4.79364,-9.03468 -4.81118,-17.32905 -0.007,-3.05648 0.11559,-5.72706 0.38021,-8.16 -0.0253,-1.41119 0.4694,-3.66691 0,-4.18237 -2.27984,-1.51754 -3.30769,-5.02039 -1.08215,-7.13634 0.70473,-0.49681 0.92638,-1.38746 0.71656,-1.82799 -1.38987,-2.03797 -0.9562,-5.107 1.11139,-6.46366 0.16429,-0.1034 0.17401,-0.28403 0.0877,-0.40946 -1.77922,-2.15219 -0.56605,-5.61465 1.28689,-6.97549 -2.22525,-2.98971 0.04,-7.74143 3.78753,-7.57506 3.44991,-1.34095 4.24043,-6.02113 4.84043,-8.84732 1.00364,-4.88738 0.92229,-10.94032 -0.21935,-16.64172 -0.15113,-0.69883 -0.4546,-1.8198 -0.74943,-2.83859 z m -5.1329,29.1742 c -1.55068,0 -2.80775,1.25708 -2.80775,2.80775 0,1.55068 1.25707,2.80774 2.80775,2.80774 1.55067,0 2.80774,-1.25706 2.80774,-2.80774 0,-1.55067 -1.25707,-2.80775 -2.80774,-2.80775 z m -1.27226,7.03399 c -1.55068,0 -2.80775,1.25707 -2.80775,2.80774 0,1.55068 1.25707,2.80774 2.80775,2.80774 1.55067,0 2.80774,-1.25706 2.80774,-2.80774 0,-1.55067 -1.25707,-2.80774 -2.80774,-2.80774 z m -1.14065,7.06323 c -1.55067,0 -2.80775,1.25707 -2.80775,2.80774 0,1.55068 1.25708,2.80774 2.80775,2.80774 1.55068,0 2.80774,-1.25706 2.80774,-2.80774 0,-1.55067 -1.25706,-2.80774 -2.80774,-2.80774 z m -1.09677,7.58968 c -1.55068,0 -2.80775,1.25707 -2.80775,2.80774 0,1.55068 1.25707,2.80775 2.80775,2.80775 1.55067,0 2.80774,-1.25707 2.80774,-2.80775 0,-1.55067 -1.25707,-2.80774 -2.80774,-2.80774 z"
         style="fill:#000000" />
      <path
         d="m 336.44932,341.7605 c -7.19226,-1.43845 -12.83367,-5.86617 -16.92425,-13.28318 -1.1238,-2.56222 -1.86549,-5.25931 -2.2251,-8.09128 -0.31466,-2.83192 -0.20229,-5.70881 0.33713,-8.63069 0.58437,-2.92182 1.61825,-5.55148 3.10166,-7.88899 2.11271,-3.73094 4.76485,-6.54041 7.95642,-8.42841 3.19154,-1.93288 7.2147,-3.43875 12.06949,-4.51764 1.43842,-0.31461 2.58469,-0.44947 3.43879,-0.40456 0.85405,0.045 1.6407,0.29223 2.35996,0.7417 0.76414,0.49451 1.28109,1.01145 1.55083,1.55082 0.26967,0.53947 0.22472,0.94403 -0.13486,1.2137 -0.22479,0.17985 -0.47202,0.38213 -0.7417,0.60684 -0.6743,0.31471 -1.79809,0.83165 -3.37136,1.55083 -1.52838,0.71927 -2.69712,1.30363 -3.50622,1.75312 -0.80915,0.4046 -1.82056,0.94402 -3.03423,1.61825 -1.21371,0.67431 -2.29255,1.39353 -3.23651,2.15768 -0.94401,0.76421 -1.84303,1.59581 -2.6971,2.49481 -2.06778,2.2476 -3.46128,5.14697 -4.18049,8.69812 -0.67428,3.50624 -0.78666,6.9675 -0.33714,10.3838 0.2697,1.93293 0.94398,3.8209 2.02282,5.6639 1.12378,1.84302 2.51727,3.12413 4.1805,3.84335 1.52833,0.76418 3.07916,1.21369 4.65248,1.34855 1.61823,0.0899 3.05668,-0.11238 4.31535,-0.60685 1.30357,-0.49445 2.49478,-1.19121 3.57365,-2.09024 1.0788,-0.89903 1.88793,-1.95539 2.42738,-3.16909 0.58434,-1.21368 0.94395,-2.4948 1.07884,-3.84336 0.13482,-1.39348 -0.11241,-2.83193 -0.74171,-4.31534 -1.03391,-1.25863 -2.85445,-2.24756 -5.4616,-2.96681 -2.60722,-0.76415 -4.45023,-0.76415 -5.52905,0 -0.53943,0.31468 -0.83162,1.07886 -0.87655,2.29254 -0.045,1.0339 0.31464,1.75312 1.07884,2.15767 0.8091,0.40458 1.68565,0.51695 2.62966,0.33714 0.98891,-0.1798 1.82051,-0.51694 2.49481,-1.01142 0.67425,-0.40455 1.32604,-0.29216 1.95539,0.33714 0.67425,0.58439 1.01139,1.23618 1.01141,1.9554 -0.045,1.03389 -0.51697,1.91045 -1.41597,2.62966 -0.85411,0.67429 -1.91047,1.14627 -3.16908,1.41597 -3.05673,0.49448 -5.61897,-0.67426 -7.68671,-3.50621 -1.79808,-2.51728 -2.47235,-5.10198 -2.02283,-7.75415 0.40455,-2.56221 1.843,-4.13552 4.31535,-4.71991 7.37203,-0.22473 13.21572,1.88799 17.5311,6.33817 1.79802,1.75313 2.89934,3.95575 3.30394,6.60787 0.40453,2.6072 0.0449,4.98963 -1.07883,7.1473 -1.97791,3.28147 -4.74243,6.00103 -8.29356,8.1587 -3.50625,2.20262 -7.0799,2.94432 -10.72095,2.2251"
         style="font-style:normal;font-variant:normal;font-weight:bold;font-stretch:normal;font-size:144.08859253px;line-height:125%;font-family:kabayan;-inkscape-font-specification:'kabayan Bold';letter-spacing:0px;word-spacing:0px;fill:#000000;fill-opacity:1;stroke:none"
         id="path4230"
         inkscape:connector-curvature="0" />
      <path
         inkscape:connector-curvature="0"
         id="path4232"
         d="m 401.02729,283.3116 c -2.08055,0 -3.75828,1.91814 -3.75828,4.27011 0,2.35198 1.67773,4.25549 3.75828,4.25549 2.08056,0 3.77291,-1.90351 3.77291,-4.25549 0,-2.35197 -1.69235,-4.27011 -3.77291,-4.27011 z m -1.82796,11.26022 c -0.58507,0.0479 -1.09324,0.3752 -1.50624,0.96516 -0.85408,1.16879 -1.49543,4.33601 -1.94494,9.50539 -0.1798,2.15771 -0.34773,3.67821 -0.48258,4.5772 -0.045,1.93295 -0.17009,4.4171 -0.39484,7.42883 -0.045,0.944 -0.0314,2.10157 0.0585,3.49505 0.0899,1.39352 0.27137,2.99852 0.54108,4.79657 0.2697,1.79807 0.63263,3.45832 1.08214,4.98667 0.49447,1.52835 1.12228,2.92373 1.88646,4.18237 0.80912,1.25864 1.75815,2.03975 2.83699,2.3544 1.12378,0.31467 2.42111,0.13321 3.90452,-0.54107 0.31465,-0.40456 0.46794,-0.71115 0.46795,-0.93592 -0.89904,-8.72058 -1.45697,-16.91134 -1.68171,-24.55313 -0.045,-1.66317 -0.045,-2.77904 0,-3.36345 0.0449,-0.58433 0.0866,-0.97542 0.13161,-1.15526 0.0449,-0.17978 0.0314,-0.52808 -0.0585,-1.06753 -0.0449,-0.58433 -0.18471,-1.68666 -0.40945,-3.30495 -0.17982,-0.62928 -0.33312,-1.35513 -0.46796,-2.16431 -0.13486,-0.80908 -0.30279,-1.45043 -0.48259,-1.94494 -0.13486,-0.53937 -0.39974,-1.23706 -0.8043,-2.09118 -1.0367,-0.83439 -1.92389,-1.23152 -2.67613,-1.1699 z"
         style="font-style:normal;font-variant:normal;font-weight:bold;font-stretch:normal;font-size:144.08859253px;line-height:125%;font-family:kabayan;-inkscape-font-specification:'kabayan Bold';letter-spacing:0px;word-spacing:0px;fill:#000000;fill-opacity:1;stroke:none" />
      <path
         d="m 414.61654,290.04376 c 0.76417,5e-5 1.95538,-0.0448 3.57365,-0.13486 1.61824,-0.0899 2.85441,-0.13481 3.7085,-0.13485 4.22543,4e-5 7.64174,0.94403 10.24895,2.83194 3.64105,2.60724 5.46158,5.75384 5.46161,9.43983 -3e-5,3.05674 -1.3261,5.8662 -3.97821,8.42842 0.13483,0.0899 0.47196,0.22478 1.01141,0.40455 0.53939,0.17984 0.92148,0.31469 1.14627,0.40457 0.26968,0.0899 0.65176,0.29221 1.14626,0.60685 0.53939,0.31468 0.9889,0.65182 1.34855,1.01141 0.35958,0.35964 0.76414,0.8541 1.21369,1.4834 0.49443,0.62934 0.94394,1.34856 1.34854,2.15767 0.40454,1.34857 0.60682,2.67464 0.60685,3.97822 -3e-5,2.02283 -0.49451,3.95574 -1.48341,5.79874 -0.944,1.79807 -2.18017,3.34889 -3.70849,4.65248 -1.52838,1.3036 -3.23654,2.47234 -5.12448,3.50623 -1.88799,0.98893 -3.731,1.77558 -5.52904,2.35995 -1.79807,0.53942 -3.50623,0.89903 -5.12447,1.07884 -0.58439,0.0899 -1.14628,0.13485 -1.68569,0.13485 -1.75312,0 -3.28146,-0.51694 -4.58505,-1.55083 -1.25865,-1.03388 -2.27006,-2.47233 -3.03423,-4.31534 -0.71923,-1.88796 -1.25865,-3.9782 -1.61826,-6.27074 -0.31466,-2.29252 -0.47199,-4.8098 -0.47199,-7.55186 0,-5.30425 0.53942,-10.67596 1.61825,-16.11513 1.12379,-5.43909 2.42738,-9.5072 3.91079,-12.20434 m 16.7894,34.52278 c 2.24755,-2.38241 3.37134,-4.49514 3.37136,-6.33817 -2e-5,-0.98891 -0.47201,-1.84299 -1.41597,-2.56223 -0.89905,-0.76416 -1.86551,-1.14624 -2.89938,-1.14627 -0.22477,3e-5 -0.42706,0.0225 -0.60683,0.0675 -3.86586,2.38245 -6.94503,4.96717 -9.23755,7.75415 -0.0899,0.85409 -0.13487,1.64073 -0.13485,2.35994 -2e-5,1.39351 0.22474,3.14663 0.67427,5.25934 0.22474,0.26971 0.56188,0.40457 1.01141,0.40456 1.03387,10e-6 2.53975,-0.67427 4.51762,-2.02282 2.0228,-1.39348 3.59611,-2.65213 4.71992,-3.77593 m -8.9004,-14.63172 c 0.35959,-0.35959 1.12377,-1.05634 2.29253,-2.09025 1.16872,-1.07881 2.0228,-1.88794 2.56223,-2.42739 0.5394,-0.58433 1.14625,-1.37098 1.82054,-2.35995 0.71921,-1.03385 1.25862,-2.06774 1.61825,-3.10166 0.0449,-1.12375 -0.47201,-2.13515 -1.55082,-3.03423 -1.03391,-0.94393 -2.1577,-1.61821 -3.37137,-2.02281 -1.16875,-0.44948 -2.13521,-0.67423 -2.89937,-0.67428 l -0.0675,0 c -0.53943,0.58441 -1.05638,2.18019 -1.55083,4.78735 -0.44953,2.60722 -0.67428,5.0346 -0.67427,7.28214 -1e-5,2.69712 0.3596,4.04567 1.07884,4.04564 0.22474,3e-5 0.47197,-0.13483 0.74169,-0.40456"
         style="font-style:normal;font-variant:normal;font-weight:bold;font-stretch:normal;font-size:144.08859253px;line-height:125%;font-family:kabayan;-inkscape-font-specification:'kabayan Bold';letter-spacing:0px;word-spacing:0px;fill:#000000;fill-opacity:1;stroke:none"
         id="path4234"
         inkscape:connector-curvature="0" />
      <g
         style="font-style:normal;font-variant:normal;font-weight:normal;font-stretch:normal;font-size:12.5px;line-height:100%;font-family:'Aurulent Sans';-inkscape-font-specification:'Aurulent Sans';text-align:start;writing-mode:lr-tb;text-anchor:start;opacity:1;fill:#000000;fill-opacity:1;stroke:none;stroke-width:3;stroke-linecap:round;stroke-linejoin:round;stroke-miterlimit:4;stroke-dasharray:none;stroke-dashoffset:0;stroke-opacity:1"
         id="g4236"
         transform="matrix(0.8968547,0,0,0.8968547,265.41012,66.178496)">
        <path
           inkscape:connector-curvature="0"
           d="m 65.398412,331.26957 c 0,2.66625 1.5525,4.275 3.915,4.275 0.88875,0 1.7775,-0.23625 2.64375,-0.52875 l 0,-3.555 -2.17125,0 0,0.84375 1.04625,0 0,2.14875 c -0.50625,0.14625 -1.02375,0.2475 -1.5075,0.2475 -0.70875,0 -1.36125,-0.21375 -1.845,-0.68625 -0.70875,-0.6975 -0.84375,-1.74375 -0.84375,-2.745 0,-1.0125 0.135,-2.05875 0.84375,-2.75625 0.48375,-0.4725 1.13625,-0.68625 1.87875,-0.68625 0.84375,0 1.7325,0.28125 2.59875,0.585 l 0,-0.93375 c -0.855,-0.30375 -1.755,-0.495 -2.59875,-0.495 -2.39625,0 -3.96,1.58625 -3.96,4.2975 l 0,-0.0113 z"
           style="font-size:11.25px;line-height:100%;letter-spacing:2.65999937px;fill:#000000"
           id="path4238" />
        <path
           inkscape:connector-curvature="0"
           d="m 76.881224,335.34207 0,-6.64875 4.12875,6.64875 1.125,0 0,-8.15625 -0.93375,0 0,6.66 -4.12875,-6.66 -1.125,0 0,8.15625 0.93375,0 z"
           style="font-size:11.25px;line-height:100%;letter-spacing:2.65999937px;fill:#000000"
           id="path4240" />
        <path
           inkscape:connector-curvature="0"
           d="m 92.793021,332.22582 0,-5.04 -1.125,0 0,5.2425 c 0,0.6525 0,1.31625 -0.50625,1.78875 -0.3825,0.3375 -0.9225,0.48375 -1.4625,0.48375 -0.54,0 -1.08,-0.14625 -1.45125,-0.48375 -0.5175,-0.4725 -0.5175,-1.13625 -0.5175,-1.78875 l 0,-5.2425 -1.125,0 0,5.04 c 0,0.9675 0,1.935 0.79875,2.62125 0.59625,0.50625 1.45125,0.6975 2.295,0.6975 0.84375,0 1.69875,-0.19125 2.295,-0.70875 0.79875,-0.675 0.79875,-1.6425 0.79875,-2.61 z"
           style="font-size:11.25px;line-height:100%;letter-spacing:2.65999937px;fill:#000000"
           id="path4242" />
        <path
           inkscape:connector-curvature="0"
           d="m 99.502315,326.80332 -0.91125,0 -2.23875,9.99 0.91125,0 2.23875,-9.99 z"
           style="font-size:11.25px;line-height:100%;letter-spacing:2.65999937px;fill:#000000"
           id="path4244" />
        <path
           inkscape:connector-curvature="0"
           d="m 108.19618,335.34207 0,-0.84375 -4.0275,0 0,-7.3125 -1.125,0 0,8.15625 5.1525,0 z"
           style="font-size:11.25px;line-height:100%;letter-spacing:2.65999937px;fill:#000000"
           id="path4246" />
        <path
           inkscape:connector-curvature="0"
           d="m 112.8905,328.25457 0,-1.06875 -1.06875,0 0,1.06875 1.06875,0 z m 0,7.0875 0,-5.9625 -1.06875,0 0,5.9625 1.06875,0 z"
           style="font-size:11.25px;line-height:100%;letter-spacing:2.65999937px;fill:#000000"
           id="path4248" />
        <path
           inkscape:connector-curvature="0"
           d="m 120.83958,331.43832 0,3.90375 1.06875,0 0,-3.70125 c 0,-1.02375 0.0112,-2.39625 -1.49625,-2.39625 -0.855,0 -1.575,0.43875 -2.115,1.09125 l 0,-0.95625 -1.06875,0 0,5.9625 1.06875,0 0,-4.0725 c 0.3825,-0.68625 0.9675,-1.215 1.71,-1.215 0.79875,0 0.8325,0.6075 0.8325,1.38375 z"
           style="font-size:11.25px;line-height:100%;letter-spacing:2.65999937px;fill:#000000"
           id="path4250" />
        <path
           inkscape:connector-curvature="0"
           d="m 127.30718,333.26082 0,-3.88125 -1.06875,0 0,3.67875 c 0,0.945 -0.0337,2.41875 1.53,2.41875 0.82125,0 1.53,-0.4275 2.08125,-1.08 l 0,0.945 1.06875,0 0,-5.9625 -1.06875,0 0,4.08375 c -0.39375,0.68625 -0.97875,1.215 -1.69875,1.215 -0.84375,0 -0.84375,-0.70875 -0.84375,-1.40625 l 0,-0.0112 z"
           style="font-size:11.25px;line-height:100%;letter-spacing:2.65999937px;fill:#000000"
           id="path4252" />
        <path
           inkscape:connector-curvature="0"
           d="m 139.84978,335.34207 -2.08125,-2.925 2.115,-3.0375 -1.04625,0 -1.5975,2.295 -1.60875,-2.295 -1.06875,0 2.025,2.86875 -2.14875,3.09375 1.04625,0 1.63125,-2.34 1.665,2.34 1.06875,0 z"
           style="font-size:11.25px;line-height:100%;letter-spacing:2.65999937px;fill:#000000"
           id="path4254" />
        <path
           inkscape:connector-curvature="0"
           d="m 152.4501,331.05582 c 1.305,-0.28125 1.8225,-1.09125 1.8225,-1.83375 0,-0.50625 -0.21375,-1.08 -0.7425,-1.49625 -0.6975,-0.54 -1.63125,-0.54 -2.565,-0.54 l -1.96875,0 0,8.15625 2.025,0 c 1.02375,0 2.0475,0 2.80125,-0.5625 0.4725,-0.36 0.73125,-0.88875 0.73125,-1.5075 0,-0.8775 -0.59625,-1.87875 -2.10375,-2.21625 z m -2.34,0.41625 0.675,0 c 0.73125,0 1.4625,0.0113 2.0475,0.5175 0.36,0.32625 0.585,0.75375 0.585,1.2375 0,0.405 -0.14625,0.72 -0.43875,0.93375 -0.43875,0.3375 -1.0575,0.3375 -1.665,0.3375 l -1.20375,0 0,-3.02625 z m 0,-0.84375 0,-2.59875 1.125,0 c 0.54,0 1.08,0 1.47375,0.315 0.30375,0.2475 0.4275,0.585 0.4275,0.88875 0,0.39375 -0.19125,0.7425 -0.495,0.97875 -0.50625,0.41625 -1.13625,0.41625 -1.7775,0.41625 l -0.75375,0 z"
           style="font-size:11.25px;line-height:100%;letter-spacing:2.65999937px;fill:#000000"
           id="path4256" />
        <path
           inkscape:connector-curvature="0"
           d="m 162.35774,332.36082 c 0,0.675 -0.045,1.395 -0.5175,1.89 -0.25875,0.28125 -0.64125,0.4275 -1.02375,0.4275 -0.3825,0 -0.765,-0.14625 -1.02375,-0.4275 -0.4725,-0.495 -0.5175,-1.215 -0.5175,-1.89 0,-0.675 0.045,-1.395 0.5175,-1.89 0.25875,-0.28125 0.64125,-0.4275 1.02375,-0.4275 0.3825,0 0.765,0.14625 1.02375,0.4275 0.4725,0.495 0.5175,1.215 0.5175,1.89 z m -1.54125,-3.11625 c -1.65375,0 -2.7225,1.2375 -2.7225,3.11625 0,1.90125 1.08,3.11625 2.7225,3.11625 1.6425,0 2.7225,-1.22625 2.7225,-3.11625 0,-1.89 -1.09125,-3.11625 -2.7225,-3.11625 z"
           style="font-size:11.25px;line-height:100%;letter-spacing:2.65999937px;fill:#000000"
           id="path4258" />
        <path
           inkscape:connector-curvature="0"
           d="m 169.45692,332.74332 c -1.0125,0 -1.2375,-0.57375 -1.2375,-1.35 0,-0.61875 0.135,-1.35 1.2375,-1.35 0.99,0 1.24875,0.585 1.24875,1.35 0,0.75375 -0.2025,1.35 -1.24875,1.35 z m -2.41875,-1.35 c 0,0.6975 0.3375,1.40625 1.00125,1.81125 -0.25875,0.225 -0.4275,0.55125 -0.4275,0.9 0,0.93375 1.02375,1.15875 1.665,1.2825 l 1.0575,0.2025 c 0.18,0.0337 0.855,0.1125 0.855,0.57375 0,0.4725 -0.6525,0.5625 -1.35,0.5625 -0.855,0 -1.81125,-0.12375 -2.745,-0.3825 l 0,0.93375 c 0.81,0.21375 1.665,0.25875 2.1825,0.25875 1.47375,0 2.97,-0.2925 2.97,-1.45125 0,-1.00125 -0.9675,-1.22625 -1.62,-1.35 l -1.04625,-0.2025 c -0.63,-0.135 -1.1025,-0.23625 -1.1025,-0.6525 0,-0.1575 0.0675,-0.30375 0.19125,-0.41625 0.25875,0.0675 0.5175,0.10125 0.7875,0.10125 1.71,0 2.41875,-1.15875 2.41875,-2.16 0,-0.585 -0.23625,-1.13625 -0.6525,-1.54125 0.27,-0.14625 0.59625,-0.2025 0.9225,-0.2025 l 0,-0.81 c -0.5625,0 -1.04625,0.25875 -1.4175,0.66375 -0.39375,-0.19125 -0.8325,-0.25875 -1.2825,-0.25875 -1.8225,0 -2.41875,1.27125 -2.41875,2.14875 l 0.0113,-0.0112 z"
           style="font-size:11.25px;line-height:100%;letter-spacing:2.65999937px;fill:#000000"
           id="path4260" />
        <path
           inkscape:connector-curvature="0"
           d="m 179.7627,332.36082 c 0,0.675 -0.045,1.395 -0.5175,1.89 -0.25875,0.28125 -0.64125,0.4275 -1.02375,0.4275 -0.3825,0 -0.765,-0.14625 -1.02375,-0.4275 -0.4725,-0.495 -0.5175,-1.215 -0.5175,-1.89 0,-0.675 0.045,-1.395 0.5175,-1.89 0.25875,-0.28125 0.64125,-0.4275 1.02375,-0.4275 0.3825,0 0.765,0.14625 1.02375,0.4275 0.4725,0.495 0.5175,1.215 0.5175,1.89 z m -1.54125,-3.11625 c -1.65375,0 -2.7225,1.2375 -2.7225,3.11625 0,1.90125 1.08,3.11625 2.7225,3.11625 1.6425,0 2.7225,-1.22625 2.7225,-3.11625 0,-1.89 -1.09125,-3.11625 -2.7225,-3.11625 z"
           style="font-size:11.25px;line-height:100%;letter-spacing:2.65999937px;fill:#000000"
           id="path4262" />
        <path
           inkscape:connector-curvature="0"
           d="m 188.50438,330.27957 0,-0.99 c -0.21375,-0.045 -0.4275,-0.045 -0.52875,-0.045 -0.93375,0 -1.63125,0.52875 -2.03625,1.27125 l 0,-1.13625 -1.06875,0 0,5.9625 1.06875,0 0,-3.67875 c 0.27,-0.84375 1.0125,-1.4625 1.935,-1.4625 0.2025,0 0.41625,0.0337 0.63,0.0787 z"
           style="font-size:11.25px;line-height:100%;letter-spacing:2.65999937px;fill:#000000"
           id="path4264" />
      </g>
    </g>
    <g
       id="g4414"
       transform="translate(37.269323,-7.1429061)">
      <path
         inkscape:connector-curvature="0"
         id="path4354"
         d="m 528.68389,44.655702 c 0.44824,1.64195 0.8874,3.41383 1.21698,5.234693 0.012,0.06633 0.0216,0.133644 0.0333,0.20005 0.0164,0.105354 0.0341,0.211295 0.05,0.316743 0.24424,1.620955 0.40373,3.251188 0.50013,4.867937 0.002,0.06076 0.0151,0.122731 0.0167,0.183373 0.002,0.01635 -0.002,0.03373 0,0.04998 0.008,0.139445 0.01,0.277587 0.0167,0.416778 0.0145,0.305357 0.0408,0.613048 0.05,0.916903 0.004,0.116948 -0.003,0.233396 0,0.350089 0.0102,0.436185 0.0178,0.868384 0.0167,1.300337 -9.5e-4,0.492859 -0.0179,0.981184 -0.0334,1.467051 -0.002,0.05499 0.002,0.111846 0,0.166706 -0.0151,0.429335 -0.0402,0.861128 -0.0667,1.283669 -0.0269,0.429676 -0.0447,0.862177 -0.0833,1.28366 -0.0118,0.128957 -0.037,0.255317 -0.05,0.383433 -0.0174,0.172696 -0.0305,0.345695 -0.05,0.516803 -0.0233,0.205767 -0.0572,0.41349 -0.0833,0.616829 -0.0214,0.166138 -0.0433,0.335688 -0.0667,0.500125 -0.0403,0.28406 -0.0872,0.571588 -0.13337,0.850224 -0.0128,0.07748 -0.02,0.156369 -0.0334,0.233395 -0.0623,0.361059 -0.128,0.71606 -0.20005,1.066942 -0.68401,3.221858 -1.5852,8.557256 -5.5181,10.085933 -0.13074,-0.0057 -0.25595,-0.0047 -0.38343,0 -0.006,1.89e-4 -0.0112,-1.89e-4 -0.0167,0 -0.12185,0.0047 -0.2481,0.01965 -0.36677,0.03336 -0.006,5.38e-4 -0.0112,-5.29e-4 -0.0167,0 -0.11833,0.01408 -0.23511,0.02731 -0.35009,0.04998 -0.006,9.45e-4 -0.0112,-9.45e-4 -0.0167,0 -0.11477,0.02305 -0.22217,0.05216 -0.33342,0.08334 -0.0114,0.0028 -0.0219,0.01342 -0.0334,0.01672 -0.10449,0.03024 -0.21555,0.06293 -0.31675,0.100035 -0.0114,0.0047 -0.0219,0.01238 -0.0334,0.01672 -0.10043,0.0377 -0.20307,0.07247 -0.30008,0.116693 -0.12183,0.05575 -0.23393,0.117902 -0.35009,0.183383 -0.0901,0.05055 -0.18023,0.09401 -0.26673,0.150037 -0.0166,0.01077 -0.0336,0.02239 -0.05,0.03336 -0.1801,0.119773 -0.3533,0.258406 -0.51679,0.400101 -0.0177,0.01531 -0.0325,0.03439 -0.05,0.04998 -0.15879,0.14143 -0.30865,0.290371 -0.45012,0.450123 -0.1578,0.178006 -0.29866,0.369363 -0.43344,0.566806 -0.12519,0.183392 -0.24608,0.3696 -0.35009,0.566816 -0.006,0.01124 -0.0109,0.02211 -0.0167,0.03335 -0.0867,0.166904 -0.16266,0.342019 -0.2334,0.516803 -0.0201,0.04998 -0.0479,0.09951 -0.0667,0.150038 -0.006,0.01635 -0.0107,0.03364 -0.0167,0.04998 -0.0523,0.143877 -0.0922,0.285817 -0.13337,0.433446 -0.0186,0.06699 -0.0337,0.132415 -0.05,0.20005 -0.0122,0.05065 -0.0225,0.09904 -0.0333,0.150038 -0.014,0.06539 -0.0216,0.134192 -0.0334,0.20005 -0.0265,0.148555 -0.0519,0.299877 -0.0667,0.450123 -0.0148,0.150359 -0.0307,0.298923 -0.0334,0.450113 -9.4e-4,0.06151 -9.4e-4,0.121871 0,0.183383 2.5e-4,0.01673 -4.1e-4,0.03326 0,0.04998 0.003,0.139862 0.0192,0.277295 0.0334,0.416769 0.0114,0.111562 0.0148,0.22251 0.0334,0.33342 0.035,0.211106 0.0884,0.426548 0.15004,0.633496 0.021,0.07049 0.0426,0.14693 0.0667,0.216728 0.0155,0.04479 0.0332,0.08891 0.05,0.13337 0.002,0.0047 -0.002,0.01191 0,0.01672 0.0421,0.110306 0.0997,0.208621 0.15004,0.316744 0.0343,0.07379 0.0618,0.144132 0.10002,0.216727 0.0211,0.03997 0.0444,0.0771 0.0667,0.116693 0.0412,0.07351 0.088,0.144614 0.13337,0.216728 0.0234,0.03732 0.0421,0.07975 0.0667,0.116693 -0.0317,0.148233 -0.0768,0.289256 -0.1167,0.433445 -0.0395,0.03383 -0.0779,0.06454 -0.11669,0.100025 -0.0821,0.07483 -0.15446,0.151635 -0.2334,0.233396 -0.0439,0.04545 -0.0905,0.08589 -0.13337,0.13337 -0.072,0.07956 -0.14797,0.165184 -0.21672,0.250063 -0.0442,0.05461 -0.0906,0.110022 -0.13337,0.166705 -0.061,0.08088 -0.1088,0.165279 -0.16671,0.250073 -0.046,0.06737 -0.0895,0.130431 -0.13336,0.20005 -0.0519,0.08211 -0.10129,0.165062 -0.15004,0.250063 -0.0446,0.07776 -0.0916,0.153383 -0.13337,0.233395 -0.0423,0.08079 -0.0773,0.167235 -0.1167,0.250063 -0.0774,0.16321 -0.1516,0.33018 -0.21672,0.500126 -0.0385,0.10063 -0.0828,0.197547 -0.1167,0.300085 -0.0128,0.03827 -0.0213,0.07814 -0.0334,0.116693 -0.0448,0.143707 -0.0816,0.287093 -0.1167,0.433446 -0.0161,0.06661 -0.036,0.132973 -0.05,0.20005 -0.0249,0.120463 -0.0489,0.245367 -0.0667,0.366766 -0.009,0.05584 -0.01,0.11073 -0.0167,0.166705 -0.003,0.02202 0.002,0.0446 0,0.06671 -0.0174,0.161329 -0.0296,0.32211 -0.0334,0.483458 -0.003,0.139002 -0.008,0.27858 0,0.416778 0.009,0.17434 0.0396,0.34509 0.0667,0.516803 0.002,0.01105 -0.002,0.0223 0,0.03335 0.006,0.03317 0.0105,0.06699 0.0167,0.100026 0.0282,0.150907 0.0568,0.302702 0.10003,0.450113 0.0528,0.182069 0.12325,0.35846 0.20006,0.533471 0.007,0.01587 0.009,0.03421 0.0167,0.04998 0.14951,0.329452 0.34089,0.640139 0.58348,0.933572 0.0983,0.143008 0.0872,0.348916 -0.10002,0.46679 -0.29464,0.193323 -0.56421,0.418621 -0.80021,0.666841 -0.118,0.12411 -0.23023,0.24789 -0.33342,0.383433 -0.20637,0.271087 -0.37033,0.575906 -0.5168,0.883559 -0.0732,0.153827 -0.14195,0.306114 -0.20006,0.466791 -0.40671,1.124749 -0.43881,2.389738 -0.0833,3.550922 0.0508,0.165873 0.1,0.339613 0.16671,0.500133 0.0668,0.16051 0.15056,0.31316 0.2334,0.46679 0.0829,0.15362 0.1677,0.3049 0.26674,0.45011 0.23919,0.5022 -0.0135,1.51751 -0.81688,2.08387 -2.53712,2.41219 -1.36538,6.40545 1.23364,8.13544 0.53513,0.58763 -0.0288,3.15915 0,4.7679 -0.30167,2.77356 -0.4408,5.81802 -0.43344,9.30241 0.02,9.45557 0.95411,12.82319 5.48475,19.75511 2.04976,3.13615 4.52116,5.41927 8.01874,7.38525 0.82698,0.46484 1.55993,0.93081 1.63376,1.05027 0.037,0.0597 -0.0208,0.37725 -0.15004,0.83355 -0.0646,0.22815 -0.15488,0.48091 -0.25006,0.76686 -0.0952,0.28595 -0.19832,0.60072 -0.31675,0.91691 -0.18765,0.50101 -0.36589,1.00655 -0.53347,1.50038 -0.006,0.0163 -0.0111,0.0336 -0.0167,0.05 -0.16105,0.47625 -0.31085,0.94469 -0.45011,1.40036 -0.01,0.0327 -0.0234,0.0675 -0.0334,0.10003 -0.13186,0.43504 -0.25778,0.86371 -0.36676,1.26699 -0.0115,0.0426 -0.0221,0.0913 -0.0334,0.13337 -0.10219,0.38403 -0.18839,0.75757 -0.26674,1.10028 -0.0834,0.36426 -0.14605,0.69446 -0.20005,1.00026 -0.003,0.0157 -0.014,0.0345 -0.0167,0.05 -0.01,0.0568 -0.0246,0.12888 -0.0334,0.18337 -0.0366,0.23515 -0.069,0.46483 -0.0833,0.65018 -0.004,0.0504 -0.0145,0.12029 -0.0167,0.1667 -0.002,0.0538 -2.2e-4,0.11875 0,0.16672 10e-5,0.0445 -0.002,0.094 0,0.13337 0.003,0.039 0.0118,0.0831 0.0167,0.11669 0.009,0.0676 0.0316,0.12211 0.05,0.16671 0.022,0.0528 0.0481,0.0818 0.0833,0.10002 -0.007,0.0113 -0.01,0.0218 -0.0167,0.0334 0.32599,0.13693 8.07598,1.78631 9.86922,1.21697 0.0498,0.01 0.0921,9.5e-4 0.11669,-0.0167 9.5e-4,-0.006 -9.4e-4,-0.0112 0,-0.0167 0.0647,-0.30302 0.11239,-0.60599 0.15005,-0.91691 5.3e-4,-0.006 -5.4e-4,-0.0112 0,-0.0167 0.0372,-0.31114 0.0687,-0.6329 0.0833,-0.95025 2.5e-4,-0.006 -2.5e-4,-0.0112 0,-0.0167 0.0289,-0.64056 0.0187,-1.29509 -0.0167,-1.9505 -3e-4,-0.006 3.1e-4,-0.0112 0,-0.0167 -0.0721,-1.32196 -0.2417,-2.65369 -0.35008,-3.95102 -0.46455,-3.20631 -0.44758,-3.71963 0.0667,-3.88434 2.80646,-0.89888 7.02203,-4.03202 9.58582,-7.11851 1.90092,-2.28846 3.28189,-3.81995 3.13415,-3.96769 0.017,-0.03 0.0495,-0.0607 0.05,-0.0833 -1.45517,0.44001 -2.18065,0.59233 -4.33446,1.31701 -13.12486,4.34963 -19.0959,-3.27585 -17.57121,-19.02159 2.18762,-11.72481 7.36235,-24.57985 16.57096,-41.110643 1.37317,-2.465065 2.50064,-4.531588 2.50064,-4.601197 0,-0.06964 -0.7893,-0.710277 -1.75045,-1.433698 -3.67835,-2.768551 -5.08093,-5.514746 -5.96821,-11.619675 -1.0431,-6.674173 -5.12412,-18.834736 -13.05317,-21.8722 z m 15.20393,33.375306 c 1.63691,0 2.95076,1.330526 2.95076,2.967439 0,1.636904 -1.31385,2.96743 -2.95076,2.96743 -1.6369,0 -2.96743,-1.330526 -2.96743,-2.96743 0,-1.636913 1.33053,-2.967439 2.96743,-2.967439 z M 523.61591,79.298 c 1.54679,0 2.80072,1.253934 2.80072,2.800724 0,1.5468 -1.25393,2.800724 -2.80072,2.800724 -1.5468,0 -2.80073,-1.253924 -2.80073,-2.800724 0,-1.54679 1.25393,-2.800724 2.80073,-2.800724 z m -1.41704,8.018749 c 1.5468,0 2.80072,1.253924 2.80072,2.800724 0,1.5468 -1.25392,2.800725 -2.80072,2.800725 -1.5468,0 -2.80072,-1.253925 -2.80072,-2.800725 0,-1.5468 1.25392,-2.800724 2.80072,-2.800724 z m -1.31701,8.01874 c 1.5468,0 2.80073,1.253934 2.80073,2.800724 0,1.5468 -1.25393,2.800727 -2.80073,2.800727 -1.5468,0 -2.80072,-1.253927 -2.80072,-2.800727 0,-1.54679 1.25392,-2.800724 2.80072,-2.800724 z m -1.23365,8.668911 c 1.5468,0 2.80073,1.25393 2.80073,2.80073 0,1.5468 -1.25393,2.80072 -2.80073,2.80072 -1.5468,0 -2.80073,-1.25392 -2.80073,-2.80072 0,-1.5468 1.25393,-2.80073 2.80073,-2.80073 z"
         style="fill:#535353;fill-opacity:1" />
      <path
         sodipodi:nodetypes="sccccssssccscssssssscccccccccccsssssssssssssssssssss"
         inkscape:connector-curvature="0"
         id="path4356"
         d="m 529.49516,45.655963 c 0.0113,0.0138 0.0226,0.01956 0.0334,0.03336 11.53742,15.780594 7.04982,35.118064 1.96717,51.896766 -5.09474,16.729691 -6.63786,24.177241 -6.65172,32.158321 -0.1336,7.33643 3.48282,17.09606 11.40295,17.18778 4.35802,-0.0756 8.83372,-0.97915 13.30344,-2.7007 1.05123,-0.40489 2.61838,-1.21595 2.68404,-1.1503 0.14773,0.14774 -1.23324,1.67924 -3.13415,3.9677 -2.5638,3.08651 -6.77937,6.21962 -9.58582,7.11851 -0.51425,0.16472 -0.53123,0.67802 -0.0667,3.88434 0.21725,2.60031 0.66563,5.36422 0.13337,7.83537 -0.19617,0.14289 -1.24145,-0.65535 -2.48398,-1.45038 -1.24253,-0.79502 -2.36055,-1.43424 -2.48398,-1.43371 -0.12343,5.4e-4 -1.24028,0.37044 -2.48397,0.83356 -1.2437,0.46311 -2.35283,0.85021 -2.46731,0.85021 -0.63237,0 0.29751,-4.17252 1.85048,-8.31881 0.47371,-1.26476 0.79069,-2.39786 0.71686,-2.51732 -0.0738,-0.11947 -0.80678,-0.58543 -1.63376,-1.05027 -3.49759,-1.96599 -5.96898,-4.2491 -8.01874,-7.38525 -4.53064,-6.93193 -5.46475,-10.29954 -5.48476,-19.75511 -0.008,-3.4844 0.13178,-6.52885 0.43345,-9.30241 -0.0288,-1.60876 0.53511,-4.18027 0,-4.7679 -2.59902,-1.73 -3.77077,-5.72325 -1.23366,-8.13544 0.8034,-0.56636 1.05608,-1.58169 0.81688,-2.0839 -1.58445,-2.323296 -1.09006,-5.821985 1.26699,-7.368577 0.18729,-0.117874 0.19837,-0.323793 0.10003,-0.466791 -2.02831,-2.453499 -0.64531,-6.400696 1.46705,-7.95206 -2.53679,-3.408264 0.0455,-8.825234 4.31778,-8.635568 3.9329,-1.528686 4.83409,-6.864084 5.5181,-10.085943 1.14415,-5.571618 1.05141,-12.471977 -0.25006,-18.971574 -0.17229,-0.796667 -0.51824,-2.074563 -0.85436,-3.235993 z m -5.85151,33.258604 c -1.76777,0 -3.20083,1.433064 -3.20083,3.200834 0,1.76777 1.43306,3.200825 3.20083,3.200825 1.76777,0 3.20083,-1.433055 3.20083,-3.200825 0,-1.76777 -1.43306,-3.200834 -3.20083,-3.200834 z m -1.45037,8.018749 c -1.76777,0 -3.20084,1.433055 -3.20084,3.200825 0,1.76777 1.43307,3.200825 3.20084,3.200825 1.76777,0 3.20082,-1.433055 3.20082,-3.200825 0,-1.76777 -1.43305,-3.200825 -3.20082,-3.200825 z m -1.30034,8.052085 c -1.76777,0 -3.20084,1.433055 -3.20084,3.200825 0,1.76777 1.43307,3.200824 3.20084,3.200824 1.76777,0 3.20082,-1.433054 3.20082,-3.200824 0,-1.76777 -1.43305,-3.200825 -3.20082,-3.200825 z m -1.25033,8.652239 c -1.76777,0 -3.20083,1.43306 -3.20083,3.20082 0,1.76777 1.43306,3.20084 3.20083,3.20084 1.76777,0 3.20083,-1.43307 3.20083,-3.20084 0,-1.76776 -1.43306,-3.20082 -3.20083,-3.20082 z"
         style="fill:#535353;fill-opacity:1" />
      <path
         d="m 488.44029,156.53251 c -8.19918,-1.63983 -14.63039,-6.68744 -19.29365,-15.14283 -1.28113,-2.92093 -2.12667,-5.99561 -2.53662,-9.22406 -0.35871,-3.22839 -0.23061,-6.50805 0.38434,-9.83899 0.66618,-3.33087 1.8448,-6.32869 3.53588,-8.99346 2.4085,-4.25327 5.43194,-7.45606 9.07033,-9.60839 3.63836,-2.20347 8.22476,-3.92017 13.75922,-5.150104 1.6398,-0.358658 2.94654,-0.51239 3.92022,-0.461197 0.97362,0.05131 1.8704,0.333147 2.69035,0.845537 0.87113,0.563745 1.46044,1.153054 1.76795,1.767944 0.30743,0.61499 0.25619,1.07619 -0.15374,1.38361 -0.25626,0.20503 -0.53811,0.43562 -0.84553,0.6918 -0.76871,0.35876 -2.04983,0.94808 -3.84336,1.76795 -1.74236,0.81996 -3.07472,1.48614 -3.9971,1.99855 -0.92243,0.46124 -2.07543,1.07618 -3.45901,1.8448 -1.38364,0.76872 -2.61351,1.58863 -3.68963,2.45976 -1.07616,0.8712 -2.10105,1.81923 -3.07469,2.84408 -2.35727,2.56228 -3.94586,5.86756 -4.76576,9.91587 -0.76868,3.99711 -0.89679,7.94295 -0.38434,11.83753 0.30746,2.20354 1.07613,4.35582 2.30602,6.45684 1.2811,2.10105 2.86969,3.56152 4.76576,4.38143 1.7423,0.87116 3.51025,1.38361 5.30384,1.53734 1.84478,0.1025 3.48461,-0.1281 4.9195,-0.6918 1.48606,-0.56368 2.84404,-1.35798 4.07395,-2.38288 1.22984,-1.02489 2.15224,-2.22914 2.76722,-3.61276 0.66615,-1.3836 1.0761,-2.84407 1.22988,-4.38143 0.15369,-1.58857 -0.12815,-3.2284 -0.84555,-4.91949 -1.17866,-1.43483 -3.25407,-2.56222 -6.22623,-3.38216 -2.97223,-0.87113 -5.07326,-0.87113 -6.30311,0 -0.61496,0.35873 -0.94805,1.2299 -0.99927,2.61349 -0.0513,1.17864 0.35869,1.99856 1.22987,2.45974 0.92238,0.46123 1.92165,0.58933 2.99782,0.38434 1.12736,-0.20496 2.07538,-0.5893 2.84408,-1.15301 0.76865,-0.46119 1.51169,-0.33307 2.22915,0.38434 0.76864,0.6662 1.15298,1.40925 1.15301,2.22915 -0.0513,1.17864 -0.58935,2.17791 -1.61421,2.99781 -0.97368,0.76869 -2.17793,1.30676 -3.61275,1.61421 -3.48468,0.56371 -6.40562,-0.76866 -8.76286,-3.99708 -2.04981,-2.86969 -2.81848,-5.81626 -2.30602,-8.83973 0.46119,-2.92093 2.10102,-4.71449 4.9195,-5.3807 8.40411,-0.25619 15.06592,2.15231 19.98546,7.22551 2.04975,1.99857 3.30525,4.50957 3.76649,7.53298 0.46116,2.97221 0.0512,5.68818 -1.22987,8.14792 -2.25481,3.74088 -5.40637,6.84118 -9.45466,9.30093 -3.99713,2.51098 -8.07108,3.35652 -12.22188,2.53661"
         style="font-style:normal;font-variant:normal;font-weight:bold;font-stretch:normal;font-size:144.08859253px;line-height:125%;font-family:kabayan;-inkscape-font-specification:'kabayan Bold';letter-spacing:0px;word-spacing:0px;fill:#dc3535;fill-opacity:1;stroke:none"
         id="path4358"
         inkscape:connector-curvature="0" />
      <path
         inkscape:connector-curvature="0"
         id="path4360"
         d="m 562.05919,89.900746 c -2.37183,0 -4.28444,2.186683 -4.28444,4.867927 0,2.681254 1.91261,4.85126 4.28444,4.85126 2.37184,0 4.30111,-2.170006 4.30111,-4.85126 0,-2.681244 -1.92927,-4.867927 -4.30111,-4.867927 z m -2.08387,12.836654 c -0.66698,0.0546 -1.2463,0.42773 -1.71711,1.10029 -0.97366,1.33241 -1.7048,4.94304 -2.21724,10.83614 -0.20498,2.45979 -0.39641,4.19316 -0.55014,5.21801 -0.0513,2.20356 -0.1939,5.0355 -0.45012,8.46887 -0.0513,1.07616 -0.0358,2.39579 0.0667,3.98436 0.10248,1.58861 0.30937,3.41831 0.61683,5.46808 0.30747,2.04981 0.7212,3.94249 1.23365,5.68481 0.56369,1.74232 1.2794,3.33305 2.15056,4.7679 0.9224,1.43485 2.00429,2.32532 3.23417,2.68402 1.28111,0.35873 2.76006,0.15186 4.45115,-0.61682 0.3587,-0.46119 0.53346,-0.81071 0.53347,-1.06695 -1.02491,-9.94146 -1.66095,-19.27893 -1.91716,-27.99057 -0.0513,-1.89602 -0.0513,-3.16811 0,-3.83433 0.0512,-0.66614 0.0988,-1.11199 0.15004,-1.31701 0.0512,-0.20494 0.0358,-0.602 -0.0667,-1.21698 -0.0512,-0.66614 -0.21056,-1.92279 -0.46678,-3.76764 -0.20499,-0.71738 -0.37975,-1.54485 -0.53347,-2.46731 -0.15374,-0.92236 -0.34517,-1.6535 -0.55015,-2.21724 -0.15374,-0.61488 -0.4557,-1.41025 -0.9169,-2.38395 -1.18184,-0.9512 -2.19324,-1.40393 -3.05079,-1.33368 z"
         style="font-style:normal;font-variant:normal;font-weight:bold;font-stretch:normal;font-size:144.08859253px;line-height:125%;font-family:kabayan;-inkscape-font-specification:'kabayan Bold';letter-spacing:0px;word-spacing:0px;fill:#dc3535;fill-opacity:1;stroke:none" />
      <path
         d="m 577.55094,97.575407 c 0.87115,5.7e-5 2.22913,-0.05112 4.07396,-0.153732 1.8448,-0.102435 3.25403,-0.153685 4.22769,-0.153733 4.81699,4.8e-5 8.71159,1.076192 11.68381,3.228418 4.1508,2.97225 6.2262,6.55938 6.22624,10.7614 -4e-5,3.48469 -1.51175,6.68748 -4.53516,9.6084 0.1537,0.10252 0.53804,0.25625 1.153,0.4612 0.61491,0.20501 1.05049,0.35874 1.30675,0.4612 0.30743,0.10252 0.74301,0.33312 1.30674,0.69181 0.6149,0.35874 1.12735,0.74307 1.53734,1.15301 0.40993,0.40998 0.87112,0.97367 1.38361,1.69107 0.56365,0.71745 1.0761,1.53736 1.53734,2.45975 0.46117,1.53737 0.69177,3.04908 0.69181,4.53516 -4e-5,2.30604 -0.56374,4.50956 -1.69109,6.61058 -1.07616,2.0498 -2.4854,3.81774 -4.22768,5.30383 -1.74235,1.4861 -3.68966,2.81847 -5.8419,3.99709 -2.15231,1.12739 -4.25335,2.02417 -6.30311,2.69036 -2.04981,0.61493 -3.99711,1.02489 -5.8419,1.22986 -0.6662,0.10249 -1.30677,0.15374 -1.92169,0.15374 -1.99855,0 -3.74087,-0.58932 -5.22696,-1.76794 -1.43486,-1.17863 -2.58787,-2.81846 -3.45902,-4.9195 -0.81993,-2.15227 -1.43486,-4.53515 -1.84482,-7.14865 -0.35871,-2.61347 -0.53806,-5.48317 -0.53806,-8.60912 0,-6.04685 0.61493,-12.1706 1.8448,-18.37124 1.28112,-6.20057 2.76721,-10.83822 4.4583,-13.912963 m 19.13992,39.355983 c 2.56221,-2.71595 3.84333,-5.12446 3.84335,-7.22551 -2e-5,-1.12736 -0.53809,-2.10101 -1.6142,-2.92095 -1.02493,-0.87114 -2.12669,-1.30672 -3.30529,-1.30675 -0.25625,3e-5 -0.48686,0.0257 -0.6918,0.0769 -4.40707,2.71599 -7.91734,5.66257 -10.5308,8.83973 -0.10251,0.97366 -0.15375,1.87044 -0.15373,2.69034 -2e-5,1.5886 0.2562,3.58715 0.76867,5.99564 0.2562,0.30748 0.64054,0.46121 1.15301,0.4612 1.1786,1e-5 2.8953,-0.76866 5.15008,-2.30601 2.306,-1.58858 4.09956,-3.02344 5.38071,-4.30456 M 586.5444,120.25127 c 0.40993,-0.40993 1.2811,-1.20423 2.61348,-2.38289 1.33234,-1.22984 2.306,-2.15224 2.92096,-2.76722 0.61491,-0.66614 1.30671,-1.56292 2.07541,-2.69034 0.81989,-1.17859 1.43482,-2.35723 1.84481,-3.53589 0.0512,-1.28108 -0.5381,-2.43408 -1.76794,-3.45903 -1.17866,-1.07608 -2.45978,-1.84476 -3.84337,-2.30601 -1.33238,-0.5124 -2.43414,-0.76862 -3.30528,-0.76867 l -0.0769,0 c -0.61496,0.66623 -1.20427,2.48542 -1.76795,5.45757 -0.51247,2.97223 -0.76868,5.73945 -0.76867,8.30165 -10e-6,3.07472 0.40994,4.61206 1.22987,4.61202 0.25621,4e-5 0.53806,-0.1537 0.84554,-0.46119"
         style="font-style:normal;font-variant:normal;font-weight:bold;font-stretch:normal;font-size:144.08859253px;line-height:125%;font-family:kabayan;-inkscape-font-specification:'kabayan Bold';letter-spacing:0px;word-spacing:0px;fill:#dc3535;fill-opacity:1;stroke:none"
         id="path4362"
         inkscape:connector-curvature="0" />
      <g
         style="font-style:normal;font-variant:normal;font-weight:normal;font-stretch:normal;font-size:12.5px;line-height:100%;font-family:'Aurulent Sans';-inkscape-font-specification:'Aurulent Sans';text-align:start;writing-mode:lr-tb;text-anchor:start;opacity:1;fill:#535353;fill-opacity:1;stroke:none;stroke-width:3;stroke-linecap:round;stroke-linejoin:round;stroke-miterlimit:4;stroke-dasharray:none;stroke-dashoffset:0;stroke-opacity:1"
         id="g4364"
         transform="matrix(1.0224146,0,0,1.0224146,407.45558,-157.63105)">
        <path
           inkscape:connector-curvature="0"
           d="m 65.398412,331.26957 c 0,2.66625 1.5525,4.275 3.915,4.275 0.88875,0 1.7775,-0.23625 2.64375,-0.52875 l 0,-3.555 -2.17125,0 0,0.84375 1.04625,0 0,2.14875 c -0.50625,0.14625 -1.02375,0.2475 -1.5075,0.2475 -0.70875,0 -1.36125,-0.21375 -1.845,-0.68625 -0.70875,-0.6975 -0.84375,-1.74375 -0.84375,-2.745 0,-1.0125 0.135,-2.05875 0.84375,-2.75625 0.48375,-0.4725 1.13625,-0.68625 1.87875,-0.68625 0.84375,0 1.7325,0.28125 2.59875,0.585 l 0,-0.93375 c -0.855,-0.30375 -1.755,-0.495 -2.59875,-0.495 -2.39625,0 -3.96,1.58625 -3.96,4.2975 l 0,-0.0113 z"
           style="font-size:11.25px;line-height:100%;letter-spacing:2.65999937px;fill:#535353;fill-opacity:1"
           id="path4366" />
        <path
           inkscape:connector-curvature="0"
           d="m 76.881224,335.34207 0,-6.64875 4.12875,6.64875 1.125,0 0,-8.15625 -0.93375,0 0,6.66 -4.12875,-6.66 -1.125,0 0,8.15625 0.93375,0 z"
           style="font-size:11.25px;line-height:100%;letter-spacing:2.65999937px;fill:#535353;fill-opacity:1"
           id="path4368" />
        <path
           inkscape:connector-curvature="0"
           d="m 92.793021,332.22582 0,-5.04 -1.125,0 0,5.2425 c 0,0.6525 0,1.31625 -0.50625,1.78875 -0.3825,0.3375 -0.9225,0.48375 -1.4625,0.48375 -0.54,0 -1.08,-0.14625 -1.45125,-0.48375 -0.5175,-0.4725 -0.5175,-1.13625 -0.5175,-1.78875 l 0,-5.2425 -1.125,0 0,5.04 c 0,0.9675 0,1.935 0.79875,2.62125 0.59625,0.50625 1.45125,0.6975 2.295,0.6975 0.84375,0 1.69875,-0.19125 2.295,-0.70875 0.79875,-0.675 0.79875,-1.6425 0.79875,-2.61 z"
           style="font-size:11.25px;line-height:100%;letter-spacing:2.65999937px;fill:#535353;fill-opacity:1"
           id="path4370" />
        <path
           inkscape:connector-curvature="0"
           d="m 99.502315,326.80332 -0.91125,0 -2.23875,9.99 0.91125,0 2.23875,-9.99 z"
           style="font-size:11.25px;line-height:100%;letter-spacing:2.65999937px;fill:#535353;fill-opacity:1"
           id="path4372" />
        <path
           inkscape:connector-curvature="0"
           d="m 108.19618,335.34207 0,-0.84375 -4.0275,0 0,-7.3125 -1.125,0 0,8.15625 5.1525,0 z"
           style="font-size:11.25px;line-height:100%;letter-spacing:2.65999937px;fill:#535353;fill-opacity:1"
           id="path4374" />
        <path
           inkscape:connector-curvature="0"
           d="m 112.8905,328.25457 0,-1.06875 -1.06875,0 0,1.06875 1.06875,0 z m 0,7.0875 0,-5.9625 -1.06875,0 0,5.9625 1.06875,0 z"
           style="font-size:11.25px;line-height:100%;letter-spacing:2.65999937px;fill:#535353;fill-opacity:1"
           id="path4376" />
        <path
           inkscape:connector-curvature="0"
           d="m 120.83958,331.43832 0,3.90375 1.06875,0 0,-3.70125 c 0,-1.02375 0.0112,-2.39625 -1.49625,-2.39625 -0.855,0 -1.575,0.43875 -2.115,1.09125 l 0,-0.95625 -1.06875,0 0,5.9625 1.06875,0 0,-4.0725 c 0.3825,-0.68625 0.9675,-1.215 1.71,-1.215 0.79875,0 0.8325,0.6075 0.8325,1.38375 z"
           style="font-size:11.25px;line-height:100%;letter-spacing:2.65999937px;fill:#535353;fill-opacity:1"
           id="path4378" />
        <path
           inkscape:connector-curvature="0"
           d="m 127.30718,333.26082 0,-3.88125 -1.06875,0 0,3.67875 c 0,0.945 -0.0337,2.41875 1.53,2.41875 0.82125,0 1.53,-0.4275 2.08125,-1.08 l 0,0.945 1.06875,0 0,-5.9625 -1.06875,0 0,4.08375 c -0.39375,0.68625 -0.97875,1.215 -1.69875,1.215 -0.84375,0 -0.84375,-0.70875 -0.84375,-1.40625 l 0,-0.0112 z"
           style="font-size:11.25px;line-height:100%;letter-spacing:2.65999937px;fill:#535353;fill-opacity:1"
           id="path4380" />
        <path
           inkscape:connector-curvature="0"
           d="m 139.84978,335.34207 -2.08125,-2.925 2.115,-3.0375 -1.04625,0 -1.5975,2.295 -1.60875,-2.295 -1.06875,0 2.025,2.86875 -2.14875,3.09375 1.04625,0 1.63125,-2.34 1.665,2.34 1.06875,0 z"
           style="font-size:11.25px;line-height:100%;letter-spacing:2.65999937px;fill:#535353;fill-opacity:1"
           id="path4382" />
        <path
           inkscape:connector-curvature="0"
           d="m 152.4501,331.05582 c 1.305,-0.28125 1.8225,-1.09125 1.8225,-1.83375 0,-0.50625 -0.21375,-1.08 -0.7425,-1.49625 -0.6975,-0.54 -1.63125,-0.54 -2.565,-0.54 l -1.96875,0 0,8.15625 2.025,0 c 1.02375,0 2.0475,0 2.80125,-0.5625 0.4725,-0.36 0.73125,-0.88875 0.73125,-1.5075 0,-0.8775 -0.59625,-1.87875 -2.10375,-2.21625 z m -2.34,0.41625 0.675,0 c 0.73125,0 1.4625,0.0113 2.0475,0.5175 0.36,0.32625 0.585,0.75375 0.585,1.2375 0,0.405 -0.14625,0.72 -0.43875,0.93375 -0.43875,0.3375 -1.0575,0.3375 -1.665,0.3375 l -1.20375,0 0,-3.02625 z m 0,-0.84375 0,-2.59875 1.125,0 c 0.54,0 1.08,0 1.47375,0.315 0.30375,0.2475 0.4275,0.585 0.4275,0.88875 0,0.39375 -0.19125,0.7425 -0.495,0.97875 -0.50625,0.41625 -1.13625,0.41625 -1.7775,0.41625 l -0.75375,0 z"
           style="font-size:11.25px;line-height:100%;letter-spacing:2.65999937px;fill:#535353;fill-opacity:1"
           id="path4384" />
        <path
           inkscape:connector-curvature="0"
           d="m 162.35774,332.36082 c 0,0.675 -0.045,1.395 -0.5175,1.89 -0.25875,0.28125 -0.64125,0.4275 -1.02375,0.4275 -0.3825,0 -0.765,-0.14625 -1.02375,-0.4275 -0.4725,-0.495 -0.5175,-1.215 -0.5175,-1.89 0,-0.675 0.045,-1.395 0.5175,-1.89 0.25875,-0.28125 0.64125,-0.4275 1.02375,-0.4275 0.3825,0 0.765,0.14625 1.02375,0.4275 0.4725,0.495 0.5175,1.215 0.5175,1.89 z m -1.54125,-3.11625 c -1.65375,0 -2.7225,1.2375 -2.7225,3.11625 0,1.90125 1.08,3.11625 2.7225,3.11625 1.6425,0 2.7225,-1.22625 2.7225,-3.11625 0,-1.89 -1.09125,-3.11625 -2.7225,-3.11625 z"
           style="font-size:11.25px;line-height:100%;letter-spacing:2.65999937px;fill:#535353;fill-opacity:1"
           id="path4386" />
        <path
           inkscape:connector-curvature="0"
           d="m 169.45692,332.74332 c -1.0125,0 -1.2375,-0.57375 -1.2375,-1.35 0,-0.61875 0.135,-1.35 1.2375,-1.35 0.99,0 1.24875,0.585 1.24875,1.35 0,0.75375 -0.2025,1.35 -1.24875,1.35 z m -2.41875,-1.35 c 0,0.6975 0.3375,1.40625 1.00125,1.81125 -0.25875,0.225 -0.4275,0.55125 -0.4275,0.9 0,0.93375 1.02375,1.15875 1.665,1.2825 l 1.0575,0.2025 c 0.18,0.0337 0.855,0.1125 0.855,0.57375 0,0.4725 -0.6525,0.5625 -1.35,0.5625 -0.855,0 -1.81125,-0.12375 -2.745,-0.3825 l 0,0.93375 c 0.81,0.21375 1.665,0.25875 2.1825,0.25875 1.47375,0 2.97,-0.2925 2.97,-1.45125 0,-1.00125 -0.9675,-1.22625 -1.62,-1.35 l -1.04625,-0.2025 c -0.63,-0.135 -1.1025,-0.23625 -1.1025,-0.6525 0,-0.1575 0.0675,-0.30375 0.19125,-0.41625 0.25875,0.0675 0.5175,0.10125 0.7875,0.10125 1.71,0 2.41875,-1.15875 2.41875,-2.16 0,-0.585 -0.23625,-1.13625 -0.6525,-1.54125 0.27,-0.14625 0.59625,-0.2025 0.9225,-0.2025 l 0,-0.81 c -0.5625,0 -1.04625,0.25875 -1.4175,0.66375 -0.39375,-0.19125 -0.8325,-0.25875 -1.2825,-0.25875 -1.8225,0 -2.41875,1.27125 -2.41875,2.14875 l 0.0113,-0.0112 z"
           style="font-size:11.25px;line-height:100%;letter-spacing:2.65999937px;fill:#535353;fill-opacity:1"
           id="path4388" />
        <path
           inkscape:connector-curvature="0"
           d="m 179.7627,332.36082 c 0,0.675 -0.045,1.395 -0.5175,1.89 -0.25875,0.28125 -0.64125,0.4275 -1.02375,0.4275 -0.3825,0 -0.765,-0.14625 -1.02375,-0.4275 -0.4725,-0.495 -0.5175,-1.215 -0.5175,-1.89 0,-0.675 0.045,-1.395 0.5175,-1.89 0.25875,-0.28125 0.64125,-0.4275 1.02375,-0.4275 0.3825,0 0.765,0.14625 1.02375,0.4275 0.4725,0.495 0.5175,1.215 0.5175,1.89 z m -1.54125,-3.11625 c -1.65375,0 -2.7225,1.2375 -2.7225,3.11625 0,1.90125 1.08,3.11625 2.7225,3.11625 1.6425,0 2.7225,-1.22625 2.7225,-3.11625 0,-1.89 -1.09125,-3.11625 -2.7225,-3.11625 z"
           style="font-size:11.25px;line-height:100%;letter-spacing:2.65999937px;fill:#535353;fill-opacity:1"
           id="path4390" />
        <path
           inkscape:connector-curvature="0"
           d="m 188.50438,330.27957 0,-0.99 c -0.21375,-0.045 -0.4275,-0.045 -0.52875,-0.045 -0.93375,0 -1.63125,0.52875 -2.03625,1.27125 l 0,-1.13625 -1.06875,0 0,5.9625 1.06875,0 0,-3.67875 c 0.27,-0.84375 1.0125,-1.4625 1.935,-1.4625 0.2025,0 0.41625,0.0337 0.63,0.0787 z"
           style="font-size:11.25px;line-height:100%;letter-spacing:2.65999937px;fill:#535353;fill-opacity:1"
           id="path4392" />
      </g>
    </g>
  </g>
</svg>
