<?xml version="1.0" encoding="UTF-8" standalone="no"?>
<!-- Created with Inkscape (http://www.inkscape.org/) -->

<svg
   xmlns:dc="http://purl.org/dc/elements/1.1/"
   xmlns:cc="http://creativecommons.org/ns#"
   xmlns:rdf="http://www.w3.org/1999/02/22-rdf-syntax-ns#"
   xmlns:svg="http://www.w3.org/2000/svg"
   xmlns="http://www.w3.org/2000/svg"
   xmlns:xlink="http://www.w3.org/1999/xlink"
   xmlns:sodipodi="http://sodipodi.sourceforge.net/DTD/sodipodi-0.dtd"
   xmlns:inkscape="http://www.inkscape.org/namespaces/inkscape"
   width="1052.3622"
   height="744.09448"
   id="svg3360"
   version="1.1"
   inkscape:version="0.48.4 r9939"
   sodipodi:docname="LogoILC2015-hitam.svg">
  <defs
     id="defs3362">
    <linearGradient
       inkscape:collect="always"
       xlink:href="#linearGradient3563"
       id="linearGradient3542"
       x1="873.39618"
       y1="815.30969"
       x2="931.54126"
       y2="815.30969"
       gradientUnits="userSpaceOnUse" />
    <linearGradient
       id="linearGradient3563"
       inkscape:collect="always">
      <stop
         id="stop3565"
         offset="0"
         style="stop-color:#d45500;stop-opacity:1" />
      <stop
         id="stop3567"
         offset="1"
         style="stop-color:#552200;stop-opacity:1" />
    </linearGradient>
    <linearGradient
       inkscape:collect="always"
       xlink:href="#linearGradient3571"
       id="linearGradient3569"
       gradientUnits="userSpaceOnUse"
       x1="880.94904"
       y1="894.22894"
       x2="932.75299"
       y2="894.22894" />
    <linearGradient
       inkscape:collect="always"
       id="linearGradient3571">
      <stop
         style="stop-color:#ff7f2a;stop-opacity:1"
         offset="0"
         id="stop3573" />
      <stop
         style="stop-color:#803300;stop-opacity:1"
         offset="1"
         id="stop3575" />
    </linearGradient>
    <linearGradient
       inkscape:collect="always"
       xlink:href="#linearGradient3571"
       id="linearGradient3291"
       gradientUnits="userSpaceOnUse"
       x1="880.94904"
       y1="894.22894"
       x2="932.75299"
       y2="894.22894" />
    <linearGradient
       inkscape:collect="always"
       xlink:href="#linearGradient3571"
       id="linearGradient3299"
       gradientUnits="userSpaceOnUse"
       x1="880.94904"
       y1="894.22894"
       x2="932.75299"
       y2="894.22894" />
    <linearGradient
       inkscape:collect="always"
       xlink:href="#linearGradient3571"
       id="linearGradient3307"
       gradientUnits="userSpaceOnUse"
       x1="880.94904"
       y1="894.22894"
       x2="932.75299"
       y2="894.22894" />
    <linearGradient
       inkscape:collect="always"
       xlink:href="#linearGradient3480"
       id="linearGradient3486"
       x1="747.75397"
       y1="933.63287"
       x2="934.4411"
       y2="933.63287"
       gradientUnits="userSpaceOnUse" />
    <linearGradient
       inkscape:collect="always"
       id="linearGradient3480">
      <stop
         style="stop-color:#00ffff;stop-opacity:1"
         offset="0"
         id="stop3482" />
      <stop
         style="stop-color:#0000ff;stop-opacity:1"
         offset="1"
         id="stop3484" />
    </linearGradient>
  </defs>
  <sodipodi:namedview
     id="base"
     pagecolor="#ffffff"
     bordercolor="#666666"
     borderopacity="1.0"
     inkscape:pageopacity="0.0"
     inkscape:pageshadow="2"
     inkscape:zoom="0.49497475"
     inkscape:cx="584.18063"
     inkscape:cy="267.89651"
     inkscape:document-units="px"
     inkscape:current-layer="layer1"
     showgrid="false"
     inkscape:window-width="1366"
     inkscape:window-height="741"
     inkscape:window-x="0"
     inkscape:window-y="27"
     inkscape:window-maximized="1" />
  <metadata
     id="metadata3365">
    <rdf:RDF>
      <cc:Work
         rdf:about="">
        <dc:format>image/svg+xml</dc:format>
        <dc:type
           rdf:resource="http://purl.org/dc/dcmitype/StillImage" />
        <dc:title></dc:title>
      </cc:Work>
    </rdf:RDF>
  </metadata>
  <g
     inkscape:label="Layer 1"
     inkscape:groupmode="layer"
     id="layer1"
     transform="translate(0,-308.2677)">
    <g
       id="g3955">
      <path
         style="font-size:129.93023681999997621px;font-style:normal;font-weight:normal;line-height:125%;letter-spacing:0px;word-spacing:0px;fill:#000000;fill-opacity:1;stroke:none;stroke-width:2.57963777000000016;font-family:Sans"
         d="m 62.582736,416.00875 0,97.9153 120.041184,0 0,-97.9153 z"
         id="path3282"
         inkscape:connector-curvature="0"
         sodipodi:nodetypes="ccccc" />
      <path
         style="font-size:129.93023681999997621px;font-style:normal;font-weight:normal;line-height:125%;letter-spacing:0px;word-spacing:0px;fill:#000000;fill-opacity:1;stroke:none;stroke-width:2.57963777000000016;font-family:Sans"
         d="m 200.47118,416.00875 0,354.14187 c 0,48.01681 14.2058,113.29609 127.17673,113.29609 l 234.69054,0 0,-97.58508 -152.30099,0 c -62.51508,0 -80.6087,-15.29329 -80.6087,-66.04216 l 0,-303.81072 z"
         id="path3284"
         inkscape:connector-curvature="0"
         sodipodi:nodetypes="ccccccccc" />
      <path
         style="font-size:129.93023681999997621px;font-style:normal;font-weight:normal;line-height:125%;letter-spacing:0px;word-spacing:0px;fill:#000000;fill-opacity:1;stroke:none;stroke-width:2.57963777000000016;font-family:Sans"
         d="m 62.582736,533.16883 0,269.43171 c 0,42.96617 13.449658,80.84617 58.208884,80.84617 l 61.8323,0 0,-350.27788 z"
         id="path3286"
         inkscape:connector-curvature="0"
         sodipodi:nodetypes="cccccc" />
      <path
         id="path3930"
         d="m 521.09375,416.0177 c -31.91298,3.4e-4 -61.28053,7.75617 -88.09375,23.21875 -27.14244,15.62772 -48.38087,36.81194 -63.84375,63.625 -15.79192,26.81358 -23.71879,56.18113 -23.71875,88.09375 -4e-5,24.01701 4.6548,47.05101 14.03125,69.09375 9.04741,22.04296 22.39854,41.57965 40,58.6875 10.36336,10.03448 22.29224,18.87057 35.78125,26.4375 7.23785,3.94799 13.68816,7.04077 19.28125,9.34375 5.59283,2.13851 12.63341,4.33026 21.1875,6.46875 14.64027,3.45446 30.14364,5.15625 46.59375,5.15625 13.32421,0 26.72961,-1.64753 40.21875,-4.9375 l 0,-91.3125 c -14.31164,4.60606 -27.17277,6.90634 -38.6875,6.90625 -16.61459,9e-5 -31.66749,-3.77671 -45.15625,-11.34375 -13.65357,-7.23787 -24.33118,-17.48797 -32.0625,-30.8125 -7.73156,-13.15979 -11.62511,-27.64545 -11.625,-43.4375 -1.1e-4,-15.79172 3.89344,-30.30864 11.625,-43.46875 7.56681,-12.8307 18.19019,-23.04956 31.84375,-30.78125 13.48879,-7.5667 28.19967,-11.37475 44.15625,-11.375 4.53927,1.6e-4 8.84199,0.23188 12.9375,0.71875 -5.61539,-22.75492 -15.37932,-44.81251 -35.5,-62.9375 l -0.65625,-0.59375 0.1875,-0.875 c 0.42778,-1.81772 0.66207,-3.204 1.3125,-4.5625 0.65043,-1.3585 1.71956,-2.51171 3.4375,-3.71875 l 0.0625,-0.0625 0.0625,-0.0312 c 2.5381,-1.42618 6.60605,-3.19641 11.09375,-3.875 4.4877,-0.67859 9.49973,-0.22304 13.53125,3.09375 2.75809,2.2691 6.63037,4.34495 9.625,5.15625 1.49732,0.40565 2.78509,0.4595 3.4375,0.28125 0.65241,-0.17825 0.74,-0.21157 0.8125,-1 0.10764,-1.17058 0.39146,-2.29737 1.0625,-3.25 0.67104,-0.95263 1.87598,-1.68671 3.1875,-1.6875 2.58513,-0.002 5.25926,1.94557 8.96875,6.15625 0.0544,0.0618 0.10145,0.0622 0.15625,0.125 l -0.0312,0.0312 c 1.00394,0.89622 2.25271,2.39983 4,4.71875 0.66754,0.88593 1.44311,1.95747 2.21875,3.03125 l 0,-24.875 c -13.81814,-3.61863 -27.61977,-5.40591 -41.4375,-5.40625 z"
         style="font-size:195.89617920000000595px;font-style:normal;font-weight:normal;line-height:125%;letter-spacing:0px;word-spacing:0px;fill:#000000;fill-opacity:1;stroke:none;stroke-width:2.57963777000000016;font-family:Sans" />
      <text
         xml:space="preserve"
         style="font-size:36.93343734999999839px;font-style:normal;font-weight:normal;line-height:125%;letter-spacing:0px;word-spacing:0px;fill:#000000;fill-opacity:1;stroke:none;font-family:Sans"
         x="59.701706"
         y="927.07928"
         id="text3290"
         sodipodi:linespacing="125%"><tspan
           sodipodi:role="line"
           id="tspan3292"
           x="59.701706"
           y="927.07928"
           style="font-style:italic;font-variant:normal;font-weight:500;font-stretch:normal;letter-spacing:1.89724933999999990px;fill:#000000;font-family:Ubuntu;-inkscape-font-specification:Ubuntu Medium Italic">Indonesia Linux Conference</tspan></text>
      <path
         inkscape:connector-curvature="0"
         id="path3188"
         d="m 764.03125,413.17395 c -0.81852,-0.017 -1.62656,1.7e-4 -2.4375,0.0312 -7.78504,0.29835 -15.07799,2.83237 -18.53125,8.09375 -2.50559,3.81752 0.33271,4.64209 -2.96875,5.03125 -21.60825,0.3732 -53.23949,10.42317 -79.5,44.03125 -1.56132,1.30919 0.39334,6.56342 -1.71875,8.84375 -18.80164,14.28141 -33.8943,32.49513 -50.75,48.75 -4.35827,0.3424 -20.43834,-37.45246 -26.34375,-48.34375 -10.91447,-19.44276 -23.4982,-37.44677 -26.5625,-40.09375 -7.37046,-8.43255 -10.3834,-6.20554 -10.75,-2.21875 -0.47243,5.1364 -10.44404,1.42177 -16.3125,-3.40625 -7.22471,-5.94387 -18.12973,-1.76403 -22.9375,0.9375 -3.19614,2.24564 -3.28576,3.70737 -4.15625,7.40625 61.34195,55.2577 27.5953,146.58186 70.03125,181.59375 5.00423,5.08609 8.98661,4.49534 10.375,9.9375 5.76761,13.53283 13.15201,31.51409 23.3125,46.5625 -12.72396,0.50554 -24.0141,5.88142 -25.75,16.71875 -0.53511,3.34069 -0.55737,5.69875 2.15625,10.15625 11.10193,7.49798 38.85969,27.17952 57.4375,39 12.46619,8.12271 22.10383,-1.66816 22,-16.46875 30.22563,14.63029 58.6221,22.37804 86.3125,23.03125 -2.94757,9.55406 1.10144,18.02697 12.84375,18.25 22.00971,0.65642 56.04079,-0.0327 69.4375,0 4.74897,-2.16345 6.03489,-4.15434 7.46875,-7.21875 4.83139,-10.32549 -2.1838,-21.5326 -13.125,-29.125 1.129,-0.54717 2.20574,-1.06804 3.375,-1.625 16.25302,-7.81635 28.05325,-19.47668 38.5625,-30.21875 8.0619,-8.24053 11.38764,-8.79302 25.8125,-29.875 0.86226,-1.2602 2.95774,-0.74022 4.46875,-1.0625 0.0898,0.0522 0.19123,0.10431 0.28125,0.15625 10.56223,6.11834 22.04087,9.1875 34.40625,9.1875 12.36551,0 23.78165,-3.06916 34.34375,-9.1875 10.56221,-6.11832 18.913,-14.43781 25.0312,-25 6.1183,-10.56212 9.2,-22.4764 9.1875,-34.3125 -0.011,-11.87964 -3.1297,-23.90841 -9.3125,-34.40625 -6.1183,-10.62647 -14.40838,-18.94596 -24.9062,-25 -10.5621,-6.11818 -21.97824,-9.18737 -34.34375,-9.1875 -12.30098,1.3e-4 -23.78148,3.06932 -34.34375,9.1875 -5.02699,2.91698 -9.53855,6.39651 -13.59375,10.375 C 865.97837,542.31777 858.53313,523.74366 852.5,511.4239 c 10.96691,-29.04733 -17.88916,-60.41872 -60.15625,-77 -4.27351,-2.28805 -2.67912,-4.69122 -2.78125,-6.40625 -0.53452,-8.97637 -13.2534,-14.58833 -25.53125,-14.84375 z M 735.4375,442.0177 c 11.64362,-0.34491 22.82648,6.33526 28.28125,14.1875 8.97753,-11.25193 34.22052,-18.92998 47.34375,2.0625 l 0.28125,2.0625 c -14.245,-17.86436 -39.86101,-12.81337 -48.0625,2.09375 -18.89693,-28.09261 -44.35984,-15.70552 -52.9375,-3.21875 l -0.46875,-0.875 c 7.16279,-11.5382 16.50635,-16.04423 25.5625,-16.3125 z m 1.28125,14.1875 c 1.57334,-0.0506 3.17109,0.1185 4.75,0.46875 12.63132,2.80204 20.00312,17.86451 16.5,33.65625 -3.50312,15.79174 -16.55618,26.33329 -29.1875,23.53125 -12.63132,-2.80204 -20.03437,-17.89576 -16.53125,-33.6875 3.06523,-13.81777 13.45535,-23.61444 24.46875,-23.96875 z m 53.09375,10.59375 c 1.57334,-0.0506 3.13984,0.0872 4.71875,0.4375 12.63132,2.80204 20.03437,17.89576 16.53125,33.6875 -3.50312,15.79174 -16.58743,26.30204 -29.21875,23.5 -12.63132,-2.80204 -20.00312,-17.86451 -16.5,-33.65625 3.06523,-13.81777 13.45535,-23.61444 24.46875,-23.96875 z M 732.75,486.3302 c -3.18251,0.35397 -6.36982,4.23316 -7.53125,9.46875 -1.32734,5.98354 0.50819,11.48586 4.09375,12.28125 3.58556,0.79539 7.54766,-3.42271 8.875,-9.40625 1.32734,-5.98354 -0.50819,-11.45461 -4.09375,-12.25 -0.44819,-0.0994 -0.88911,-0.14432 -1.34375,-0.0937 z m -77.40625,3.34375 0.6875,0.0937 c -12.62603,10.20874 -29.98727,30.31203 -38.96875,42.25 -1.94729,0.5397 -2.28708,-0.81927 -1.75,-1.84375 4.04562,-7.3102 28.80799,-31.56518 40.03125,-40.5 z m 79.3125,0.28125 c 0.14207,-0.0158 0.29745,1.8e-4 0.4375,0.0312 1.12042,0.24855 1.69602,1.974 1.28125,3.84375 -0.41477,1.86975 -1.66083,3.18605 -2.78125,2.9375 -1.12042,-0.24855 -1.69602,-1.974 -1.28125,-3.84375 0.36293,-1.63603 1.34927,-2.85814 2.34375,-2.96875 z m 50.78125,7.46875 c -3.18251,0.35397 -6.36982,4.23316 -7.53125,9.46875 -1.32734,5.98354 0.47694,11.48586 4.0625,12.28125 3.58556,0.79539 7.57891,-3.42271 8.90625,-9.40625 1.32734,-5.98354 -0.50819,-11.45461 -4.09375,-12.25 -0.44819,-0.0994 -0.88911,-0.14432 -1.34375,-0.0937 z m -1.46875,2.875 c 0.14207,-0.0158 0.29745,1.8e-4 0.4375,0.0312 1.12042,0.24855 1.66477,1.974 1.25,3.84375 -0.41477,1.86975 -1.62958,3.18605 -2.75,2.9375 -1.12042,-0.24855 -1.69602,-1.974 -1.28125,-3.84375 0.36293,-1.63603 1.34927,-2.85814 2.34375,-2.96875 z M 752.5,516.2677 c 3.41132,0.009 6.35097,0.43751 8.96875,1.21875 5.23557,1.56248 9.27203,4.5205 13.40625,8.5 1.2913,1.24299 1.48332,2.04548 1.375,2.8125 -0.10832,0.76702 -0.71597,1.75481 -1.78125,2.8125 -4.61708,4.5842 -11.6158,12.27894 -16.90625,16.1875 -3.3537,2.47767 -7.61223,1.71938 -10,-2.65625 -3.4724,-6.36331 -9.81914,-19.85001 -9.875,-19.96875 -0.009,-0.0244 0.009,-0.0383 0,-0.0625 -4e-5,-10e-5 -0.0312,-0.0312 -0.0312,-0.0312 -0.87735,-2.38317 -0.72125,-3.79565 -0.15625,-4.84375 0.56124,-1.04111 1.72236,-1.89831 3.375,-2.65625 4.42597,-0.89833 8.27231,-1.32098 11.625,-1.3125 z m -32.71875,7.8125 c 1.05662,-0.0162 2.11503,-0.007 3.1875,0 3.72069,0.0242 7.54196,0.20099 11.40625,0.5 0.13097,0.54212 0.28285,1.08048 0.5,1.65625 a 1.50015,1.50015 0 0 0 0.0625,0.0937 c 0,0 6.39506,13.64381 10,20.25 3.10289,5.68609 9.72881,7.08063 14.40625,3.625 5.77197,-4.2643 12.75624,-12.00699 17.25,-16.46875 0.26818,-0.26627 0.50512,-0.52935 0.75,-0.8125 13.43341,4.2351 25.8784,9.85405 35.71875,16.59375 49.03957,46.1109 48.5664,141.8494 8.21875,182.59375 -0.27887,0.18713 -0.58928,0.34852 -0.875,0.53125 -7.14263,-4.23137 -15.49526,-6.93568 -23.21875,-7.0625 -1.42996,-0.0235 -2.84367,0.059 -4.21875,0.21875 -21.24091,0.0521 -35.66865,9.44192 -42.46875,19.65625 -13.56002,-0.49804 -26.63038,-2.12342 -37.34375,-4.5 -14.76294,-3.2749 -34.98194,-10.31141 -53.5,-19.40625 -2.4354,-10.48293 -9.4881,-22.1195 -23.09375,-31.40625 -5.57265,-4.81066 -13.43549,-7.91924 -21.5625,-9.1875 -6.12943,-57.26464 22.20306,-132.97193 84.09375,-154.75 6.29681,-1.31392 13.29116,-2.01188 20.6875,-2.125 z m 128.03125,0.15625 c 5.18247,12.86169 17.20912,32.00367 24.6875,42.28125 -0.0399,1.73403 -1.20714,1.68956 -1.90625,1 -4.93583,-5.09593 -18.5379,-31.35105 -23.03125,-42.75 l 0.25,-0.53125 z m -295.375,52.1875 c 2.5651,15.35034 13.03731,35.7428 22.53125,43.46875 -0.12797,1.72973 -1.33687,1.63038 -2,0.90625 -7.22235,-3.49583 -19.7046,-30.2071 -20.8125,-43.84375 l 0.28125,-0.53125 z m 378.03125,2.8125 c 6.11839,9e-5 11.66219,1.47506 16.75,4.4375 5.08791,2.96266 9.19183,7.06465 12.21875,12.28125 3.02699,5.15236 4.50004,10.72739 4.5,16.78125 4e-5,5.98958 -1.47301,11.56654 -4.5,16.71875 -3.02692,5.08793 -7.13084,9.16058 -12.21875,12.1875 -5.15223,3.027 -10.69601,4.53129 -16.75,4.53125 -6.05386,4e-5 -11.69141,-1.50425 -16.84375,-4.53125 -5.15218,-3.02692 -9.22486,-7.09957 -12.1875,-12.1875 -2.96245,-5.08781 -4.43738,-10.66476 -4.4375,-16.71875 1.2e-4,-6.11825 1.47505,-11.69328 4.4375,-16.78125 3.02706,-5.2166 7.09971,-9.31859 12.1875,-12.28125 5.08793,-2.96244 10.72548,-4.43741 16.84375,-4.4375 z M 842.0625,655.3302 c -5.67079,25.24455 -20.11497,57.50713 -28.8125,67 0.37558,2.55591 2.15497,2.27198 3.0625,1.125 8.59224,-7.25777 24.99879,-47.95624 26.25,-67.375 l -0.5,-0.75 z"
         style="fill:#000000;fill-opacity:1;stroke:none" />
      <g
         transform="matrix(2.2681355,0,0,2.2681355,-1116.2263,-1322.2108)"
         style="fill:#000000;fill-opacity:1;stroke:none"
         id="g3531">
        <g
           style="fill:#000000;fill-opacity:1;stroke:none"
           id="g3558">
          <path
             style="font-size:129.93023681999997621px;font-style:normal;font-weight:normal;line-height:125%;letter-spacing:0px;word-spacing:0px;fill:#000000;fill-opacity:1;stroke:none;font-family:Sans"
             d="m 911.93929,764.50872 c -2.74157,3e-5 -5.23385,0.45535 -7.44394,1.37851 -2.21003,0.95118 -4.15712,2.30918 -5.83568,4.04361 -1.65052,1.73451 -2.96754,3.8154 -3.97469,6.24923 -0.97911,2.48985 -1.57322,5.24972 -1.76909,8.27105 l -4.11255,-0.50546 0,-17.96654 -14.01482,0 0,29.0865 27.86883,3.72197 c -0.0279,-0.50356 -0.046,-1.34729 -0.046,-2.55023 3e-5,-10.74257 3.20225,-16.12851 9.58062,-16.12854 1.42677,3e-5 2.71284,0.33952 3.85981,1.0109 1.17499,0.69942 2.07265,1.68195 2.6881,2.94083 0.61547,1.23092 0.91902,2.6508 0.919,4.27336 2e-5,1.45473 -0.23663,2.94651 -0.71222,4.45719 -0.50354,1.59459 -1.38824,3.49276 -2.61917,5.67484 l 13.34853,0 c 1.28692,-2.26601 2.1845,-4.31596 2.68809,-6.13436 0.55954,-1.98625 0.85009,-4.10308 0.85009,-6.34113 0,-3.88856 -0.95158,-7.47421 -2.82598,-10.77533 -1.90227,-3.32904 -4.49241,-5.95512 -7.76555,-7.85749 -3.30108,-1.90229 -6.85076,-2.84888 -10.68343,-2.84891 z"
             id="path3263"
             inkscape:connector-curvature="0" />
          <path
             style="font-size:129.93023681999997621px;font-style:normal;font-weight:normal;line-height:125%;letter-spacing:0px;word-spacing:0px;fill:#000000;fill-opacity:1;stroke:none;font-family:Sans"
             d="m 875.93728,803.8487 0,15.32442 57.27695,0 0,-15.32442 -57.27695,0 z"
             id="path3265"
             inkscape:connector-curvature="0" />
          <path
             style="font-size:129.93023681999997621px;font-style:normal;font-weight:normal;line-height:125%;letter-spacing:0px;word-spacing:0px;fill:#000000;fill-opacity:1;stroke:none;font-family:Sans"
             d="m 895.92563,878.59778 c -3.74867,5e-5 -7.25443,0.94663 -10.49963,2.84892 -3.2451,1.93035 -5.83523,4.52047 -7.76558,7.76559 -1.90228,3.24518 -2.84886,6.78689 -2.84892,10.59153 6e-5,2.96542 0.55822,5.70731 1.67718,8.22509 1.14706,2.62971 2.68775,4.89332 4.618,6.82361 1.93035,1.93031 4.22991,3.47101 6.91551,4.618 2.68568,1.147 5.44556,1.72313 8.27104,1.72313 7.41352,0 13.50941,-3.48778 18.26521,-10.45367 l -12.13084,-8.47782 c -0.72735,1.42677 -1.60703,2.51214 -2.64215,3.23948 -0.97911,0.69942 -2.16734,1.05688 -3.53817,1.05686 -1.87431,2e-5 -3.46393,-0.661 -4.77883,-1.97585 -1.31479,-1.31483 -1.9758,-2.90445 -1.97586,-4.77883 6e-5,-1.23089 0.27264,-2.33426 0.80413,-3.28545 0.53158,-0.92316 1.29044,-1.68202 2.29751,-2.29751 1.03514,-0.55947 2.13849,-0.85004 3.28545,-0.85007 1.56666,3e-5 3.20521,0.57617 4.93966,1.72313 l 1.9299,1.26363 c 0.0839,0.0559 0.20478,0.12287 0.34463,0.20678 l 0.34463,0.25272 c 0.30775,0.16788 0.52642,0.31966 0.66628,0.4595 l 29.10945,20.31001 0,-38.80497 -14.01481,0 0,11.18887 -7.42096,-5.14642 c -3.44095,-2.37788 -6.30368,-4.00344 -8.56971,-4.87072 -2.34991,-0.89517 -4.76531,-1.35549 -7.28312,-1.35554 z"
             id="path3267"
             inkscape:connector-curvature="0" />
        </g>
      </g>
      <path
         inkscape:connector-curvature="0"
         id="text3475"
         d="m 789.38401,782.33261 c -6.58993,10e-5 -12.80769,1.1607 -18.64442,3.41999 -5.83679,2.25949 -10.89396,5.5044 -15.22445,9.92897 -4.3305,4.33059 -7.71812,9.68931 -10.25993,15.9967 -2.4477,6.30753 -3.75095,13.5432 -3.75095,21.73344 0,8.19035 1.16058,15.42599 3.41998,21.73345 2.25938,6.30748 5.4396,11.6662 9.48768,15.99669 4.14223,4.33052 9.05669,7.66958 14.89349,9.92899 5.83673,2.25938 12.35603,3.30966 19.41667,3.30966 7.6254,0 14.3521,-0.52514 20.18894,-1.65483 5.83669,-1.12972 10.01861,-2.14761 12.46638,-3.08902 l 0,-46.9972 -17.87216,0 0,35.08241 c -1.31804,0.37658 -3.03613,0.71047 -5.29546,0.9929 -2.25947,0.18825 -4.94692,0.33078 -8.05352,0.33078 -4.98956,0 -9.3627,-0.84286 -13.12831,-2.5374 -3.67156,-1.78866 -6.83559,-4.28488 -9.37738,-7.39156 -2.4477,-3.10665 -4.30848,-6.81199 -5.62642,-11.14254 -1.22384,-4.42461 -1.8755,-9.29053 -1.87548,-14.56251 -2e-5,-11.10863 2.67125,-19.71226 7.94319,-25.92568 5.36603,-6.30739 13.09443,-9.48761 23.16762,-9.48768 4.61289,7e-5 8.98604,0.65173 13.12833,1.87546 4.23629,1.12978 7.7666,2.49776 10.59093,4.19224 l 5.40576,-14.5625 c -0.65905,-0.37649 -1.83583,-0.91778 -3.53029,-1.76515 -1.60051,-0.84717 -3.74662,-1.67386 -6.28836,-2.42709 -2.5419,-0.75304 -5.57943,-1.42085 -9.15673,-1.9858 -3.48329,-0.65889 -7.50637,-0.99278 -12.02511,-0.9929 z m -214.57635,2.20645 0,15.44507 30.11791,0 0,82.41057 17.87219,0 0,-82.41057 30.11791,0 0,-15.44507 -78.10801,0 z m 91.56729,0 0,97.85564 66.19322,0 0,-15.11413 -48.43137,0 0,-28.5734 40.04689,0 0,-14.89346 -40.04689,0 0,-24.16055 45.01138,0 0,-15.1141 -62.77323,0 z m 203.7648,0 c -3.29499,6.96655 -6.49138,14.02717 -9.59803,21.18182 -3.10671,7.15483 -6.2869,14.7082 -9.4877,22.61601 -3.10666,7.90792 -6.30306,16.30415 -9.598,25.15344 -3.29499,8.84929 -6.80908,18.45466 -10.4806,28.90437 l 18.53412,0 3.97157,-11.25285 c 1.41209,-3.85978 2.76393,-7.74015 4.08192,-11.69415 l 41.26044,0 c 1.3179,3.954 2.66974,7.8182 4.08192,11.58382 1.41205,3.76568 2.76388,7.50338 4.08192,11.36318 l 19.19602,0 c -3.67161,-10.44971 -7.20192,-20.05508 -10.59092,-28.90437 -3.29503,-8.84929 -6.50762,-17.24552 -9.70832,-25.15344 -3.10673,-7.90781 -6.27078,-15.46118 -9.37738,-22.61601 -3.10673,-7.15465 -6.3031,-14.21527 -9.59802,-21.18182 l -16.76894,0 z m 68.39966,0 0,97.85564 61.89069,0 0,-15.33477 -44.12885,0 0,-82.52087 -17.76184,0 z m -60.34615,18.97538 c 2.07104,4.80128 4.45698,10.844 7.28124,18.09282 2.82419,7.24894 5.81318,15.00973 8.82577,23.38827 l -32.21404,0 c 3.0125,-8.37854 5.875,-16.12316 8.60513,-23.27794 2.82421,-7.1547 5.33658,-13.21359 7.5019,-18.20315 z"
         style="font-size:40px;font-style:normal;font-weight:normal;line-height:125%;letter-spacing:0px;word-spacing:0px;fill:#000000;fill-opacity:1;stroke:none;font-family:Sans" />
    </g>
  </g>
</svg>
