<?xml version="1.0" encoding="UTF-8" standalone="no"?>
<!-- Created with Inkscape (http://www.inkscape.org/) -->

<svg
   xmlns:dc="http://purl.org/dc/elements/1.1/"
   xmlns:cc="http://creativecommons.org/ns#"
   xmlns:rdf="http://www.w3.org/1999/02/22-rdf-syntax-ns#"
   xmlns:svg="http://www.w3.org/2000/svg"
   xmlns="http://www.w3.org/2000/svg"
   xmlns:sodipodi="http://sodipodi.sourceforge.net/DTD/sodipodi-0.dtd"
   xmlns:inkscape="http://www.inkscape.org/namespaces/inkscape"
   width="210mm"
   height="297mm"
   viewBox="0 0 744.09448819 1052.3622047"
   id="svg2"
   version="1.1"
   inkscape:version="0.91 r13725"
   sodipodi:docname="poster.svg"
   inkscape:export-filename="/home/ars/git/GLiB/Kesenian/Kegiatan/2017-06-11-glibuburit/poster.png"
   inkscape:export-xdpi="250"
   inkscape:export-ydpi="250">
  <defs
     id="defs4" />
  <sodipodi:namedview
     id="base"
     pagecolor="#ffffff"
     bordercolor="#666666"
     borderopacity="1.0"
     inkscape:pageopacity="0.0"
     inkscape:pageshadow="2"
     inkscape:zoom="0.9899495"
     inkscape:cx="351.60507"
     inkscape:cy="219.4099"
     inkscape:document-units="px"
     inkscape:current-layer="layer1"
     showgrid="false"
     inkscape:window-width="1366"
     inkscape:window-height="724"
     inkscape:window-x="0"
     inkscape:window-y="0"
     inkscape:window-maximized="1"
     inkscape:snap-page="true"
     inkscape:snap-intersection-paths="true"
     inkscape:snap-bbox="true"
     inkscape:bbox-nodes="true"
     showguides="true"
     inkscape:guide-bbox="true"
     inkscape:snap-global="true"
     inkscape:snap-bbox-edge-midpoints="true"
     inkscape:bbox-paths="true"
     inkscape:snap-midpoints="true">
    <sodipodi:guide
       position="0,967.14288"
       orientation="1,0"
       id="guide4243" />
    <sodipodi:guide
       position="221.42857,1052.3622"
       orientation="0,1"
       id="guide4245" />
    <sodipodi:guide
       position="744.09449,868.7891"
       orientation="1,0"
       id="guide4247" />
    <sodipodi:guide
       position="461.42857,0"
       orientation="0,1"
       id="guide4249" />
  </sodipodi:namedview>
  <metadata
     id="metadata7">
    <rdf:RDF>
      <cc:Work
         rdf:about="">
        <dc:format>image/svg+xml</dc:format>
        <dc:type
           rdf:resource="http://purl.org/dc/dcmitype/StillImage" />
        <dc:title />
      </cc:Work>
    </rdf:RDF>
  </metadata>
  <g
     inkscape:groupmode="layer"
     id="layer2"
     inkscape:label="bg"
     style="display:inline">
    <rect
       style="color:#000000;clip-rule:nonzero;display:inline;overflow:visible;visibility:visible;opacity:1;isolation:auto;mix-blend-mode:normal;color-interpolation:sRGB;color-interpolation-filters:linearRGB;solid-color:#000000;solid-opacity:1;fill:#2c3f46;fill-opacity:1;fill-rule:nonzero;stroke:none;stroke-width:5;stroke-linecap:square;stroke-linejoin:miter;stroke-miterlimit:4;stroke-dasharray:none;stroke-dashoffset:0;stroke-opacity:1;color-rendering:auto;image-rendering:auto;shape-rendering:auto;text-rendering:auto;enable-background:accumulate"
       id="rect4241"
       width="744.09448"
       height="1052.3622"
       x="2.8835507e-06"
       y="1.1053611e-05"
       rx="0.044470299"
       ry="0.036758602" />
    <rect
       style="color:#000000;clip-rule:nonzero;display:inline;overflow:visible;visibility:visible;opacity:1;isolation:auto;mix-blend-mode:normal;color-interpolation:sRGB;color-interpolation-filters:linearRGB;solid-color:#000000;solid-opacity:1;fill:#7cb6ae;fill-opacity:1;fill-rule:nonzero;stroke:none;stroke-width:5;stroke-linecap:square;stroke-linejoin:miter;stroke-miterlimit:4;stroke-dasharray:none;stroke-dashoffset:0;stroke-opacity:1;color-rendering:auto;image-rendering:auto;shape-rendering:auto;text-rendering:auto;enable-background:accumulate"
       id="rect3366"
       width="744.09448"
       height="399.41498"
       x="0"
       y="4.7244093e-06"
       rx="0.044470299"
       ry="0.03512539" />
    <path
       style="fill:#2c3f46;fill-opacity:1"
       d="m 93.073846,165.00222 c -0.347277,0 -0.312797,0.7358 0.07795,1.67013 1.069119,2.55603 0.05503,9.72003 -1.77463,12.53845 -1.370474,2.11107 -1.596772,3.40818 -1.596772,9.14588 0,5.74348 -0.191897,6.83889 -1.360447,7.77265 -1.795248,1.43453 -1.795248,6.13232 0,10.41808 0.964432,2.30237 1.360447,4.90984 1.360447,8.9603 0,6.13927 -0.681355,7.80185 -3.196894,7.80185 -1.521162,0 -1.564416,0.22523 -1.564416,8.16084 0,6.19247 0.246304,8.42235 1.02045,9.24444 0.83474,0.88641 1.019957,3.81424 1.019957,16.10505 0,14.28965 -0.0659,15.04355 -1.359952,15.47652 -1.242372,0.41569 -1.360456,1.1874 -1.360456,8.89642 0,7.73397 0.142457,8.65742 1.700451,11.02652 1.476871,2.24574 1.700413,3.42797 1.700413,8.99439 0,3.52487 -0.28952,6.63715 -0.642883,6.91658 -0.353412,0.27946 -2.151002,-0.67913 -3.994791,-2.13073 -1.843828,-1.45156 -6.490611,-4.39534 -10.326277,-6.5418 -7.875215,-4.40687 -16.713003,-11.61812 -20.712447,-16.90025 -1.478718,-1.95298 -2.982936,-3.55077 -3.34285,-3.55077 -0.359933,0 -2.566559,2.34963 -4.903975,5.22152 -2.337425,2.87188 -4.582642,5.22151 -4.9891,5.22151 -1.19813,0 -0.853194,-6.05201 0.735625,-12.91081 1.602888,-6.91945 1.349924,-7.93353 -1.984814,-7.9625 l -1.530182,-0.0134 0,-19.20377 0,-19.20377 1.761766,-2.95512 c 4.102284,-6.8817 2.275509,-15.29259 -5.475525,-25.21018 -3.73918,-4.7843 -4.425118,-6.09761 -4.005264,-7.67347 0.278671,-1.04572 0.405509,-2.29334 0.281517,-2.77198 -0.840045,-3.24193 -1.182797,-8.04159 -0.662879,-9.2846 0.470864,-1.12572 0.284559,-1.61171 -0.783661,-2.04552 -0.770678,-0.31298 -1.733331,-1.50228 -2.139334,-2.64239 -0.405973,-1.14008 -0.999654,-1.8661 -1.31906,-1.61355 -0.969984,0.76707 -0.6537,3.00882 0.745119,5.28418 0.95725,1.55708 1.168501,2.68304 0.761312,4.05333 -0.310079,1.04361 -0.594777,2.19303 -0.632903,2.55417 -0.03814,0.36111 -0.253794,1.5972 -0.479331,2.74706 -0.225567,1.1499 -0.08467,2.86936 0.313359,3.82091 0.629811,1.5058 0.231851,2.24795 -3.069928,5.72592 -9.254669,9.74856 -11.8796871,18.28175 -8.062792,26.21101 1.644442,3.41619 1.676097,3.83076 1.679506,22.23556 0.004,20.15438 -0.111603,20.84286 -3.493142,20.84286 -1.025371,0 -2.0304089,0.34295 -2.2329954,0.76237 -0.6112667,1.26549 2.9071974,13.34618 4.4079964,15.13521 2.050377,2.44414 1.567587,6.7945 -0.922482,8.31413 l -1.903957,1.16151 1.733707,3.78562 c 1.531556,3.34389 1.734211,4.75745 1.734211,12.11561 l 0,8.33058 -6.3257552,0 c -4.0128813,0 -6.6234949,0.38151 -7.14128827,1.04404 C 0.20541208,320.86466 0,331.14516 0,360.98556 l 4.8411294e-4,0 0,39.858 372.04700588706,0 372.04699,0 -0.17398,-75.93043 -0.17359,-75.93104 -5.61146,-0.25248 -5.61117,-0.25249 0,-34.26904 c 0,-18.848 -0.18564,-34.88878 -0.41268,-35.64588 -0.22704,-0.75711 -1.15268,-1.37686 -2.05708,-1.37686 -1.12828,0 -1.84754,-0.68241 -2.29104,-2.17512 -0.51988,-1.74966 -1.11337,-2.17574 -3.03095,-2.17574 -2.04839,0 -2.44249,-0.33759 -2.79461,-2.39356 -0.22536,-1.31627 -0.52917,-2.88811 -0.67519,-3.49298 -0.20837,-0.86339 -5.06382,-1.05017 -22.55838,-0.87006 l -22.2926,0.2294 -0.17783,4.35145 c -0.29249,7.1611 -0.60028,8.0253 -3.04711,8.55631 -1.219,0.26456 -3.44043,0.80405 -4.93678,1.19861 l -2.72041,0.71732 -0.34048,40.45246 -0.33997,40.45308 -9.36145,0.24214 -9.36193,0.24217 -0.65813,-2.21649 -0.65857,-2.21652 -15.79564,0.23364 -15.79515,0.23363 -0.39801,2.17574 c -0.34594,1.89236 -0.8195,2.21048 -3.6372,2.44284 -2.28692,0.18859 -3.36757,0.70059 -3.67524,1.74071 -0.23972,0.81036 -0.83576,1.99103 -1.32432,2.62353 -0.68109,0.88181 -0.88826,6.00597 -0.88826,21.97392 l 0,20.82402 -25.02964,0 c -26.00838,0 -26.6616,0.089 -26.6616,3.6384 0,1.70224 -1.3847,2.30424 -6.1213,2.65943 l -3.06089,0.22937 -0.19352,9.38801 c -0.18691,9.07725 -0.24863,9.41509 -1.87019,10.20394 -1.6686,0.81174 -1.67714,0.87545 -1.67714,12.58587 0,9.7573 -0.17068,11.7707 -0.99669,11.7707 -0.79774,0 -1.03502,-1.7794 -1.1902,-8.9208 -0.18034,-8.29851 -0.30054,-8.98004 -1.72423,-9.77923 -1.49568,-0.83959 -1.53005,-1.17506 -1.52591,-14.7945 0.004,-12.44264 0.1491,-14.21506 1.35568,-16.54616 1.00761,-1.94674 1.35275,-4.08688 1.35615,-8.41394 0.005,-6.5132 -0.40599,-8.55571 -1.7204,-8.55571 -3.23383,0 -4.299,-10.91684 -1.67617,-17.17831 1.77721,-4.2427 1.77721,-9.04772 0,-11.10561 -1.15039,-1.33206 -1.35998,-2.68054 -1.35998,-8.7376 0,-6.58115 -0.13129,-7.27221 -1.61724,-8.51799 -1.24638,-1.04497 -1.7243,-2.45056 -2.08368,-6.1311 -0.70964,-7.26729 -2.05899,-7.80499 -2.17359,-0.86638 -0.0619,3.74907 -0.44845,6.12499 -1.16025,7.13134 -0.7515,1.06251 -1.12648,3.69145 -1.26725,8.88059 -0.18695,6.89117 -0.29967,7.38915 -1.73038,7.64914 -1.38402,0.25151 -1.53023,0.75548 -1.53023,5.27263 0,3.04443 0.38994,5.65448 0.9986,6.68416 0.68561,1.15983 1.00514,3.93972 1.01999,8.86903 0.0198,6.50711 -0.1005,7.17945 -1.28296,7.17945 -3.19,0 -3.4565,0.6676 -3.4565,8.66097 0,6.49916 0.19785,7.83309 1.36046,9.17933 1.20801,1.39883 1.36041,2.68083 1.36041,11.44875 0,5.43026 -0.24071,9.87295 -0.53493,9.87295 -0.29425,0 -1.67575,-1.95478 -3.06993,-4.34416 -1.39414,-2.38941 -5.36172,-7.23657 -8.81697,-10.77161 -8.71674,-8.91794 -9.08972,-9.54436 -9.65151,-16.20545 -0.46066,-5.46187 -1.2249,-7.84078 -2.51929,-7.84078 -0.37361,0 -0.37444,0.60676 -0.002,1.5229 0.34022,0.83763 0.46465,3.79493 0.27674,6.57161 -0.39503,5.83728 -1.22568,7.15857 -9.66817,15.38165 -5.0682,4.93648 -11.58397,13.32282 -11.58397,14.90949 0,0.42687 -0.30592,0.77635 -0.68,0.77635 -0.41966,0 -0.68046,-4.47278 -0.68046,-11.67755 0,-6.42256 -0.18566,-12.29666 -0.41274,-13.0538 -0.35297,-1.17696 -2.01266,-1.37686 -11.44421,-1.37686 -14.43011,0 -13.80057,-0.71318 -14.20788,16.10446 -0.38979,16.0937 -0.96363,19.78026 -3.18168,20.44494 -1.63402,0.4897 -1.71361,0.83065 -2.04041,8.7407 l -0.34,8.2314 -3.90349,0.261 -3.90304,0.2604 -0.17782,-35.50657 -0.17739,-35.50595 -14.28347,0 -14.28304,0 -0.21779,1.95973 c -0.11963,1.07803 -0.80815,2.36459 -1.53019,2.85902 -1.25478,0.85925 -1.31289,2.12375 -1.31289,28.62341 0,23.83924 -0.14291,27.79486 -1.02,28.22556 -0.60627,0.2977 -2.46871,-1.0042 -4.59108,-3.21008 -5.03574,-5.23381 -4.86024,-5.16942 -8.27251,-3.04823 -3.32554,2.06731 -4.5867,1.6633 -3.26441,-1.04588 1.38136,-2.83017 1.01904,-4.23301 -1.04613,-4.05211 l -1.87019,0.16367 -0.1964,-8.65914 c -0.10796,-4.76234 0.10229,-9.65735 0.46744,-10.87805 1.65041,-5.51752 1.60012,-7.69774 -0.22493,-9.72813 -1.46156,-1.62601 -1.74656,-2.69008 -1.74656,-6.52112 0,-2.51797 0.30591,-4.82047 0.68,-5.11628 1.26284,-0.99865 0.77277,-6.5871 -0.71281,-8.12797 -0.83319,-0.86424 -1.86242,-3.82615 -2.56112,-7.37047 -0.64248,-3.25915 -1.45912,-5.9308 -1.81505,-5.93765 -0.35591,-0.007 -1.34834,2.64769 -2.20543,5.89871 -0.98232,3.72597 -2.2226,6.5885 -3.35522,7.74407 -1.50703,1.53757 -1.71395,2.24355 -1.28198,4.37821 0.28328,1.39982 0.66466,4.85003 0.84736,7.66739 0.31256,4.81941 0.21755,5.23943 -1.60343,7.09914 -1.85529,1.89472 -1.89694,2.09733 -1.00572,4.88567 0.51894,1.62358 1.07991,7.57438 1.26964,13.46751 0.32046,9.95286 0.25217,10.71055 -1.19497,13.21504 -1.27648,2.2091 -1.4556,3.29018 -1.0623,6.41221 1.24791,9.90619 1.25439,11.67209 0.0499,13.21319 -0.64761,0.8286 -1.67561,1.3842 -2.28485,1.2345 -0.9601,-0.2358 -1.13274,-2.1599 -1.29484,-14.43856 -0.15217,-11.52706 -0.37386,-14.25802 -1.19019,-14.65884 -1.40077,-0.6878 -1.38765,-9.25849 0.0166,-10.74968 1.36668,-1.45128 1.28644,-3.42155 -0.2287,-5.60056 -0.68711,-0.98816 -1.80653,-5.12548 -2.48743,-9.19395 -1.46734,-8.76766 -2.93332,-11.8391 -2.84215,-5.95528 0.078,5.0318 -1.91141,13.67414 -3.61534,15.70531 -1.70091,2.02759 -1.70174,2.52679 -0.008,5.28176 1.63913,2.66628 1.83729,8.61574 0.33999,10.20574 -0.80531,0.85517 -1.02045,3.33025 -1.02045,11.74874 0,8.41842 -0.21466,10.89352 -1.01997,11.74872 -0.56113,0.5958 -1.02045,2.1393 -1.02045,3.4303 0,2.8311 -2.77733,6.2009 -5.74707,6.9726 -1.97344,0.5128 -2.08461,0.7704 -2.28391,5.2933 -0.16453,3.7344 -0.59622,5.272 -2.01093,7.1654 -1.23655,1.6549 -1.91686,3.7013 -2.17074,6.5272 -0.36245,4.0341 -0.4174,4.116 -2.75036,4.116 l -2.3809,0 -0.18973,-11.5783 c -0.17281,-10.528 -0.0649,-11.7826 1.19022,-13.8241 1.19516,-1.9441 1.38041,-3.5171 1.38041,-11.728 0,-8.23707 -0.15678,-9.55705 -1.1907,-10.04514 -0.65465,-0.30905 -1.41467,-0.98195 -1.68949,-1.49551 -0.27485,-0.51357 -0.50487,-6.24235 -0.51023,-12.73073 -0.01,-11.22741 0.0717,-11.93925 1.68998,-14.74581 1.46804,-2.54601 1.70044,-3.86755 1.70044,-9.67097 0,-7.71774 -0.36668,-9.47502 -1.97719,-9.47502 -2.05348,0 -2.78415,-1.95547 -2.78415,-7.45383 0,-4.04753 0.33423,-5.90868 1.36046,-7.57796 1.89154,-3.07686 1.89154,-9.76694 0,-11.27841 -1.18952,-0.95049 -1.36046,-2.02902 -1.36046,-8.59218 0,-6.2401 -0.23391,-7.88705 -1.38895,-9.76585 -0.76409,-1.24292 -1.57173,-4.2295 -1.7946,-6.63732 -0.22288,-2.40782 -0.82972,-4.8286 -1.34807,-5.3791 -1.23882,-1.3155 -2.01228,-0.27735 -0.97958,1.31481 0.97685,1.50601 -0.21135,8.6092 -1.70566,10.19599 -0.66718,0.70851 -0.94485,3.1239 -0.94485,8.22289 0,7.93245 -0.35806,9.97272 -1.74943,9.97272 -2.46835,0 -3.03592,6.60389 -0.94055,10.94194 1.13408,2.34789 1.3538,4.05256 1.1902,9.2341 -0.19921,6.30944 -0.21525,6.35845 -2.24109,6.80282 l -2.04043,0.4478 -0.19402,7.91076 c -0.15394,6.27112 0.0224,8.1414 0.85023,9.02052 0.86327,0.91672 1.04423,3.64568 1.04423,15.73818 0,13.86497 -0.0712,14.6579 -1.36045,15.18147 -1.24129,0.50409 -1.36045,1.31723 -1.36045,9.28883 0,8.0754 0.13036,8.9335 1.72041,11.3514 1.66795,2.5363 1.71425,2.9495 1.53022,13.6148 l -0.18974,10.9991 -5.28154,0.2544 c -6.24912,0.301 -6.74352,-0.3607 -4.89589,-6.551 0.66569,-2.2303 0.93265,-4.1799 0.59297,-4.3326 -2.31641,-1.041 -2.42331,-1.6545 -1.27248,-7.2987 2.63395,-12.9182 0.11674,-24.83103 -7.03619,-33.3022 -2.07465,-2.45698 -6.11859,-7.40763 -8.98674,-11.00157 l -5.21449,-6.53451 -0.37423,-5.96015 c -0.21315,-3.39784 -0.78917,-6.49227 -1.33951,-7.19645 -0.83389,-1.06694 -0.951,-0.3245 -0.86165,5.44481 0.0977,6.30891 -0.0131,6.84945 -1.9943,9.73663 -1.15374,1.68134 -5.00695,6.16833 -8.56258,9.97089 -9.32554,9.97317 -13.05739,16.38744 -14.02148,24.10165 -0.40722,3.2584 -0.62252,3.5816 -2.22827,3.3433 -1.64494,-0.2443 -1.79338,-0.6197 -1.98859,-5.0311 -0.23633,-5.3407 -0.75734,-6.07865 -4.3072,-6.09766 -1.62493,-0.009 -2.61994,-0.48689 -2.89067,-1.38963 -0.58358,-1.94585 -0.49465,-15.38716 0.10985,-16.60276 0.27607,-0.55511 1.41918,-1.14282 2.5402,-1.30568 1.88596,-0.27394 2.03805,-0.55614 2.03805,-3.77711 l 0,-3.48083 -4.19499,-0.43562 c -2.30728,-0.23934 -4.42348,-0.72807 -4.70283,-1.08604 -0.27937,-0.35799 0.29106,-2.70762 1.26771,-5.22151 3.42881,-8.82586 3.05333,-15.01287 -1.31669,-21.69589 -5.36003,-8.19709 -5.77839,-9.18027 -6.11702,-14.38016 -0.23296,-3.57731 -0.73895,-5.55175 -1.73893,-6.78578 -1.41043,-1.74052 -1.41033,-1.74052 -0.87734,0 0.6079,1.98516 0.61956,2.88774 0.10746,8.10667 -0.28979,2.9534 -1.19818,4.99846 -4.25347,9.57299 -2.13693,3.19944 -4.33319,7.18508 -4.88066,8.85685 -1.23874,3.78254 -0.78586,10.29658 1.08368,15.5885 0.74487,2.10842 1.20132,4.34214 1.01475,4.96417 -0.21363,0.7124 -1.86386,1.22649 -4.45841,1.38842 -4.58542,0.28615 -5.77547,1.53411 -5.0395,5.28602 0.32037,1.63337 0.95605,2.32851 2.311,2.52801 l 1.86877,0.275 0.19304,9.93865 c 0.14333,7.36542 -0.0325,10.12188 -0.67996,10.64749 -1.08925,0.8843 -8.07663,0.9359 -9.14319,0.067 -0.43327,-0.35274 -0.93807,-3.3816 -1.12173,-6.731 -0.5925,-10.80391 -1.38239,-14.13132 -4.24732,-17.88532 -3.25632,-4.26691 -4.98966,-4.34407 -8.1037,-0.35958 -1.79269,2.29377 -2.40325,3.81468 -2.40325,5.98568 0,3.62102 -1.28979,5.0638 -4.20641,4.70559 -2.07261,-0.25454 -2.27224,-0.54285 -2.46743,-3.56781 -0.16241,-2.51648 0.19811,-3.91499 1.53068,-5.9413 1.43838,-2.1872 1.74276,-3.54453 1.74276,-7.77387 0,-4.23351 -0.23659,-5.28606 -1.36045,-6.05565 -1.12945,-0.77343 -1.36044,-1.82227 -1.36044,-6.1798 0,-2.88649 -0.33448,-6.04768 -0.74323,-7.0249 -0.53744,-1.28493 -0.53744,-2.03986 0,-2.72755 0.79323,-1.01492 1.04706,-12.97841 0.29577,-13.93968 -0.24615,-0.31494 -0.82676,-0.16944 -1.29056,0.32307 -0.61258,0.6505 -1.23477,0.25908 -2.27343,-1.43041 -1.26039,-2.05024 -1.42987,-3.48495 -1.42987,-12.11013 0,-6.72848 0.31887,-10.75988 1.02046,-12.90837 0.56113,-1.71834 1.01999,-4.83956 1.01999,-6.93543 0,-3.17745 -0.39546,-4.33127 -2.38044,-6.94643 -2.60162,-3.42756 -3.17296,-7.59472 -1.45411,-10.60242 0.50938,-0.89131 0.7942,-2.26633 0.63291,-3.05552 -0.16129,-0.7892 0.187,-1.94532 0.77414,-2.56878 1.66782,-1.77106 1.26238,-6.3663 -1.05186,-11.92761 -1.48391,-3.56594 -2.20568,-6.65766 -2.40799,-10.31406 -0.2126,-3.84243 -0.66571,-5.6814 -1.71614,-6.96222 -1.42742,-1.74052 -1.42742,-1.74052 -0.89443,0 0.29316,0.95728 0.50078,2.42598 0.46124,3.26361 -0.0395,0.83763 -0.1256,3.15116 -0.19116,5.1412 -0.0673,2.04021 -0.96881,5.68421 -2.06706,8.35554 -2.14402,5.21509 -2.55806,10.66195 -0.94103,12.37905 0.55366,0.58796 1.00826,1.90875 1.01093,2.93503 0.002,1.02625 0.19507,3.33361 0.42796,5.12722 0.64038,4.93152 -0.13371,7.58646 -2.5221,8.65181 l -2.06898,0.92299 0.42273,6.20047 c 0.23238,3.41049 0.57951,11.47211 0.77129,17.9145 0.37822,12.70475 -0.20741,16.17489 -2.56825,15.21618 -1.12612,-0.45734 -1.2411,0.10108 -1.2411,6.0301 0,3.59385 0.30679,6.77697 0.68189,7.07356 0.45589,0.36052 0.45589,1.08034 0,2.17026 -0.3751,0.89679 -0.68189,4.1881 -0.68189,7.31389 0,4.79265 -0.21334,5.82931 -1.36044,6.61483 -2.14913,1.47165 -1.93608,9.75158 0.33999,13.2126 2.01342,3.06163 2.38689,8.89093 0.62482,9.7561 -1.98037,0.9724 -8.93602,0.56749 -9.61775,-0.55976 -0.36183,-0.59832 -1.19454,-4.34347 -1.85022,-8.32267 -1.09283,-6.6322 -1.10164,-7.3628 -0.10557,-8.77106 1.44603,-2.0445 1.37066,-3.27704 -0.23299,-3.81362 -1.17585,-0.39344 -1.23954,-0.7739 -0.5863,-3.49725 0.42754,-1.78245 1.40241,-3.44616 2.33951,-3.99249 1.85547,-1.08171 2.17975,-4.504 0.58679,-6.19559 -0.67776,-0.71969 -1.03044,-2.72743 -1.0504,-5.98086 -0.0545,-8.94862 -2.59789,-14.52969 -10.15699,-22.28727 -2.31738,-2.37825 -6.00288,-7.02405 -8.19025,-10.32439 -3.68699,-5.56299 -4.01099,-6.4037 -4.43989,-11.52784 -0.25445,-3.04003 -0.89408,-5.98628 -1.42178,-6.54666 -1.26311,-1.34132 -2.03285,-0.30005 -0.97909,1.32453 0.60067,0.92607 0.63788,2.12029 0.1379,4.43727 -0.37628,1.74361 -0.53204,3.67749 -0.34615,4.29731 0.36439,1.215 -3.91001,7.02771 -13.808,18.77787 -7.19154,8.5373 -10.41614,15.56911 -10.41614,22.71924 0,2.51732 -0.38319,4.4336 -1.02094,5.1108 -1.6256,1.72626 -1.21115,3.44716 1.70045,7.06259 2.8238,3.50638 3.47636,6.30434 1.67665,7.18798 -0.92767,0.45547 -0.91856,0.75729 0.0832,2.71357 1.1918,2.32733 0.95559,6.61891 -0.48693,8.84287 -1.31043,2.02033 -1.95339,1.29079 -1.95339,-2.21711 0,-3.82045 -0.67605,-4.44453 -4.81649,-4.44453 l -2.66478,0 0,-11.84001 c 0,-11.36022 0.0691,-11.94565 1.70044,-14.42639 1.55116,-2.35873 1.69996,-3.30735 1.69996,-10.80809 0,-7.96966 -0.0519,-8.24737 -1.69996,-9.04915 l -1.70044,-0.82745 0,-14.70932 c 0,-12.0134 0.18674,-14.90809 1.01997,-15.79291 0.7651,-0.81246 1.02045,-2.99422 1.02045,-8.72424 l 0,-7.64061 -2.04042,-0.91022 c -2.033628,-0.90716 -2.040445,-0.93202 -2.040445,-7.75076 0,-4.66782 0.317232,-7.37806 0.998595,-8.53073 0.56006,-0.94744 1.00779,-3.60325 1.01996,-6.04836 0.0171,-3.43569 -0.26652,-4.59001 -1.338554,-5.44664 -1.183578,-0.94576 -1.360456,-2.02968 -1.360456,-8.34214 0,-6.01164 -0.220479,-7.51027 -1.286752,-8.74493 -0.818645,-0.94796 -1.461241,-3.29258 -1.766054,-6.44445 -0.47035,-4.86324 -1.263525,-7.12954 -2.495503,-7.12954 z"
       id="path3419"
       inkscape:connector-curvature="0" />
    <path
       style="color:#000000;clip-rule:nonzero;display:inline;overflow:visible;visibility:visible;opacity:1;isolation:auto;mix-blend-mode:normal;color-interpolation:sRGB;color-interpolation-filters:linearRGB;solid-color:#000000;solid-opacity:1;fill:#a3ccc7;fill-opacity:1;fill-rule:nonzero;stroke:none;stroke-width:5;stroke-linecap:square;stroke-linejoin:miter;stroke-miterlimit:4;stroke-dasharray:none;stroke-dashoffset:0;stroke-opacity:1;color-rendering:auto;image-rendering:auto;shape-rendering:auto;text-rendering:auto;enable-background:accumulate"
       d="M 4.0742188,0 A 78.791901,57.578693 0 0 0 0,4.6035156 L 0,77.345703 a 45.456863,45.456863 0 0 0 38.75,21.804688 45.456863,45.456863 0 0 0 1.367188,-0.04883 45.456863,45.456863 0 0 0 39.039062,22.273439 45.456863,45.456863 0 0 0 35.63086,-17.30859 78.791901,57.578693 0 0 0 56.29297,17.30859 78.791901,57.578693 0 0 0 56.00781,-17.14648 78.791901,57.578693 0 0 0 53.08984,15.125 78.791901,57.578693 0 0 0 78.79102,-57.57813 78.791901,57.578693 0 0 0 -0.63477,-6.710938 A 54.548241,39.862171 0 0 0 371.0918,29.451172 54.548241,39.862171 0 0 0 353.2168,0 L 4.0742188,0 Z"
       id="path4273"
       inkscape:connector-curvature="0" />
    <path
       style="fill:none;stroke:#4e707c;stroke-width:1px;stroke-linecap:butt;stroke-linejoin:miter;stroke-opacity:1"
       d="m 70.011632,885.59728 604.071228,0"
       id="path4539"
       inkscape:connector-curvature="0" />
  </g>
  <g
     inkscape:label="Layer 1"
     inkscape:groupmode="layer"
     id="layer1"
     style="display:inline">
    <g
       id="g4280"
       transform="matrix(0.86514541,0,0,0.86514541,-67.681091,-8.9859643)">
      <g
         transform="matrix(0.60678795,0,0,0.60678795,87.127068,-88.705655)"
         id="g6747"
         style="display:inline">
        <path
           style="fill:#8c8c8c"
           d="m 117.8829,189.86093 c 0.47439,1.73773 0.93917,3.61297 1.28797,5.54005 0.0127,0.0702 0.0229,0.14144 0.0353,0.21172 0.0174,0.1115 0.0361,0.22362 0.0529,0.33522 0.25848,1.71551 0.42728,3.44084 0.5293,5.1519 0.002,0.0643 0.016,0.12989 0.0177,0.19407 0.002,0.0173 -0.002,0.0357 0,0.0529 0.008,0.14758 0.0106,0.29378 0.0177,0.44109 0.0153,0.32317 0.0432,0.64881 0.0529,0.97039 0.004,0.12377 -0.003,0.24701 0,0.37051 0.0108,0.46163 0.0188,0.91904 0.0177,1.37619 -10e-4,0.52161 -0.019,1.03842 -0.0353,1.55263 -0.002,0.0582 0.002,0.11837 0,0.17643 -0.016,0.45438 -0.0426,0.91136 -0.0706,1.35855 -0.0285,0.45474 -0.0473,0.91247 -0.0882,1.35854 -0.0125,0.13648 -0.0392,0.27021 -0.0529,0.4058 -0.0184,0.18277 -0.0323,0.36586 -0.0529,0.54695 -0.0247,0.21777 -0.0605,0.43761 -0.0882,0.65281 -0.0227,0.17583 -0.0458,0.35527 -0.0706,0.5293 -0.0427,0.30063 -0.0923,0.60493 -0.14115,0.89982 -0.0136,0.082 -0.0212,0.16549 -0.0353,0.24701 -0.0659,0.38212 -0.13546,0.75783 -0.21172,1.12918 -0.72391,3.4098 -1.67767,9.05643 -5.83998,10.67428 -0.13837,-0.006 -0.27089,-0.005 -0.4058,0 -0.006,2e-4 -0.0119,-2e-4 -0.0177,0 -0.12895,0.005 -0.26257,0.0208 -0.38816,0.0353 -0.006,5.7e-4 -0.0119,-5.6e-4 -0.0177,0 -0.12523,0.0149 -0.24882,0.0289 -0.37051,0.0529 -0.006,0.001 -0.0119,-0.001 -0.0177,0 -0.12146,0.0244 -0.23513,0.0552 -0.35286,0.0882 -0.0121,0.003 -0.0232,0.0142 -0.0353,0.0177 -0.11059,0.032 -0.22812,0.0666 -0.33523,0.10587 -0.0121,0.005 -0.0232,0.0131 -0.0353,0.0177 -0.10629,0.0399 -0.21492,0.0767 -0.31759,0.1235 -0.12893,0.059 -0.24757,0.12478 -0.37051,0.19408 -0.0953,0.0535 -0.19074,0.0995 -0.28229,0.15879 -0.0176,0.0114 -0.0356,0.0237 -0.0529,0.0353 -0.19061,0.12676 -0.37391,0.27348 -0.54694,0.42344 -0.0187,0.0162 -0.0344,0.0364 -0.0529,0.0529 -0.16805,0.14968 -0.32665,0.30731 -0.47637,0.47638 -0.16701,0.18839 -0.31609,0.39091 -0.45873,0.59987 -0.13249,0.19409 -0.26043,0.39116 -0.37051,0.59988 -0.006,0.0119 -0.0115,0.0234 -0.0177,0.0353 -0.0918,0.17664 -0.17214,0.36197 -0.24701,0.54695 -0.0213,0.0529 -0.0507,0.10532 -0.0706,0.15879 -0.006,0.0173 -0.0113,0.0356 -0.0177,0.0529 -0.0554,0.15227 -0.0976,0.30249 -0.14115,0.45873 -0.0197,0.0709 -0.0357,0.14014 -0.0529,0.21172 -0.0129,0.0536 -0.0238,0.10482 -0.0353,0.15879 -0.0148,0.0692 -0.0229,0.14202 -0.0353,0.21172 -0.028,0.15722 -0.0549,0.31737 -0.0706,0.47638 -0.0157,0.15913 -0.0325,0.31636 -0.0353,0.47637 -10e-4,0.0651 -10e-4,0.12898 0,0.19408 2.6e-4,0.0177 -4.3e-4,0.0352 0,0.0529 0.003,0.14802 0.0203,0.29347 0.0353,0.44108 0.0121,0.11807 0.0157,0.23549 0.0353,0.35287 0.0371,0.22342 0.0936,0.45143 0.15879,0.67045 0.0222,0.0746 0.0451,0.1555 0.0706,0.22937 0.0164,0.0474 0.0351,0.0941 0.0529,0.14115 0.002,0.005 -0.002,0.0126 0,0.0177 0.0446,0.11674 0.10555,0.22079 0.15879,0.33522 0.0363,0.0781 0.0654,0.15254 0.10586,0.22937 0.0223,0.0423 0.047,0.0816 0.0706,0.1235 0.0436,0.0778 0.0931,0.15305 0.14115,0.22937 0.0248,0.0395 0.0446,0.0844 0.0706,0.1235 -0.0336,0.15688 -0.0813,0.30613 -0.12351,0.45873 -0.0418,0.0358 -0.0824,0.0683 -0.1235,0.10586 -0.0869,0.0792 -0.16347,0.16048 -0.24701,0.24701 -0.0465,0.0481 -0.0958,0.0909 -0.14115,0.14115 -0.0762,0.0842 -0.1566,0.17482 -0.22936,0.26465 -0.0468,0.0578 -0.0959,0.11644 -0.14115,0.17643 -0.0646,0.0856 -0.11515,0.17492 -0.17644,0.26466 -0.0487,0.0713 -0.0947,0.13804 -0.14114,0.21172 -0.0549,0.0869 -0.10719,0.17469 -0.15879,0.26465 -0.0472,0.0823 -0.0969,0.16233 -0.14115,0.24701 -0.0448,0.0855 -0.0818,0.17699 -0.12351,0.26465 -0.0819,0.17273 -0.16044,0.34944 -0.22936,0.5293 -0.0408,0.1065 -0.0876,0.20907 -0.12351,0.31759 -0.0135,0.0405 -0.0225,0.0827 -0.0353,0.1235 -0.0474,0.15209 -0.0864,0.30384 -0.12351,0.45873 -0.017,0.0705 -0.0381,0.14073 -0.0529,0.21172 -0.0264,0.12749 -0.0517,0.25968 -0.0706,0.38816 -0.009,0.0591 -0.0106,0.11719 -0.0177,0.17643 -0.003,0.0233 0.002,0.0472 0,0.0706 -0.0184,0.17074 -0.0313,0.3409 -0.0353,0.51166 -0.003,0.14711 -0.008,0.29483 0,0.44109 0.01,0.18451 0.0419,0.36522 0.0706,0.54695 0.002,0.0117 -0.002,0.0236 0,0.0353 0.006,0.0351 0.0111,0.0709 0.0177,0.10586 0.0299,0.15971 0.0601,0.32036 0.10587,0.47637 0.0559,0.19269 0.13043,0.37937 0.21172,0.56459 0.007,0.0168 0.01,0.0362 0.0177,0.0529 0.15823,0.34867 0.36078,0.67748 0.61752,0.98803 0.10408,0.15135 0.0923,0.36927 -0.10586,0.49402 -0.31182,0.2046 -0.59712,0.44304 -0.84689,0.70574 -0.12488,0.13135 -0.24366,0.26235 -0.35287,0.4058 -0.2184,0.2869 -0.39193,0.6095 -0.54694,0.9351 -0.0775,0.1628 -0.15023,0.32397 -0.21173,0.49402 -0.43044,1.19036 -0.46441,2.52914 -0.0882,3.75806 0.0538,0.17555 0.10578,0.35942 0.17643,0.5293 0.0707,0.16988 0.15934,0.33143 0.24701,0.49402 0.0877,0.16258 0.17749,0.32269 0.2823,0.47637 0.25315,0.5315 -0.0143,1.60603 -0.86453,2.20543 -2.68512,2.5529 -1.44502,6.7791 1.30561,8.61001 0.56634,0.6219 -0.0305,3.34343 0,5.04602 -0.31927,2.93536 -0.46652,6.15741 -0.45873,9.84505 0.0212,10.00715 1.00977,13.57121 5.8047,20.9075 2.16933,3.31909 4.78489,5.73539 8.4865,7.81605 0.87522,0.49196 1.65092,0.98511 1.72906,1.11154 0.0391,0.0632 -0.022,0.39926 -0.15879,0.88217 -0.0684,0.24146 -0.16392,0.50897 -0.26465,0.8116 -0.10073,0.30263 -0.20989,0.63576 -0.33523,0.97039 -0.19859,0.53024 -0.38723,1.06527 -0.56459,1.58791 -0.006,0.0173 -0.0117,0.0356 -0.0177,0.0529 -0.17045,0.50403 -0.32899,0.9998 -0.47637,1.48205 -0.0106,0.0346 -0.0248,0.0714 -0.0353,0.10586 -0.13956,0.46042 -0.27282,0.9141 -0.38816,1.3409 -0.0122,0.0451 -0.0234,0.0966 -0.0353,0.14115 -0.10816,0.40643 -0.19938,0.80176 -0.2823,1.16447 -0.0883,0.3855 -0.15457,0.73497 -0.21172,1.0586 -0.003,0.0166 -0.0148,0.0365 -0.0177,0.0529 -0.0105,0.0601 -0.026,0.1364 -0.0353,0.19407 -0.0387,0.24886 -0.073,0.49194 -0.0882,0.6881 -0.004,0.0533 -0.0154,0.12731 -0.0177,0.17643 -0.002,0.0569 -2.4e-4,0.12568 0,0.17644 10e-5,0.0471 -0.002,0.0995 0,0.14115 0.003,0.0413 0.0125,0.088 0.0177,0.1235 0.01,0.0715 0.0334,0.12923 0.0529,0.17643 0.0233,0.0559 0.0509,0.0866 0.0882,0.10586 -0.007,0.012 -0.0105,0.0231 -0.0177,0.0353 0.34501,0.14492 8.54708,1.89052 10.44493,1.28797 0.0527,0.0102 0.0975,0.001 0.1235,-0.0177 0.001,-0.006 -0.001,-0.0119 0,-0.0177 0.0685,-0.32069 0.11894,-0.64133 0.1588,-0.97039 5.6e-4,-0.006 -5.7e-4,-0.0119 0,-0.0177 0.0394,-0.32929 0.0727,-0.66982 0.0882,-1.00568 2.7e-4,-0.006 -2.6e-4,-0.0118 0,-0.0177 0.0306,-0.67793 0.0198,-1.37064 -0.0177,-2.06428 -3.2e-4,-0.006 3.2e-4,-0.0119 0,-0.0177 -0.0763,-1.39907 -0.2558,-2.80849 -0.37051,-4.1815 -0.49165,-3.39334 -0.47368,-3.9366 0.0706,-4.11092 2.97017,-0.95132 7.43164,-4.26722 10.14499,-7.53376 2.01181,-2.42195 3.47333,-4.04278 3.31697,-4.19914 0.018,-0.0317 0.0524,-0.0642 0.0529,-0.0882 -1.54006,0.46568 -2.30786,0.62688 -4.5873,1.39384 -13.89048,4.60335 -20.20983,-3.46695 -18.5962,-20.13119 2.31523,-12.40875 7.79182,-26.01367 17.5376,-43.50876 1.45327,-2.60886 2.64651,-4.79593 2.64651,-4.8696 0,-0.0737 -0.83534,-0.75171 -1.85256,-1.51733 -3.89292,-2.93005 -5.37732,-5.83644 -6.31636,-12.29749 -1.10394,-7.0635 -5.42302,-19.93343 -13.8146,-23.14808 z m 16.09083,35.3222 c 1.7324,0 3.12289,1.40814 3.12289,3.14054 0,1.73239 -1.39049,3.14053 -3.12289,3.14053 -1.73239,0 -3.14053,-1.40814 -3.14053,-3.14053 0,-1.7324 1.40814,-3.14054 3.14053,-3.14054 z m -21.45444,1.3409 c 1.63702,0 2.9641,1.32708 2.9641,2.9641 0,1.63703 -1.32708,2.9641 -2.9641,2.9641 -1.63703,0 -2.9641,-1.32707 -2.9641,-2.9641 0,-1.63702 1.32707,-2.9641 2.9641,-2.9641 z m -1.4997,8.48651 c 1.63703,0 2.9641,1.32707 2.9641,2.9641 0,1.63703 -1.32707,2.9641 -2.9641,2.9641 -1.63703,0 -2.9641,-1.32707 -2.9641,-2.9641 0,-1.63703 1.32707,-2.9641 2.9641,-2.9641 z m -1.39383,8.4865 c 1.63703,0 2.9641,1.32708 2.9641,2.9641 0,1.63703 -1.32707,2.9641 -2.9641,2.9641 -1.63703,0 -2.9641,-1.32707 -2.9641,-2.9641 0,-1.63702 1.32707,-2.9641 2.9641,-2.9641 z m -1.30562,9.1746 c 1.63703,0 2.96411,1.32707 2.96411,2.9641 0,1.63703 -1.32708,2.9641 -2.96411,2.9641 -1.63703,0 -2.9641,-1.32707 -2.9641,-2.9641 0,-1.63703 1.32707,-2.9641 2.9641,-2.9641 z"
           id="path6351"
           inkscape:connector-curvature="0" />
        <path
           style="fill:#535353"
           d="m 118.7415,190.91954 c 0.012,0.0146 0.0239,0.0207 0.0353,0.0353 12.21044,16.70113 7.46106,37.16662 2.08193,54.92408 -5.39194,17.70558 -7.02507,25.58758 -7.03974,34.03423 -0.14139,7.76439 3.68598,18.09333 12.06812,18.1904 4.61224,-0.08 9.34902,-1.03627 14.07948,-2.85824 1.11255,-0.42851 2.77111,-1.28688 2.8406,-1.2174 0.15635,0.15636 -1.30517,1.77719 -3.31697,4.19914 -2.71336,3.26655 -7.17483,6.58244 -10.14499,7.53376 -0.54425,0.17432 -0.56222,0.71758 -0.0706,4.11093 0.22993,2.75199 0.70446,5.67713 0.14115,8.29242 -0.20761,0.15123 -1.31386,-0.69357 -2.62887,-1.53498 -1.31502,-0.8414 -2.49825,-1.5179 -2.62888,-1.51734 -0.13063,5.7e-4 -1.31263,0.39204 -2.62887,0.88218 -1.31625,0.49013 -2.49008,0.89981 -2.61124,0.89981 -0.66926,0 0.31487,-4.41592 1.95843,-8.80408 0.50134,-1.33854 0.83681,-2.53773 0.75867,-2.66416 -0.0781,-0.12644 -0.85384,-0.61958 -1.72906,-1.11154 -3.70162,-2.08067 -6.31717,-4.49696 -8.4865,-7.81605 -4.79493,-7.3363 -5.78353,-10.90035 -5.8047,-20.9075 -0.008,-3.68765 0.13946,-6.9097 0.45873,-9.84505 -0.0305,-1.7026 0.56633,-4.42412 0,-5.04603 -2.75063,-1.83091 -3.99073,-6.0571 -1.30562,-8.61 0.85026,-0.5994 1.11768,-1.67396 0.86453,-2.20546 -1.67688,-2.45882 -1.15365,-6.1616 1.3409,-7.79841 0.19821,-0.12475 0.20994,-0.34268 0.10586,-0.49402 -2.14663,-2.59662 -0.68295,-6.77407 1.55263,-8.41593 -2.68477,-3.60708 0.0482,-9.34004 4.56965,-9.13931 4.16232,-1.61786 5.11608,-7.26449 5.83999,-10.67429 1.21089,-5.89663 1.11274,-13.19951 -0.26465,-20.07825 -0.18234,-0.84314 -0.54847,-2.19558 -0.90419,-3.42476 z m -6.19285,35.19869 c -1.87089,0 -3.38755,1.51666 -3.38755,3.38755 0,1.87089 1.51666,3.38754 3.38755,3.38754 1.87089,0 3.38754,-1.51665 3.38754,-3.38754 0,-1.87089 -1.51665,-3.38755 -3.38754,-3.38755 z m -1.53498,8.48651 c -1.87089,0 -3.38755,1.51665 -3.38755,3.38754 0,1.87089 1.51666,3.38754 3.38755,3.38754 1.87089,0 3.38754,-1.51665 3.38754,-3.38754 0,-1.87089 -1.51665,-3.38754 -3.38754,-3.38754 z m -1.37619,8.52179 c -1.87089,0 -3.38755,1.51665 -3.38755,3.38754 0,1.87089 1.51666,3.38754 3.38755,3.38754 1.87089,0 3.38754,-1.51665 3.38754,-3.38754 0,-1.87089 -1.51665,-3.38754 -3.38754,-3.38754 z m -1.32326,9.15695 c -1.87089,0 -3.38755,1.51666 -3.38755,3.38754 0,1.87089 1.51666,3.38755 3.38755,3.38755 1.87089,0 3.38754,-1.51666 3.38754,-3.38755 0,-1.87088 -1.51665,-3.38754 -3.38754,-3.38754 z"
           id="path6353"
           inkscape:connector-curvature="0"
           sodipodi:nodetypes="sccccssssccscssssssscccccccccccsssssssssssssssssssss" />
        <path
           inkscape:connector-curvature="0"
           id="path6355"
           style="font-style:normal;font-variant:normal;font-weight:bold;font-stretch:normal;font-size:144.08859253px;line-height:125%;font-family:kabayan;-inkscape-font-specification:'kabayan Bold';letter-spacing:0px;word-spacing:0px;fill:#dc3535;fill-opacity:1;stroke:none"
           d="m 75.291757,308.26389 c -8.677464,-1.73549 -15.483831,-7.07754 -20.419115,-16.02616 -1.355859,-3.09132 -2.250718,-6.34536 -2.684589,-9.76213 -0.379636,-3.41672 -0.244056,-6.88769 0.406759,-10.41293 0.705039,-3.52518 1.952417,-6.69787 3.742147,-9.51808 2.548991,-4.50138 5.748797,-7.891 9.59943,-10.16888 3.850593,-2.33201 8.704536,-4.14885 14.561837,-5.45053 1.735461,-0.37958 3.118426,-0.54228 4.148906,-0.4881 1.030411,0.0543 1.979505,0.35258 2.847287,0.89486 0.921942,0.59663 1.545634,1.22032 1.871076,1.87107 0.325362,0.65087 0.271133,1.13897 -0.162704,1.46432 -0.271207,0.21699 -0.569497,0.46104 -0.894859,0.73216 -0.813547,0.37969 -2.1694,1.00338 -4.067554,1.87108 -1.843993,0.86779 -3.254075,1.57283 -4.230258,2.11513 -0.976239,0.48815 -2.196506,1.13896 -3.660794,1.95242 -1.464345,0.81356 -2.765964,1.6813 -3.904856,2.60324 -1.138937,0.92202 -2.223612,1.92535 -3.254041,3.00999 -2.494785,2.71174 -4.17604,6.20983 -5.043765,10.49429 -0.813524,4.23028 -0.94911,8.40629 -0.406759,12.52806 0.325391,2.33208 1.138904,4.60991 2.440534,6.83349 1.355836,2.22361 3.037085,3.76927 5.043764,4.63701 1.843937,0.92198 3.715013,1.46432 5.613228,1.62702 1.952394,0.10848 3.687884,-0.13558 5.206469,-0.73216 1.572752,-0.59656 3.009951,-1.43719 4.311604,-2.52188 1.301579,-1.08467 2.27779,-2.35917 2.928639,-3.8235 0.705004,-1.46431 1.138875,-3.00998 1.301618,-4.63702 0.162659,-1.68123 -0.135625,-3.41672 -0.894864,-5.20646 -1.247418,-1.51853 -3.443896,-2.71168 -6.589434,-3.57945 -3.145605,-0.92195 -5.3692,-0.92195 -6.670791,0 -0.650832,0.37966 -1.003351,1.30164 -1.057563,2.76594 -0.05426,1.2474 0.379614,2.11515 1.301619,2.60323 0.976183,0.48813 2.033746,0.62371 3.172689,0.40676 1.193121,-0.21692 2.196449,-0.62368 3.009991,-1.22027 0.813479,-0.48809 1.599869,-0.3525 2.359181,0.40676 0.813474,0.70506 1.220233,1.49145 1.220267,2.35918 -0.05426,1.2474 -0.623726,2.30496 -1.708372,3.17269 -1.03048,0.81353 -2.304981,1.38298 -3.823499,1.70837 -3.687945,0.59659 -6.779282,-0.8135 -9.274022,-4.23025 -2.169383,-3.03709 -2.982891,-6.15554 -2.440534,-9.35538 0.488089,-3.09131 2.223573,-4.9895 5.206469,-5.69457 8.894352,-0.27114 15.944768,2.27786 21.151277,7.647 2.169315,2.11515 3.498051,4.77262 3.986201,7.9724 0.488064,3.14559 0.0542,6.01999 -1.301612,8.62322 -2.386344,3.95909 -5.721737,7.24025 -10.006184,9.84348 -4.230292,2.65746 -8.541895,3.55232 -12.934823,2.68458" />
        <path
           style="font-style:normal;font-variant:normal;font-weight:bold;font-stretch:normal;font-size:144.08859253px;line-height:125%;font-family:kabayan;-inkscape-font-specification:'kabayan Bold';letter-spacing:0px;word-spacing:0px;fill:#dc3535;fill-opacity:1;stroke:none"
           d="m 153.2051,237.74527 c -2.51019,0 -4.53437,2.31424 -4.53437,5.15189 0,2.83766 2.02418,5.13425 4.53437,5.13425 2.51019,0 4.55201,-2.29659 4.55201,-5.13425 0,-2.83765 -2.04182,-5.15189 -4.55201,-5.15189 z m -2.20543,13.58546 c -0.70589,0.0578 -1.319,0.45268 -1.81728,1.16447 -1.03045,1.41014 -1.80424,5.23139 -2.34658,11.46825 -0.21693,2.60328 -0.41953,4.43776 -0.58223,5.5224 -0.0543,2.3321 -0.20521,5.32923 -0.47637,8.96288 -0.0543,1.13894 -0.0379,2.53555 0.0706,4.21678 0.10846,1.68128 0.32741,3.61772 0.65281,5.78706 0.3254,2.16938 0.76327,4.17247 1.30561,6.01642 0.59657,1.84396 1.35403,3.52748 2.27601,5.04603 0.97621,1.51855 2.12121,2.46096 3.42283,2.84059 1.35584,0.37965 2.92107,0.16071 4.7108,-0.6528 0.37963,-0.4881 0.56458,-0.85801 0.56459,-1.12919 -1.08469,-10.52138 -1.75784,-20.40354 -2.02899,-29.62336 -0.0543,-2.00662 -0.0543,-3.35291 0,-4.058 0.0542,-0.705 0.10453,-1.17685 0.15879,-1.39383 0.0542,-0.2169 0.0379,-0.63712 -0.0706,-1.28797 -0.0542,-0.705 -0.22285,-2.03496 -0.49401,-3.98742 -0.21695,-0.75923 -0.4019,-1.63497 -0.56459,-2.61124 -0.16271,-0.97616 -0.36531,-1.74995 -0.58224,-2.34658 -0.16271,-0.65075 -0.48229,-1.49251 -0.97039,-2.52301 -1.25078,-1.00669 -2.32118,-1.48583 -3.22875,-1.41148 z"
           id="path6357"
           inkscape:connector-curvature="0" />
        <path
           inkscape:connector-curvature="0"
           id="path6359"
           style="font-style:normal;font-variant:normal;font-weight:bold;font-stretch:normal;font-size:144.08859253px;line-height:125%;font-family:kabayan;-inkscape-font-specification:'kabayan Bold';letter-spacing:0px;word-spacing:0px;fill:#dc3535;fill-opacity:1;stroke:none"
           d="m 169.60053,245.86762 c 0.92197,6e-5 2.35917,-0.0541 4.31161,-0.1627 1.95241,-0.10841 3.44385,-0.16265 4.47431,-0.1627 5.09798,5e-5 9.21976,1.13897 12.36536,3.41674 4.39293,3.14563 6.5894,6.94201 6.58944,11.38915 -4e-5,3.68796 -1.59994,7.07758 -4.79971,10.16889 0.16267,0.1085 0.56942,0.2712 1.22026,0.4881 0.65078,0.21697 1.11177,0.37967 1.38297,0.48811 0.32537,0.1085 0.78636,0.35255 1.38297,0.73216 0.65077,0.37967 1.19311,0.78642 1.62702,1.22027 0.43384,0.4339 0.92194,1.03047 1.46432,1.78972 0.59653,0.7593 1.13887,1.62704 1.62702,2.60323 0.48807,1.62705 0.73212,3.22695 0.73216,4.79972 -4e-5,2.44055 -0.59662,4.77261 -1.78973,6.99619 -1.13894,2.16937 -2.63038,4.04044 -4.4743,5.61322 -1.84399,1.57279 -3.90489,2.98288 -6.18268,4.23026 -2.27786,1.19315 -4.50146,2.14224 -6.67079,2.84729 -2.16938,0.65081 -4.23027,1.08468 -6.18268,1.30161 -0.70506,0.10847 -1.38299,0.1627 -2.03378,0.1627 -2.11514,0 -3.95909,-0.62369 -5.53187,-1.87107 -1.51856,-1.24738 -2.73883,-2.98287 -3.6608,-5.20647 -0.86775,-2.27782 -1.51856,-4.7997 -1.95243,-7.56565 -0.37964,-2.76592 -0.56945,-5.80302 -0.56945,-9.11132 0,-6.39958 0.6508,-12.88055 1.95242,-19.4429 1.35585,-6.56227 2.92863,-11.47045 4.71836,-14.72455 m 20.25642,41.65175 c 2.71167,-2.87438 4.06752,-5.42339 4.06755,-7.647 -3e-5,-1.19312 -0.56948,-2.22357 -1.70837,-3.09134 -1.08471,-0.92195 -2.25074,-1.38294 -3.4981,-1.38297 -0.27119,3e-5 -0.51525,0.0272 -0.73215,0.0814 -4.66415,2.87443 -8.37918,5.99289 -11.1451,9.35538 -0.10849,1.03046 -0.16272,1.97955 -0.1627,2.84728 -2e-5,1.68127 0.27115,3.7964 0.81351,6.34539 0.27115,0.32541 0.67791,0.48811 1.22027,0.4881 1.24736,1e-5 3.0642,-0.8135 5.45051,-2.44053 2.44051,-1.68124 4.3387,-3.1998 5.69458,-4.55566 m -10.73834,-17.65318 c 0.43385,-0.43384 1.35583,-1.27447 2.76594,-2.52189 1.41006,-1.30158 2.44051,-2.27779 3.09134,-2.92864 0.65078,-0.705 1.38294,-1.65409 2.19648,-2.84728 0.86772,-1.24734 1.51852,-2.49473 1.95242,-3.74215 0.0542,-1.35581 -0.56948,-2.57607 -1.87107,-3.6608 -1.24741,-1.13886 -2.60326,-1.95238 -4.06756,-2.44053 -1.4101,-0.54229 -2.57613,-0.81346 -3.49809,-0.81351 l -0.0814,0 c -0.65083,0.70509 -1.27452,2.6304 -1.87108,5.77593 -0.54236,3.14561 -0.81352,6.07425 -0.81351,8.78591 -1e-5,3.25408 0.43386,4.8811 1.30162,4.88106 0.27115,4e-5 0.56944,-0.16267 0.89486,-0.4881" />
      </g>
      <g
         transform="matrix(0.74843911,0,0,0.74843911,42.767364,23.248791)"
         id="g4274">
        <text
           sodipodi:linespacing="125%"
           id="text4268"
           y="95.264275"
           x="227.62267"
           style="font-style:normal;font-weight:normal;font-size:109.43625641px;line-height:125%;font-family:sans-serif;letter-spacing:0px;word-spacing:0px;fill:#535353;fill-opacity:1;stroke:none;stroke-width:1px;stroke-linecap:butt;stroke-linejoin:miter;stroke-opacity:1"
           xml:space="preserve"><tspan
             style="font-style:normal;font-variant:normal;font-weight:500;font-stretch:normal;font-size:61.55788803px;font-family:kabayan;-inkscape-font-specification:'kabayan Medium';fill:#535353;fill-opacity:1"
             y="95.264275"
             x="227.62267"
             id="tspan4270"
             sodipodi:role="line">uburit</tspan></text>
      </g>
    </g>
    <g
       id="g4360"
       transform="translate(0,-19.999988)">
      <text
         sodipodi:linespacing="125%"
         id="text3364"
         y="538.18719"
         x="236.15965"
         style="font-style:normal;font-variant:normal;font-weight:100;font-stretch:condensed;font-size:28.26826477px;line-height:125%;font-family:'basic title font';-inkscape-font-specification:'basic title font Thin Condensed';letter-spacing:0px;word-spacing:0px;fill:#ffffff;fill-opacity:1;stroke:none;stroke-width:1px;stroke-linecap:butt;stroke-linejoin:miter;stroke-opacity:1"
         xml:space="preserve"><tspan
           style="font-style:normal;font-variant:normal;font-weight:normal;font-stretch:normal;font-size:27.5px;font-family:'Coco Gothic';-inkscape-font-specification:'Coco Gothic';fill:#ffffff"
           y="538.18719"
           x="236.15965"
           id="tspan3366"
           sodipodi:role="line">Imam Aris Munandar</tspan></text>
      <text
         sodipodi:linespacing="125%"
         id="text3368"
         y="513.21399"
         x="222.00729"
         style="font-style:normal;font-weight:normal;font-size:28.26826477px;line-height:125%;font-family:sans-serif;letter-spacing:0px;word-spacing:0px;fill:#aca65a;fill-opacity:1;stroke:none;stroke-width:1px;stroke-linecap:butt;stroke-linejoin:miter;stroke-opacity:1"
         xml:space="preserve"><tspan
           style="font-style:normal;font-variant:normal;font-weight:normal;font-stretch:normal;font-size:50px;font-family:Bebas;-inkscape-font-specification:Bebas;fill:#aca65a;fill-opacity:1"
           y="513.21399"
           x="222.00729"
           id="tspan3370"
           sodipodi:role="line">Design Sprint</tspan></text>
    </g>
    <g
       id="g4354"
       transform="translate(0,-18.757185)">
      <text
         sodipodi:linespacing="125%"
         id="text3372"
         y="601.36615"
         x="190.3134"
         style="font-style:normal;font-weight:normal;font-size:28.26826477px;line-height:125%;font-family:sans-serif;letter-spacing:0px;word-spacing:0px;fill:#aca65a;fill-opacity:1;stroke:none;stroke-width:1px;stroke-linecap:butt;stroke-linejoin:miter;stroke-opacity:1"
         xml:space="preserve"><tspan
           style="font-style:normal;font-variant:normal;font-weight:normal;font-stretch:normal;font-size:50px;font-family:Bebas;-inkscape-font-specification:Bebas;fill:#aca65a;fill-opacity:1"
           id="tspan3376"
           y="601.36615"
           x="190.3134"
           sodipodi:role="line">Text based Game</tspan></text>
      <text
         sodipodi:linespacing="125%"
         id="text3380"
         y="626.33936"
         x="255.46422"
         style="font-style:normal;font-weight:normal;font-size:28.26826477px;line-height:125%;font-family:sans-serif;letter-spacing:0px;word-spacing:0px;fill:#ffffff;fill-opacity:1;stroke:none;stroke-width:1px;stroke-linecap:butt;stroke-linejoin:miter;stroke-opacity:1"
         xml:space="preserve"><tspan
           style="font-style:normal;font-variant:normal;font-weight:normal;font-stretch:normal;font-size:27.5px;font-family:'Coco Gothic';-inkscape-font-specification:'Coco Gothic'"
           y="626.33936"
           x="255.46422"
           id="tspan3382"
           sodipodi:role="line">Pahlevy Tawainella</tspan></text>
    </g>
    <g
       id="g4348"
       transform="translate(0,-19.999991)">
      <text
         sodipodi:linespacing="125%"
         id="text3384"
         y="697.00891"
         x="196.91852"
         style="font-style:normal;font-weight:normal;font-size:28.26826477px;line-height:125%;font-family:sans-serif;letter-spacing:0px;word-spacing:0px;fill:#aca65a;fill-opacity:1;stroke:none;stroke-width:1px;stroke-linecap:butt;stroke-linejoin:miter;stroke-opacity:1"
         xml:space="preserve"><tspan
           style="font-style:normal;font-variant:normal;font-weight:normal;font-stretch:normal;font-size:50px;font-family:Bebas;-inkscape-font-specification:Bebas;fill:#aca65a;fill-opacity:1"
           y="697.00891"
           x="196.91852"
           id="tspan3386"
           sodipodi:role="line">Tausiyah Agama</tspan></text>
      <text
         sodipodi:linespacing="125%"
         id="text3388"
         y="721.98212"
         x="284.00513"
         style="font-style:normal;font-weight:normal;font-size:28.26826477px;line-height:125%;font-family:sans-serif;letter-spacing:0px;word-spacing:0px;fill:#ffffff;fill-opacity:1;stroke:none;stroke-width:1px;stroke-linecap:butt;stroke-linejoin:miter;stroke-opacity:1"
         xml:space="preserve"><tspan
           style="font-style:normal;font-variant:normal;font-weight:normal;font-stretch:normal;font-size:27.5px;font-family:'Coco Gothic';-inkscape-font-specification:'Coco Gothic'"
           y="721.98212"
           x="284.00513"
           id="tspan3390"
           sodipodi:role="line">Mukhlas Rowi</tspan></text>
    </g>
    <path
       inkscape:connector-curvature="0"
       style="color:#000000;clip-rule:nonzero;display:inline;overflow:visible;visibility:visible;opacity:1;isolation:auto;mix-blend-mode:normal;color-interpolation:sRGB;color-interpolation-filters:linearRGB;solid-color:#000000;solid-opacity:1;fill:#ccc574;fill-opacity:1;fill-rule:nonzero;stroke:none;stroke-width:5;stroke-linecap:square;stroke-linejoin:miter;stroke-miterlimit:4;stroke-dasharray:none;stroke-dashoffset:0;stroke-opacity:1;color-rendering:auto;image-rendering:auto;shape-rendering:auto;text-rendering:auto;enable-background:accumulate"
       d="M 582.88672,4.7244096e-6 744.09375,161.20703 l 0,-106.492181 L 689.37891,4.7244096e-6 l -106.49219,0 z"
       id="rect4330" />
    <text
       xml:space="preserve"
       style="font-style:normal;font-weight:normal;font-size:33.14350128px;line-height:125%;font-family:sans-serif;letter-spacing:0px;word-spacing:0px;fill:#2c3f46;fill-opacity:1;stroke:none;stroke-width:1px;stroke-linecap:butt;stroke-linejoin:miter;stroke-opacity:1;"
       x="470.6778"
       y="-432.28195"
       id="text3400"
       sodipodi:linespacing="125%"
       transform="matrix(0.70710678,0.70710678,-0.70710678,0.70710678,0,0)"><tspan
         sodipodi:role="line"
         id="tspan3402"
         x="470.6778"
         y="-432.28195"
         style="font-style:normal;font-variant:normal;font-weight:normal;font-stretch:normal;font-family:Bebas;-inkscape-font-specification:Bebas;fill:#2c3f46;fill-opacity:1;">Gratis +</tspan></text>
    <g
       id="g4563"
       transform="translate(1.0944883e-6,39.999998)">
      <text
         xml:space="preserve"
         style="font-style:normal;font-weight:normal;font-size:20.08163452px;line-height:125%;font-family:Sans;letter-spacing:0px;word-spacing:0px;fill:#ffffff;fill-opacity:1;stroke:none"
         x="272.66205"
         y="864.90662"
         id="text3437"
         sodipodi:linespacing="125%"
         inkscape:export-xdpi="300.01077"
         inkscape:export-ydpi="300.01077"><tspan
           sodipodi:role="line"
           id="tspan3439"
           x="272.66205"
           y="864.90662"
           style="font-style:normal;font-variant:normal;font-weight:normal;font-stretch:normal;font-size:12.55102158px;font-family:Bebas;-inkscape-font-specification:Bebas;text-align:end;text-anchor:end;fill:#aca65a;fill-opacity:1">Informasi   lebih   lanjut</tspan><tspan
           sodipodi:role="line"
           x="272.66205"
           y="878.99713"
           id="tspan3441"
           style="font-style:normal;font-variant:normal;font-weight:300;font-stretch:normal;font-size:12.55102158px;font-family:'Open Sans';-inkscape-font-specification:'Open Sans Light';text-align:end;text-anchor:end;fill:#ffffff;fill-opacity:1">SMS/WhatsApp:</tspan><tspan
           sodipodi:role="line"
           x="272.66205"
           y="898.99866"
           id="tspan3443"
           style="font-style:normal;font-variant:normal;font-weight:normal;font-stretch:normal;font-size:15px;font-family:Bebas;-inkscape-font-specification:Bebas;text-align:end;text-anchor:end;fill:#aca65a;fill-opacity:1">Evelyn</tspan><tspan
           id="tspan4451"
           sodipodi:role="line"
           x="272.66205"
           y="913.43591"
           style="font-style:normal;font-variant:normal;font-weight:300;font-stretch:normal;font-size:12.55102158px;font-family:'Open Sans';-inkscape-font-specification:'Open Sans Light';text-align:end;text-anchor:end;fill:#ffffff;fill-opacity:1">+62 8989 5428 80</tspan></text>
      <path
         inkscape:connector-curvature="0"
         id="rect4257"
         d="m 76.745486,853.59465 0,33.68946 33.689464,0 0,-33.68946 -33.689464,0 z m 9.93946,6.8711 c 0.41107,-0.008 0.81828,0.14055 1.125,0.44726 l 3.08789,3.08789 c 0.61377,0.61415 0.59642,1.63404 -0.041,2.27149 l -0.51367,0.51367 -1.04492,1.04102 c 0.0544,0.0954 0.11006,0.1966 0.16797,0.30078 0.54562,0.98283 1.29231,2.32942 2.71093,3.74804 1.41475,1.41581 2.76006,2.16086 3.74219,2.70508 0.10701,0.06 0.20846,0.11749 0.30664,0.17188 l 1.55469,-1.55469 c 0.63639,-0.63641 1.65468,-0.65534 2.269534,-0.043 l 3.08789,3.08789 c 0.6134,0.61555 0.59502,1.63208 -0.041,2.26953 l -0.88086,0.86328 -0.0195,-0.0156 c -0.37187,0.291 -0.80066,0.53349 -1.25976,0.71289 -0.42732,0.16598 -0.84813,0.27192 -1.287114,0.32422 -0.20129,0.0215 -4.87053,0.4592 -10.66406,-5.33399 -4.19127,-4.19161 -5.73567,-7.28045 -5.32813,-10.66015 0.0477,-0.42132 0.15292,-0.84246 0.32031,-1.28321 0.18117,-0.46299 0.4251,-0.89339 0.7168,-1.26562 l -0.0254,-0.0234 0.87109,-0.875 c 0.31873,-0.31874 0.73346,-0.48255 1.14454,-0.49023 z m -0.002,0.96875 c -0.16285,0.008 -0.3276,0.0772 -0.45703,0.20703 l -0.53711,0.54297 c -0.23379,0.24402 -0.56367,0.66572 -0.80664,1.28515 -0.13702,0.35952 -0.22289,0.70307 -0.26172,1.04493 -0.31043,2.57911 0.42937,5.24222 5.05078,9.86328 5.43508,5.43472 9.82692,5.05887 9.8711,5.05468 0.35068,-0.0417 0.695304,-0.12716 1.044924,-0.26171 0.6159,-0.24086 1.03758,-0.57109 1.28125,-0.80665 l 0.1543,-0.15039 0.38867,-0.38671 c 0.25919,-0.25922 0.27692,-0.66377 0.041,-0.9004 l -3.085934,-3.08593 c -0.23662,-0.23594 -0.64047,-0.21786 -0.90039,0.041 l -2.08399,2.08594 -0.32422,-0.19336 c -0.18258,-0.10877 -0.38652,-0.22245 -0.60937,-0.3457 -1.03122,-0.57211 -2.44552,-1.35498 -3.95703,-2.86719 -1.5154,-1.51399 -2.29952,-2.93045 -2.87305,-3.96484 -0.12077,-0.21967 -0.23283,-0.4211 -0.33984,-0.60157 l -0.19336,-0.32421 2.08593,-2.08399 c 0.25922,-0.26027 0.27728,-0.66343 0.041,-0.90039 l -3.08789,-3.08789 c -0.11831,-0.11829 -0.27856,-0.17188 -0.44141,-0.16406 z"
         style="display:inline;opacity:0.98999999;fill:#ffffff;fill-opacity:1;stroke:none;stroke-width:0.71499997;stroke-miterlimit:4;stroke-dasharray:none;stroke-dashoffset:0;stroke-opacity:1" />
      <text
         inkscape:export-ydpi="300.01077"
         inkscape:export-xdpi="300.01077"
         sodipodi:linespacing="125%"
         id="text5687"
         y="864.88879"
         x="470.72696"
         style="font-style:normal;font-weight:normal;font-size:20.08163452px;line-height:125%;font-family:Sans;letter-spacing:0px;word-spacing:0px;fill:#ffffff;fill-opacity:1;stroke:none"
         xml:space="preserve"><tspan
           style="font-style:normal;font-variant:normal;font-weight:normal;font-stretch:normal;font-size:12.55102158px;font-family:Bebas;-inkscape-font-specification:Bebas;text-align:start;text-anchor:start;fill:#aca65a;fill-opacity:1"
           id="tspan5693"
           y="864.88879"
           x="470.72696"
           sodipodi:role="line">Rumah   Btech</tspan><tspan
           id="tspan3440"
           style="font-style:normal;font-variant:normal;font-weight:300;font-stretch:normal;font-size:12.55102158px;font-family:'Open Sans';-inkscape-font-specification:'Open Sans Light';text-align:start;text-anchor:start;fill:#ffffff;fill-opacity:1"
           y="878.97931"
           x="470.72696"
           sodipodi:role="line">Perum Taman Cimanggu</tspan><tspan
           id="tspan5702"
           style="font-style:normal;font-variant:normal;font-weight:300;font-stretch:normal;font-size:12.55102158px;font-family:'Open Sans';-inkscape-font-specification:'Open Sans Light';text-align:start;text-anchor:start;fill:#ffffff;fill-opacity:1"
           y="894.66809"
           x="470.72696"
           sodipodi:role="line">Jl. Tanjung VIII No.14 Bogor</tspan></text>
      <path
         id="rect4298"
         d="m 633.65955,853.59465 0,33.68944 33.68945,0 0,-33.68944 -33.68945,0 z m 16.72656,8.14257 c 3.03565,0 5.58594,2.69395 5.58594,6.12307 -10e-6,2.6105 -1.33993,5.3237 -2.65626,7.4062 -1.31631,2.0826 -2.63476,3.54101 -2.63476,3.54101 l -0.30274,0.33399 -0.29296,-0.3418 c 0,0 -1.25769,-1.4733 -2.51368,-3.5625 -1.25599,-2.0892 -2.5332,-4.8006 -2.5332,-7.3769 0,-1.53885 0.56708,-3.05236 1.51563,-4.19729 0.94856,-1.14493 2.29751,-1.92578 3.83203,-1.92578 z m 0,0.79102 c -1.26591,0 -2.39303,0.64158 -3.22071,1.64062 -0.82768,0.99903 -1.33593,2.34996 -1.33593,3.69143 0,2.3085 1.20151,4.9388 2.42187,6.9687 1.07371,1.786 1.9025,2.7501 2.14453,3.04101 0.25065,-0.28471 1.12349,-1.245 2.25,-3.0273 1.27794,-2.0218 2.53321,-4.6491 2.53321,-6.9824 0,-3.03901 -2.2278,-5.33205 -4.79297,-5.33205 z m 0.11914,2.27734 c 1.41146,0 2.56445,1.15299 2.56445,2.56441 0,1.4115 -1.15299,2.5645 -2.56445,2.5645 -1.41146,0 -2.56446,-1.153 -2.56446,-2.5645 10e-6,-1.41142 1.153,-2.56441 2.56446,-2.56441 z m 0,0.79297 c -0.9832,0 -1.77149,0.78828 -1.77149,1.77144 0,0.9832 0.78829,1.7735 1.77149,1.7735 0.9832,0 1.77148,-0.7903 1.77148,-1.7735 0,-0.98316 -0.78828,-1.77144 -1.77148,-1.77144 z"
         style="display:inline;opacity:0.98999999;fill:#ffffff;fill-opacity:1;stroke:none;stroke-width:0.71499997;stroke-miterlimit:4;stroke-dasharray:none;stroke-dashoffset:0;stroke-opacity:1"
         inkscape:connector-curvature="0" />
    </g>
    <g
       id="g4576"
       transform="translate(4.0268762e-6,39.999987)">
      <text
         sodipodi:linespacing="125%"
         id="text3392"
         y="809.67133"
         x="75.440483"
         style="font-style:normal;font-weight:normal;font-size:28.26826477px;line-height:125%;font-family:sans-serif;letter-spacing:0px;word-spacing:0px;fill:#aca65a;fill-opacity:1;stroke:none;stroke-width:1px;stroke-linecap:butt;stroke-linejoin:miter;stroke-opacity:1"
         xml:space="preserve"><tspan
           style="font-style:normal;font-variant:normal;font-weight:normal;font-stretch:normal;font-family:Bebas;-inkscape-font-specification:Bebas;fill:#aca65a;fill-opacity:1"
           y="809.67133"
           x="75.440483"
           id="tspan3394"
           sodipodi:role="line">Minggu, 11 Juni 2017</tspan></text>
      <text
         sodipodi:linespacing="125%"
         id="text4374"
         y="833.16742"
         x="76.812988"
         style="font-style:normal;font-weight:normal;font-size:40px;line-height:125%;font-family:sans-serif;letter-spacing:0px;word-spacing:0px;fill:#ffffff;fill-opacity:1;stroke:none;stroke-width:1px;stroke-linecap:butt;stroke-linejoin:miter;stroke-opacity:1"
         xml:space="preserve"><tspan
           style="font-style:normal;font-variant:normal;font-weight:300;font-stretch:normal;font-size:22.5px;font-family:Lumnia;-inkscape-font-specification:'Lumnia Light';fill:#ffffff"
           y="833.16742"
           x="76.812988"
           id="tspan4376"
           sodipodi:role="line">13.00 s.d. Berbuka Puasa</tspan></text>
      <text
         xml:space="preserve"
         style="font-style:normal;font-weight:normal;font-size:28.26826477px;line-height:125%;font-family:sans-serif;letter-spacing:0px;word-spacing:0px;fill:#aca65a;fill-opacity:1;stroke:none;stroke-width:1px;stroke-linecap:butt;stroke-linejoin:miter;stroke-opacity:1"
         x="579.9668"
         y="809.67133"
         id="text4493"
         sodipodi:linespacing="125%"><tspan
           sodipodi:role="line"
           id="tspan4495"
           x="579.9668"
           y="809.67133"
           style="font-style:normal;font-variant:normal;font-weight:normal;font-stretch:normal;font-family:Bebas;-inkscape-font-specification:Bebas;fill:#aca65a;fill-opacity:1">Daftar</tspan></text>
      <text
         xml:space="preserve"
         style="font-style:normal;font-weight:normal;font-size:40px;line-height:125%;font-family:sans-serif;letter-spacing:0px;word-spacing:0px;fill:#ffffff;fill-opacity:1;stroke:none;stroke-width:1px;stroke-linecap:butt;stroke-linejoin:miter;stroke-opacity:1"
         x="558.40564"
         y="833.16742"
         id="text4497"
         sodipodi:linespacing="125%"><tspan
           sodipodi:role="line"
           id="tspan4499"
           x="558.40564"
           y="833.16742"
           style="font-style:normal;font-variant:normal;font-weight:300;font-stretch:normal;font-size:22.5px;font-family:'Coco Gothic';-inkscape-font-specification:'Coco Gothic Light';fill:#ffffff">s.id/xxxxxxx</tspan></text>
    </g>
    <text
       xml:space="preserve"
       style="font-style:normal;font-weight:normal;font-size:40px;line-height:125%;font-family:sans-serif;letter-spacing:0px;word-spacing:0px;fill:#2c3f46;fill-opacity:1;stroke:none;stroke-width:1px;stroke-linecap:butt;stroke-linejoin:miter;stroke-opacity:1;"
       x="553.20898"
       y="-415.36386"
       id="text4518"
       sodipodi:linespacing="125%"
       transform="matrix(0.70710678,0.70710678,-0.70710678,0.70710678,0,0)"><tspan
         sodipodi:role="line"
         id="tspan4520"
         x="553.20898"
         y="-415.36386"
         style="font-style:normal;font-variant:normal;font-weight:normal;font-stretch:normal;font-size:16.25px;font-family:Bebas;-inkscape-font-specification:Bebas;fill:#2c3f46;fill-opacity:1;">Takjil</tspan></text>
    <text
       xml:space="preserve"
       style="font-style:normal;font-weight:normal;font-size:40px;line-height:125%;font-family:sans-serif;letter-spacing:0px;word-spacing:0px;fill:#000000;fill-opacity:1;stroke:none;stroke-width:1px;stroke-linecap:butt;stroke-linejoin:miter;stroke-opacity:1"
       x="218.26373"
       y="1025.7683"
       id="text4522"
       sodipodi:linespacing="125%"><tspan
         sodipodi:role="line"
         id="tspan4524"
         x="218.26373"
         y="1025.7683"
         style="font-style:normal;font-variant:normal;font-weight:normal;font-stretch:normal;font-size:15px;font-family:'Coco Gothic';-inkscape-font-specification:'Coco Gothic';fill:#ffffff">- Mohon untuk membawa alat tulis sendiri -</tspan></text>
    <text
       xml:space="preserve"
       style="font-style:normal;font-weight:normal;font-size:40px;line-height:125%;font-family:sans-serif;letter-spacing:0px;word-spacing:0px;fill:#ffffff;fill-opacity:1;stroke:none;stroke-width:1px;stroke-linecap:butt;stroke-linejoin:miter;stroke-opacity:1"
       x="345.51389"
       y="433.9101"
       id="text3396"
       sodipodi:linespacing="125%"><tspan
         sodipodi:role="line"
         id="tspan3398"
         x="345.51389"
         y="433.9101"
         style="font-style:normal;font-variant:normal;font-weight:normal;font-stretch:normal;font-size:15px;font-family:'Coco Gothic';-inkscape-font-specification:'Coco Gothic';fill:#ffffff">Materi :</tspan></text>
  </g>
</svg>
